<svg width="206" height="185" viewBox="0 0 206 185" fill="none" xmlns="http://www.w3.org/2000/svg">
<path d="M105.495 0.398773L98.7918 2.12839L16.211 23.4377L9.50811 25.1674C6.25462 26.0108 3.46833 28.1112 1.76054 31.0077C0.052753 33.9042 -0.437072 37.3603 0.398529 40.6177L29.4637 153.397C30.3066 156.652 32.4057 159.44 35.3003 161.149C38.195 162.858 41.6489 163.348 44.9043 162.512L44.9216 162.508L140.874 137.748L140.891 137.743C144.144 136.9 146.931 134.8 148.638 131.903C150.346 129.007 150.836 125.551 150 122.293L120.935 9.51414C120.092 6.25859 117.993 3.47055 115.099 1.76167C112.204 0.0527958 108.75 -0.437348 105.495 0.398773Z" fill="#F2F2F2"/>
<path d="M106.406 3.93434L98.467 5.98297L18.3584 26.6544L10.4194 28.7029C8.10252 29.3036 6.11834 30.7993 4.90217 32.862C3.68601 34.9246 3.33719 37.3858 3.93224 39.7055L32.9974 152.484C33.5977 154.803 35.0924 156.788 37.1538 158.005C39.2152 159.222 41.6748 159.571 43.993 158.976L44.0103 158.971L139.962 134.212L139.98 134.207C142.297 133.606 144.281 132.111 145.497 130.048C146.713 127.985 147.062 125.524 146.467 123.205L117.402 10.4256C116.801 8.10729 115.307 6.12187 113.245 4.90494C111.184 3.68801 108.724 3.33895 106.406 3.93434Z" fill="white"/>
<path d="M100.41 40.4552L51.8706 52.9805C51.3284 53.1204 50.753 53.039 50.2708 52.7544C49.7885 52.4697 49.4391 52.005 49.2993 51.4625C49.1595 50.92 49.2408 50.3442 49.5253 49.8617C49.8098 49.3792 50.2742 49.0295 50.8163 48.8896L99.356 36.3643C99.898 36.225 100.473 36.3066 100.955 36.5914C101.437 36.8761 101.786 37.3406 101.926 37.8827C102.065 38.4249 101.984 39.0004 101.7 39.4827C101.416 39.9651 100.952 40.3149 100.41 40.4552Z" fill="#F2F2F2"/>
<path d="M110.622 45.1827L53.6499 59.8838C53.1077 60.0237 52.5323 59.9424 52.0501 59.6577C51.5678 59.373 51.2184 58.9083 51.0786 58.3659C50.9388 57.8234 51.0201 57.2475 51.3046 56.765C51.5891 56.2825 52.0535 55.9329 52.5956 55.793L109.567 41.0918C110.11 40.9519 110.685 41.0333 111.167 41.3179C111.649 41.6026 111.999 42.0673 112.139 42.6098C112.279 43.1523 112.197 43.7281 111.913 44.2106C111.628 44.6931 111.164 45.0428 110.622 45.1827Z" fill="#F2F2F2"/>
<path d="M108.384 71.3921L59.8442 83.9174C59.5758 83.9867 59.2963 84.0024 59.0218 83.9636C58.7473 83.9248 58.4832 83.8323 58.2444 83.6913C58.0056 83.5504 57.7969 83.3638 57.6303 83.1421C57.4636 82.9204 57.3422 82.6681 57.2729 82.3995C57.2037 82.1309 57.188 81.8513 57.2268 81.5766C57.2656 81.3019 57.358 81.0376 57.4989 80.7987C57.6398 80.5598 57.8263 80.3509 58.0478 80.1841C58.2693 80.0174 58.5215 79.8959 58.7899 79.8266L107.33 67.3013C107.598 67.232 107.878 67.2163 108.152 67.2551C108.427 67.2939 108.691 67.3864 108.929 67.5274C109.168 67.6684 109.377 67.855 109.544 68.0766C109.71 68.2983 109.832 68.5506 109.901 68.8192C109.97 69.0879 109.986 69.3675 109.947 69.6421C109.908 69.9168 109.816 70.1812 109.675 70.4201C109.534 70.659 109.348 70.8678 109.126 71.0346C108.905 71.2014 108.652 71.3229 108.384 71.3921Z" fill="#F2F2F2"/>
<path d="M118.595 76.1197L61.6235 90.8208C61.3551 90.8901 61.0756 90.9058 60.8011 90.867C60.5266 90.8282 60.2625 90.7357 60.0237 90.5947C59.7849 90.4538 59.5762 90.2671 59.4096 90.0455C59.2429 89.8238 59.1215 89.5715 59.0522 89.3029C58.983 89.0343 58.9673 88.7546 59.0061 88.48C59.0449 88.2053 59.1373 87.941 59.2782 87.702C59.4191 87.4631 59.6056 87.2543 59.8271 87.0875C60.0486 86.9207 60.3008 86.7992 60.5692 86.73L117.541 72.0288C118.083 71.8889 118.659 71.9703 119.141 72.2549C119.623 72.5396 119.973 73.0043 120.112 73.5468C120.252 74.0893 120.171 74.6651 119.886 75.1476C119.602 75.6301 119.137 75.9798 118.595 76.1197Z" fill="#F2F2F2"/>
<path d="M116.357 102.329L67.8174 114.854C67.2754 114.994 66.7003 114.912 66.2184 114.628C65.7365 114.343 65.3873 113.878 65.2475 113.336C65.1078 112.794 65.1889 112.218 65.4731 111.736C65.7573 111.254 66.2213 110.904 66.7631 110.764L115.303 98.2383C115.845 98.0984 116.42 98.1797 116.903 98.4644C117.385 98.7491 117.734 99.2138 117.874 99.7563C118.014 100.299 117.933 100.875 117.648 101.357C117.364 101.84 116.899 102.189 116.357 102.329Z" fill="#F2F2F2"/>
<path d="M126.569 107.057L69.597 121.758C69.3285 121.827 69.0489 121.843 68.7742 121.805C68.4995 121.766 68.2351 121.674 67.9962 121.533C67.7572 121.392 67.5483 121.205 67.3815 120.983C67.2147 120.762 67.0932 120.509 67.0239 120.24C66.9546 119.972 66.939 119.692 66.9778 119.417C67.0167 119.142 67.1093 118.878 67.2504 118.639C67.3914 118.4 67.5781 118.191 67.7999 118.024C68.0216 117.857 68.2741 117.736 68.5427 117.667L125.515 102.966C126.057 102.826 126.632 102.907 127.114 103.192C127.597 103.477 127.946 103.941 128.086 104.484C128.226 105.026 128.144 105.602 127.86 106.085C127.575 106.567 127.111 106.917 126.569 107.057Z" fill="#F2F2F2"/>
<path d="M43.5849 65.8234L26.4071 70.256C26.1472 70.3228 25.8714 70.2836 25.6402 70.1472C25.4091 70.0107 25.2415 69.7881 25.1742 69.5281L21.231 54.2279C21.1643 53.9678 21.2034 53.6918 21.3398 53.4606C21.4762 53.2293 21.6987 53.0616 21.9584 52.9942L39.1362 48.5616C39.3961 48.4949 39.6719 48.534 39.9031 48.6704C40.1342 48.8069 40.3018 49.0295 40.3691 49.2895L44.3123 64.5897C44.379 64.8498 44.3399 65.1258 44.2035 65.3571C44.0672 65.5884 43.8447 65.7561 43.5849 65.8234Z" fill="#EBEBEB"/>
<path d="M51.5575 96.7604L34.3798 101.193C34.1198 101.26 33.844 101.221 33.6129 101.084C33.3817 100.948 33.2141 100.725 33.1468 100.465L29.2037 85.1649C29.137 84.9048 29.1761 84.6289 29.3125 84.3976C29.4488 84.1663 29.6713 83.9986 29.9311 83.9312L47.1089 79.4986C47.3688 79.4319 47.6446 79.471 47.8757 79.6075C48.1069 79.7439 48.2745 79.9666 48.3418 80.2265L52.2849 95.5267C52.3516 95.7868 52.3125 96.0628 52.1762 96.2941C52.0398 96.5254 51.8173 96.6931 51.5575 96.7604Z" fill="#EBEBEB"/>
<path d="M59.5302 127.697L42.3524 132.13C42.0925 132.197 41.8167 132.158 41.5855 132.021C41.3544 131.885 41.1868 131.662 41.1195 131.402L37.1764 116.102C37.1096 115.842 37.1487 115.566 37.2851 115.335C37.4215 115.103 37.644 114.936 37.9038 114.868L55.0815 110.436C55.3415 110.369 55.6173 110.408 55.8484 110.544C56.0795 110.681 56.2471 110.904 56.3144 111.164L60.2576 126.464C60.3243 126.724 60.2852 127 60.1488 127.231C60.0125 127.462 59.79 127.63 59.5302 127.697Z" fill="#EBEBEB"/>
<path d="M172.44 28.9863H73.3134C69.9525 28.9901 66.7303 30.3278 64.3538 32.7058C61.9773 35.0838 60.6405 38.308 60.6367 41.671V158.14C60.6405 161.503 61.9773 164.727 64.3538 167.105C66.7303 169.483 69.9525 170.821 73.3134 170.824H172.44C175.801 170.821 179.023 169.483 181.4 167.105C183.776 164.727 185.113 161.503 185.117 158.14V41.671C185.113 38.308 183.776 35.0838 181.4 32.7058C179.023 30.3278 175.801 28.9901 172.44 28.9863Z" fill="#EBEBEB"/>
<path d="M172.44 32.6382H73.3135C70.9201 32.6409 68.6255 33.5934 66.9332 35.2869C65.2408 36.9803 64.2888 39.2763 64.2861 41.6712V158.14C64.2888 160.535 65.2408 162.831 66.9332 164.524C68.6255 166.218 70.9201 167.17 73.3135 167.173H172.44C174.834 167.17 177.128 166.218 178.821 164.524C180.513 162.831 181.465 160.535 181.468 158.14V41.6712C181.465 39.2764 180.513 36.9804 178.821 35.2869C177.128 33.5935 174.834 32.6409 172.44 32.6382Z" fill="white"/>
<path d="M182.854 184.995C195.634 184.995 205.995 174.628 205.995 161.84C205.995 149.051 195.634 138.684 182.854 138.684C170.073 138.684 159.713 149.051 159.713 161.84C159.713 174.628 170.073 184.995 182.854 184.995Z" fill="black"/>
<path d="M193.922 158.819H185.873V150.765C185.873 149.964 185.555 149.196 184.989 148.63C184.423 148.063 183.655 147.745 182.854 147.745C182.054 147.745 181.286 148.063 180.72 148.63C180.154 149.196 179.836 149.964 179.836 150.765V158.819H171.787C170.986 158.819 170.219 159.138 169.653 159.704C169.087 160.27 168.769 161.039 168.769 161.84C168.769 162.641 169.087 163.409 169.653 163.975C170.219 164.542 170.986 164.86 171.787 164.86H179.836V172.914C179.836 173.715 180.154 174.483 180.72 175.05C181.286 175.616 182.054 175.934 182.854 175.934C183.655 175.934 184.423 175.616 184.989 175.05C185.555 174.483 185.873 173.715 185.873 172.914V164.86H193.922C194.722 164.86 195.49 164.542 196.056 163.975C196.622 163.409 196.94 162.641 196.94 161.84C196.94 161.039 196.622 160.27 196.056 159.704C195.49 159.138 194.722 158.819 193.922 158.819Z" fill="white"/>
<path d="M157.521 96.6373H107.394C107.116 96.6376 106.841 96.5832 106.585 96.4772C106.329 96.3711 106.096 96.2156 105.899 96.0194C105.703 95.8232 105.547 95.5903 105.441 95.3338C105.335 95.0774 105.28 94.8025 105.28 94.5249C105.28 94.2473 105.335 93.9725 105.441 93.716C105.547 93.4596 105.703 93.2266 105.899 93.0305C106.096 92.8343 106.329 92.6787 106.585 92.5727C106.841 92.4667 107.116 92.4123 107.394 92.4126H157.521C158.081 92.4132 158.617 92.636 159.013 93.0321C159.408 93.4282 159.63 93.9651 159.63 94.5249C159.63 95.0848 159.408 95.6217 159.013 96.0178C158.617 96.4138 158.081 96.6367 157.521 96.6373Z" fill="#EBEBEB"/>
<path d="M166.229 103.767H107.394C107.116 103.767 106.841 103.713 106.585 103.607C106.329 103.501 106.096 103.345 105.899 103.149C105.703 102.953 105.547 102.72 105.441 102.463C105.335 102.207 105.28 101.932 105.28 101.654C105.28 101.377 105.335 101.102 105.441 100.845C105.547 100.589 105.703 100.356 105.899 100.16C106.096 99.9637 106.329 99.8081 106.585 99.7021C106.841 99.5961 107.116 99.5417 107.394 99.542H166.229C166.789 99.542 167.326 99.7645 167.722 100.161C168.118 100.557 168.34 101.094 168.34 101.654C168.34 102.215 168.118 102.752 167.722 103.148C167.326 103.544 166.789 103.767 166.229 103.767Z" fill="#EBEBEB"/>
<path d="M157.521 128.587H107.394C107.116 128.587 106.841 128.532 106.585 128.426C106.329 128.32 106.096 128.165 105.899 127.969C105.703 127.772 105.547 127.54 105.441 127.283C105.335 127.027 105.28 126.752 105.28 126.474C105.28 126.197 105.335 125.922 105.441 125.665C105.547 125.409 105.703 125.176 105.899 124.98C106.096 124.783 106.329 124.628 106.585 124.522C106.841 124.416 107.116 124.362 107.394 124.362H157.521C158.081 124.362 158.618 124.584 159.014 124.981C159.41 125.377 159.632 125.914 159.632 126.474C159.632 127.034 159.41 127.572 159.014 127.968C158.618 128.364 158.081 128.587 157.521 128.587Z" fill="#EBEBEB"/>
<path d="M166.229 135.716H107.394C107.116 135.716 106.841 135.662 106.585 135.556C106.329 135.45 106.096 135.294 105.899 135.098C105.703 134.902 105.547 134.669 105.441 134.412C105.335 134.156 105.28 133.881 105.28 133.603C105.28 133.326 105.335 133.051 105.441 132.794C105.547 132.538 105.703 132.305 105.899 132.109C106.096 131.913 106.329 131.757 106.585 131.651C106.841 131.545 107.116 131.491 107.394 131.491H166.229C166.507 131.491 166.782 131.545 167.038 131.651C167.294 131.757 167.527 131.913 167.724 132.109C167.92 132.305 168.076 132.538 168.182 132.794C168.288 133.051 168.343 133.326 168.343 133.603C168.343 133.881 168.288 134.156 168.182 134.412C168.076 134.669 167.92 134.902 167.724 135.098C167.527 135.294 167.294 135.45 167.038 135.556C166.782 135.662 166.507 135.716 166.229 135.716Z" fill="#EBEBEB"/>
<path d="M96.1651 107.003H78.4253C78.1569 107.002 77.8997 106.896 77.7099 106.706C77.5201 106.516 77.4134 106.258 77.4131 105.99V90.1891C77.4134 89.9206 77.5201 89.6631 77.7099 89.4733C77.8997 89.2834 78.1569 89.1766 78.4253 89.1763H96.1651C96.4334 89.1766 96.6907 89.2834 96.8805 89.4733C97.0703 89.6631 97.177 89.9206 97.1773 90.1891V105.99C97.177 106.258 97.0703 106.516 96.8805 106.706C96.6907 106.896 96.4334 107.002 96.1651 107.003Z" fill="#EBEBEB"/>
<path d="M96.1651 138.952H78.4253C78.1569 138.952 77.8997 138.845 77.7099 138.655C77.5201 138.465 77.4134 138.208 77.4131 137.939V122.138C77.4134 121.87 77.5201 121.612 77.7099 121.422C77.8997 121.233 78.1569 121.126 78.4253 121.125H96.1651C96.4334 121.126 96.6907 121.233 96.8805 121.422C97.0703 121.612 97.177 121.87 97.1773 122.138V137.939C97.177 138.208 97.0703 138.465 96.8805 138.655C96.6907 138.845 96.4334 138.952 96.1651 138.952Z" fill="#EBEBEB"/>
<path d="M157.578 61.0716H120.621C120.061 61.0716 119.524 60.8491 119.128 60.4529C118.732 60.0568 118.51 59.5195 118.51 58.9593C118.51 58.399 118.732 57.8618 119.128 57.4656C119.524 57.0695 120.061 56.8469 120.621 56.8469H157.578C158.138 56.8469 158.675 57.0695 159.071 57.4656C159.467 57.8618 159.689 58.399 159.689 58.9593C159.689 59.5195 159.467 60.0568 159.071 60.4529C158.675 60.8491 158.138 61.0716 157.578 61.0716Z" fill="#CCCCCC"/>
<path d="M166.286 68.2008H120.621C120.344 68.2008 120.069 68.1461 119.813 68.04C119.557 67.9338 119.324 67.7782 119.128 67.5821C118.932 67.3859 118.777 67.1531 118.67 66.8968C118.564 66.6405 118.51 66.3658 118.51 66.0884C118.51 65.811 118.564 65.5363 118.67 65.2801C118.777 65.0238 118.932 64.7909 119.128 64.5948C119.324 64.3986 119.557 64.243 119.813 64.1369C120.069 64.0307 120.344 63.9761 120.621 63.9761H166.286C166.846 63.9761 167.383 64.1986 167.779 64.5948C168.174 64.9909 168.397 65.5282 168.397 66.0884C168.397 66.6486 168.174 67.1859 167.779 67.5821C167.383 67.9782 166.846 68.2008 166.286 68.2008Z" fill="#CCCCCC"/>
<path d="M112.441 76.8405H78.3697C78.1013 76.8402 77.844 76.7334 77.6542 76.5435C77.4645 76.3536 77.3577 76.0961 77.3574 75.8276V49.2201C77.3577 48.9516 77.4645 48.6941 77.6542 48.5043C77.844 48.3144 78.1013 48.2076 78.3697 48.2073H112.441C112.709 48.2076 112.967 48.3144 113.156 48.5043C113.346 48.6941 113.453 48.9516 113.453 49.2201V75.8276C113.453 76.0961 113.346 76.3536 113.156 76.5435C112.967 76.7334 112.709 76.8402 112.441 76.8405Z" fill="black"/>
</svg>
