<svg width="24" height="24" viewBox="0 0 24 24" fill="none" xmlns="http://www.w3.org/2000/svg">
<path d="M14.6667 7.73333V7.2H9.33333V7.73333C9.33333 8.02788 9.09455 8.26667 8.8 8.26667C8.50545 8.26667 8.26667 8.02788 8.26667 7.73333V7.2H6.66667C6.37212 7.2 6.13333 7.43878 6.13333 7.73333V9.33333H17.8667V7.73333C17.8667 7.43878 17.6278 7.2 17.3333 7.2H15.7333V7.73333C15.7333 8.02788 15.4945 8.26667 15.2 8.26667C14.9055 8.26667 14.6667 8.02788 14.6667 7.73333Z" fill="#10B981"/>
<path fill-rule="evenodd" clip-rule="evenodd" d="M6.13333 17.3333V10.4H17.8667V17.3333C17.8667 17.6278 17.6278 17.8667 17.3333 17.8667H6.66667C6.37212 17.8667 6.13333 17.6278 6.13333 17.3333ZM12 11.4667C11.7055 11.4667 11.4667 11.7055 11.4667 12C11.4667 12.2945 11.7055 12.5333 12 12.5333C12.2945 12.5333 12.5333 12.2945 12.5333 12C12.5333 11.7055 12.2945 11.4667 12 11.4667ZM13.6 12C13.6 11.7055 13.8388 11.4667 14.1333 11.4667C14.4279 11.4667 14.6667 11.7055 14.6667 12C14.6667 12.2945 14.4279 12.5333 14.1333 12.5333C13.8388 12.5333 13.6 12.2945 13.6 12ZM16.2667 11.4667C15.9722 11.4667 15.7333 11.7055 15.7333 12C15.7333 12.2945 15.9722 12.5333 16.2667 12.5333C16.5612 12.5333 16.8 12.2945 16.8 12C16.8 11.7055 16.5612 11.4667 16.2667 11.4667ZM15.7333 14.1333C15.7333 13.8388 15.9722 13.6 16.2667 13.6C16.5612 13.6 16.8 13.8388 16.8 14.1333C16.8 14.4279 16.5612 14.6667 16.2667 14.6667C15.9722 14.6667 15.7333 14.4279 15.7333 14.1333ZM14.1333 13.6C13.8388 13.6 13.6 13.8388 13.6 14.1333C13.6 14.4279 13.8388 14.6667 14.1333 14.6667C14.4279 14.6667 14.6667 14.4279 14.6667 14.1333C14.6667 13.8388 14.4279 13.6 14.1333 13.6ZM11.4667 14.1333C11.4667 13.8388 11.7055 13.6 12 13.6C12.2945 13.6 12.5333 13.8388 12.5333 14.1333C12.5333 14.4279 12.2945 14.6667 12 14.6667C11.7055 14.6667 11.4667 14.4279 11.4667 14.1333ZM9.86667 13.6C9.57212 13.6 9.33333 13.8388 9.33333 14.1333C9.33333 14.4279 9.57212 14.6667 9.86667 14.6667C10.1612 14.6667 10.4 14.4279 10.4 14.1333C10.4 13.8388 10.1612 13.6 9.86667 13.6ZM7.2 14.1333C7.2 13.8388 7.43878 13.6 7.73333 13.6C8.02788 13.6 8.26667 13.8388 8.26667 14.1333C8.26667 14.4279 8.02788 14.6667 7.73333 14.6667C7.43878 14.6667 7.2 14.4279 7.2 14.1333ZM7.73333 15.7333C7.43878 15.7333 7.2 15.9722 7.2 16.2667C7.2 16.5612 7.43878 16.8 7.73333 16.8C8.02788 16.8 8.26667 16.5612 8.26667 16.2667C8.26667 15.9722 8.02788 15.7333 7.73333 15.7333ZM9.33333 16.2667C9.33333 15.9722 9.57212 15.7333 9.86667 15.7333C10.1612 15.7333 10.4 15.9722 10.4 16.2667C10.4 16.5612 10.1612 16.8 9.86667 16.8C9.57212 16.8 9.33333 16.5612 9.33333 16.2667ZM12 15.7333C11.7055 15.7333 11.4667 15.9722 11.4667 16.2667C11.4667 16.5612 11.7055 16.8 12 16.8C12.2945 16.8 12.5333 16.5612 12.5333 16.2667C12.5333 15.9722 12.2945 15.7333 12 15.7333ZM13.6 16.2667C13.6 15.9722 13.8388 15.7333 14.1333 15.7333C14.4279 15.7333 14.6667 15.9722 14.6667 16.2667C14.6667 16.5612 14.4279 16.8 14.1333 16.8C13.8388 16.8 13.6 16.5612 13.6 16.2667Z" fill="#10B981"/>
<path fill-rule="evenodd" clip-rule="evenodd" d="M12 0C5.37258 0 0 5.37258 0 12C0 18.6274 5.37258 24 12 24C18.6274 24 24 18.6274 24 12C24 5.37258 18.6274 0 12 0ZM9.33333 5.6C9.33333 5.30545 9.09455 5.06667 8.8 5.06667C8.50545 5.06667 8.26667 5.30545 8.26667 5.6V6.13333H6.66667C5.78301 6.13333 5.06667 6.84967 5.06667 7.73333V17.3333C5.06667 18.217 5.78301 18.9333 6.66667 18.9333H17.3333C18.217 18.9333 18.9333 18.217 18.9333 17.3333V7.73333C18.9333 6.84967 18.217 6.13333 17.3333 6.13333H15.7333V5.6C15.7333 5.30545 15.4945 5.06667 15.2 5.06667C14.9055 5.06667 14.6667 5.30545 14.6667 5.6V6.13333H9.33333V5.6Z" fill="#10B981"/>
</svg>
