<svg width="30" height="30" viewBox="0 0 30 30" fill="none" xmlns="http://www.w3.org/2000/svg">
<g clip-path="url(#clip0_48_152)">
<path d="M29.9925 13.7125C29.9887 13.6556 29.9781 13.6006 29.9587 13.5462C29.9519 13.5262 29.9469 13.5069 29.9381 13.4875C29.9081 13.4231 29.8706 13.3631 29.8187 13.3106C29.8181 13.3094 29.8175 13.3088 29.8162 13.3075L26.25 9.74125V6.25C26.25 6.23688 26.2431 6.225 26.2425 6.21187C26.2387 6.15625 26.2281 6.1025 26.21 6.05C26.2031 6.03 26.1981 6.01125 26.1894 5.99187C26.1588 5.92562 26.1206 5.8625 26.0669 5.80875L20.4419 0.18375C20.3888 0.130625 20.3256 0.0925 20.26 0.061875C20.24 0.0525 20.2194 0.046875 20.1981 0.04C20.1475 0.023125 20.0956 0.0125 20.0425 0.00875C20.0275 0.0075 20.0144 0 20 0H4.375C4.02938 0 3.75 0.28 3.75 0.625V9.74125L0.18375 13.3075C0.1825 13.3088 0.1825 13.3094 0.18125 13.3106C0.129375 13.3625 0.091875 13.4231 0.061875 13.4875C0.053125 13.5063 0.048125 13.5262 0.04125 13.5462C0.0225 13.6 0.01125 13.655 0.0075 13.7125C0.006875 13.7256 0 13.7369 0 13.75V25.625C0 25.97 0.279375 26.25 0.625 26.25H3.75V29.375C3.75 29.72 4.02938 30 4.375 30H25.625C25.9706 30 26.25 29.72 26.25 29.375V26.25H29.375C29.7206 26.25 30 25.97 30 25.625V13.75C30 13.7369 29.9931 13.7256 29.9925 13.7125ZM27.8662 13.125H26.25V11.5087L27.8662 13.125ZM24.1162 5.625H20.625V2.13375L24.1162 5.625ZM5 1.25H19.375V6.25C19.375 6.595 19.6544 6.875 20 6.875H25V10V13.125H5V10V1.25ZM3.75 11.5087V13.125H2.13375L3.75 11.5087ZM25 28.75H5V26.25H25V28.75ZM28.75 25H1.25V14.375H4.375H25.625H28.75V25Z" fill="#005694"/>
<path d="M8.85878 16.2275H6.96753V23.75H8.84815C9.81878 23.75 10.5538 23.4225 11.0532 22.7669C11.5525 22.1119 11.8019 21.1894 11.8019 19.9994C11.8019 18.8094 11.5525 17.8832 11.0532 17.2207C10.5532 16.5588 9.8219 16.2275 8.85878 16.2275ZM10.4044 21.1519C10.3232 21.4819 10.2075 21.7563 10.0588 21.9757C9.91003 22.195 9.73315 22.36 9.52753 22.4694C9.3219 22.5794 9.09878 22.6344 8.85815 22.6344H8.25253V17.3432H8.85815C9.09878 17.3432 9.3219 17.3982 9.52753 17.5075C9.73315 17.6175 9.91003 17.7825 10.0588 18.0019C10.2075 18.2213 10.3225 18.4975 10.4044 18.8307C10.4857 19.1638 10.5263 19.5532 10.5263 19.9994C10.5269 20.4388 10.4863 20.8225 10.4044 21.1519Z" fill="#005694"/>
<path d="M20.6631 18.0336C20.7906 17.7855 20.95 17.5893 21.1413 17.4436C21.3325 17.2986 21.5556 17.2261 21.8106 17.2261C22.2713 17.2261 22.6463 17.4349 22.9369 17.853L23.67 16.9605C23.4644 16.663 23.1988 16.4349 22.8731 16.2749C22.5475 16.1155 22.1681 16.0361 21.7363 16.0361C21.3181 16.0361 20.9375 16.1336 20.5944 16.328C20.2506 16.523 19.9588 16.7955 19.7175 17.1461C19.4769 17.4974 19.2906 17.9149 19.16 18.3999C19.0288 18.8855 18.9631 19.4149 18.9631 19.9886C18.9631 20.5624 19.0288 21.0899 19.16 21.5718C19.2913 22.0536 19.475 22.4693 19.7125 22.8199C19.95 23.1711 20.24 23.4455 20.5838 23.6436C20.9275 23.8418 21.3119 23.9411 21.7369 23.9411C22.2044 23.9411 22.5919 23.8493 22.9 23.6649C23.2081 23.4805 23.4613 23.2399 23.6594 22.9424L22.9263 22.0818C22.8056 22.2661 22.6556 22.4218 22.475 22.5493C22.2944 22.6768 22.08 22.7405 21.8325 22.7405C21.5706 22.7405 21.3419 22.668 21.1469 22.5224C20.9519 22.3774 20.7913 22.1811 20.6638 21.933C20.5363 21.6849 20.4406 21.393 20.3769 21.0561C20.3131 20.7199 20.2813 20.3643 20.2813 19.9886C20.2813 19.6061 20.3131 19.2468 20.3769 18.9099C20.44 18.5736 20.5356 18.2818 20.6631 18.0336Z" fill="#005694"/>
<path d="M17.3801 17.1199C17.1463 16.773 16.8613 16.5055 16.5251 16.3174C16.1888 16.1299 15.8113 16.0361 15.3938 16.0361C14.9688 16.0361 14.5882 16.1299 14.2519 16.3174C13.9157 16.5055 13.6307 16.773 13.3969 17.1199C13.1632 17.4668 12.9863 17.8811 12.8657 18.363C12.7451 18.8449 12.6851 19.383 12.6851 19.978C12.6851 20.573 12.7469 21.113 12.8713 21.598C12.9951 22.0836 13.1744 22.4999 13.4076 22.8468C13.6413 23.1936 13.9244 23.463 14.2576 23.6543C14.5907 23.8455 14.9694 23.9411 15.3944 23.9411C15.8126 23.9411 16.1894 23.8455 16.5257 23.6543C16.8619 23.463 17.1469 23.1936 17.3807 22.8468C17.6144 22.4999 17.7932 22.0836 17.9169 21.598C18.0407 21.113 18.1032 20.573 18.1032 19.978C18.1032 19.383 18.0413 18.8449 17.9169 18.363C17.7926 17.8811 17.6138 17.4668 17.3801 17.1199ZM16.7001 21.0561C16.6432 21.393 16.5569 21.6849 16.4401 21.933C16.3232 22.1811 16.1782 22.3755 16.0044 22.5174C15.8307 22.6593 15.6269 22.7299 15.3932 22.7299C15.1594 22.7299 14.9557 22.6593 14.7819 22.5174C14.6082 22.3755 14.4632 22.1811 14.3463 21.933C14.2294 21.6849 14.1426 21.393 14.0857 21.0561C14.0288 20.7199 14.0007 20.3605 14.0007 19.978C14.0007 19.5955 14.0288 19.2361 14.0857 18.8993C14.1426 18.563 14.2288 18.273 14.3463 18.028C14.4632 17.7836 14.6082 17.5911 14.7819 17.4493C14.9557 17.3074 15.1594 17.2368 15.3932 17.2368C15.6201 17.2368 15.8201 17.3074 15.9932 17.4493C16.1669 17.5911 16.3119 17.7836 16.4288 18.028C16.5457 18.273 16.6344 18.563 16.6944 18.8993C16.7544 19.2361 16.7851 19.5955 16.7851 19.978C16.7851 20.3605 16.7569 20.7199 16.7001 21.0561Z" fill="#005694"/>
</g>
<defs>
<clipPath id="clip0_48_152">
<rect width="30" height="30" fill="white"/>
</clipPath>
</defs>
</svg>
