<svg width="120" height="164" viewBox="0 0 120 164" fill="none" xmlns="http://www.w3.org/2000/svg">
<g clip-path="url(#clip0_1559_31)">
<path d="M106.219 163.735H53.9743C46.375 163.735 40.1934 157.563 40.1934 149.976V13.7592C40.1934 6.17191 46.375 0 53.9743 0H106.219C113.819 0 120 6.17191 120 13.7592V149.976C120 157.563 113.819 163.735 106.219 163.735Z" fill="#9E9E9E"/>
<path d="M106.257 160.011H53.9361C48.3118 160.011 43.7344 155.44 43.7344 149.825V13.643C43.7344 8.02752 48.3118 3.45734 53.9361 3.45734H106.257C111.881 3.45734 116.459 8.02752 116.459 13.643V149.825C116.459 155.44 111.881 160.011 106.257 160.011Z" fill="white"/>
<path d="M87.4959 12.5221H72.7005C70.7472 12.5221 69.1592 10.9366 69.1592 8.98643C69.1592 7.03626 70.7472 5.45074 72.7005 5.45074H87.4959C89.4491 5.45074 91.0371 7.03626 91.0371 8.98643C91.0371 10.9366 89.4491 12.5221 87.4959 12.5221Z" fill="#9E9E9E"/>
<path d="M102.594 54.1075H59.3007C58.4431 54.1075 57.7451 53.2216 57.7451 52.1358C57.7451 51.0499 58.4431 50.164 59.3007 50.164H102.594C103.452 50.164 104.15 51.0499 104.15 52.1358C104.15 53.2216 103.452 54.1075 102.594 54.1075Z" fill="#9E9E9E"/>
<path d="M102.594 62.8455H59.3007C58.4431 62.8455 57.7451 61.9595 57.7451 60.8737C57.7451 59.7879 58.4431 58.9019 59.3007 58.9019H102.594C103.452 58.9019 104.15 59.7879 104.15 60.8737C104.15 61.9595 103.452 62.8455 102.594 62.8455Z" fill="#9E9E9E"/>
<path d="M90.1792 71.5834H59.3007C58.4431 71.5834 57.7451 70.6974 57.7451 69.6116C57.7451 68.5258 58.4431 67.6398 59.3007 67.6398H90.1792C91.0368 67.6398 91.7348 68.5258 91.7348 69.6116C91.7348 70.6974 91.0368 71.5834 90.1792 71.5834Z" fill="#9E9E9E"/>
<path d="M80.0963 122.957C90.3025 122.957 98.5763 114.697 98.5763 104.507C98.5763 94.3164 90.3025 86.0557 80.0963 86.0557C69.89 86.0557 61.6162 94.3164 61.6162 104.507C61.6162 114.697 69.89 122.957 80.0963 122.957Z" fill="#10B981"/>
<path d="M75.1807 104.89C76.1357 106.757 77.0907 108.626 78.0457 110.492C78.3189 111.03 79.1224 110.859 79.282 110.33C80.5346 106.16 82.8611 102.359 85.9966 99.3367C86.6242 98.7317 85.6666 97.7782 85.0389 98.3806C81.7384 101.562 79.2955 105.584 77.9753 109.971L79.2117 109.809C78.2567 107.942 77.3017 106.073 76.3467 104.207C75.9517 103.432 74.783 104.115 75.178 104.887H75.1807V104.89Z" fill="white"/>
<path d="M30.2779 82.1877L25.7979 83.7138L25.7275 77.2556L29.8045 77.2097L30.2779 82.1877Z" fill="#F3A3A6"/>
<path d="M26.2525 79.0383C28.7267 79.0383 30.7325 77.0357 30.7325 74.5654C30.7325 72.095 28.7267 70.0924 26.2525 70.0924C23.7782 70.0924 21.7725 72.095 21.7725 74.5654C21.7725 77.0357 23.7782 79.0383 26.2525 79.0383Z" fill="#F3A3A6"/>
<path d="M27.4776 74.1089C26.7283 74.0954 26.2278 73.3445 25.9275 72.6557C25.6272 71.9696 25.3188 71.1782 24.6235 70.9C24.0527 70.6731 23.068 72.2586 22.6135 71.8454C22.14 71.4132 22.5729 69.1605 23.0653 68.7527C23.5576 68.3448 24.2367 68.2584 24.8751 68.2206C26.4361 68.1314 28.0052 68.2395 29.5391 68.542C30.486 68.7284 31.4653 69.0147 32.1551 69.6899C33.029 70.5462 33.2643 71.8508 33.3401 73.0717C33.4185 74.3195 33.359 75.6296 32.7638 76.7316C32.166 77.8309 30.9026 78.652 29.6771 78.3873C29.5472 77.7256 29.6635 77.0449 29.7041 76.3696C29.7447 75.6971 29.6852 74.9705 29.2686 74.4384C28.8519 73.9063 27.97 73.7037 27.4966 74.1845" fill="#2F2E43"/>
<path d="M33.0049 75.5972C33.4485 75.2649 33.9815 74.984 34.5334 75.0461C35.1313 75.111 35.6399 75.5972 35.7995 76.1752C35.9591 76.7532 35.7941 77.3934 35.4315 77.8714C35.069 78.3495 34.5253 78.6683 33.9463 78.8303C33.6109 78.9249 33.2456 78.9654 32.9237 78.8303C32.4503 78.6331 32.1906 78.0362 32.3691 77.5554" fill="#2F2E43"/>
<path d="M16.3344 117.855C16.0531 119.327 16.6131 120.664 17.5897 120.84C18.5636 121.015 19.5835 119.962 19.8649 118.49C19.9866 117.904 19.9595 117.296 19.7864 116.721L23.233 93.651L18.5906 92.8326L17.0621 116.232C16.6888 116.71 16.4372 117.266 16.3344 117.858V117.855Z" fill="#F3A3A6"/>
<path d="M25.7166 80.7507L22.5541 80.7858C20.3222 81.1478 19.727 82.3471 19.2455 84.5511C18.5069 87.9139 17.5655 92.395 17.763 92.4571C18.0795 92.5597 23.4901 95.0285 26.2279 94.4181L25.7166 80.7507Z" fill="#10B981"/>
<path d="M29.5998 154.071L25.3906 154.118L25.4573 160.079L29.6665 160.032L29.5998 154.071Z" fill="#F3A3A6"/>
<path d="M21.388 163.735C20.9443 163.741 20.552 163.735 20.2544 163.711C19.1344 163.622 18.0604 162.809 17.5166 162.333C17.2732 162.12 17.192 161.774 17.3137 161.477C17.4003 161.264 17.5789 161.102 17.8007 161.034L20.7468 160.159L25.4946 156.883L25.5487 156.977C25.5704 157.012 26.0492 157.852 26.2115 158.422C26.2738 158.638 26.2602 158.819 26.171 158.96C26.1087 159.057 26.0222 159.114 25.9518 159.149C26.0384 159.238 26.3116 159.419 27.1503 159.543C28.3704 159.724 28.6166 158.457 28.6247 158.403L28.6328 158.36L28.668 158.336C29.2442 157.955 29.5986 157.782 29.7231 157.817C29.8015 157.839 29.9287 157.877 30.3128 161.312C30.348 161.42 30.5996 162.209 30.4427 162.968C30.2722 163.795 26.666 163.549 25.9464 163.492C25.9248 163.495 23.2303 163.716 21.3825 163.735H21.388Z" fill="#2F2E43"/>
<path d="M41.5311 149.246L37.9844 151.51L41.2003 156.532L44.747 154.269L41.5311 149.246Z" fill="#F3A3A6"/>
<path d="M36.9302 162.744C36.4352 162.749 35.9807 162.695 35.656 162.641C35.3368 162.587 35.0852 162.339 35.0311 162.02C34.9905 161.791 35.0582 161.561 35.2097 161.388L37.2441 159.09L39.5355 153.801L39.6329 153.852C39.668 153.871 40.5202 154.33 40.9612 154.727C41.1289 154.879 41.2128 155.038 41.2128 155.205C41.2128 155.322 41.1695 155.416 41.1262 155.481C41.2479 155.511 41.5753 155.519 42.3517 155.181C43.4825 154.689 43.0199 153.485 42.9983 153.436L42.9821 153.396L43.001 153.358C43.2878 152.731 43.4988 152.396 43.6205 152.358C43.699 152.337 43.8261 152.299 45.9741 155.011C46.0607 155.084 46.6938 155.619 46.9616 156.345C47.2538 157.137 44.0669 158.833 43.423 159.165C43.4041 159.181 40.0738 161.653 38.7049 162.36C38.1612 162.641 37.5146 162.733 36.9248 162.739L36.9302 162.744Z" fill="#2F2E43"/>
<path d="M32.1365 104.174L20.3521 104.304L19.4053 115.259L24.5346 155.651L30.5512 155.583L27.8865 132.252L37.8799 153.234L43.1851 149.436L35.345 129.832C35.345 129.832 37.8772 112.65 35.6913 108.401C33.5054 104.153 32.1392 104.169 32.1392 104.169V104.174H32.1365Z" fill="#2F2E43"/>
<path d="M38.0045 104.777L19.2891 104.985L24.6348 80.7643L32.7913 80.6724L38.0045 104.777Z" fill="#10B981"/>
<path d="M39.8324 117.596C40.1463 119.062 39.616 120.41 38.6448 120.607C37.6736 120.805 36.632 119.776 36.3182 118.309C36.183 117.725 36.1965 117.118 36.3561 116.537L32.3955 93.5483L37.0189 92.6273L39.0668 115.989C39.451 116.459 39.7134 117.01 39.8324 117.599V117.596Z" fill="#F3A3A6"/>
<path d="M29.6285 80.7075L32.791 80.6724C35.031 80.9857 35.6505 82.1715 36.1835 84.3648C36.995 87.7114 38.0366 92.1681 37.8418 92.2356C37.5253 92.3437 32.1742 94.9313 29.4229 94.383L29.6312 80.7075H29.6285Z" fill="#10B981"/>
<path d="M120 163.735C120 163.881 119.755 164 119.453 164H0.546773C0.24549 164 0 163.881 0 163.735C0 163.589 0.24549 163.471 0.546773 163.471H119.453C119.755 163.471 120 163.589 120 163.735Z" fill="#686868"/>
</g>
<defs>
<clipPath id="clip0_1559_31">
<rect width="120" height="164" fill="white"/>
</clipPath>
</defs>
</svg>
