<svg width="30" height="30" viewBox="0 0 30 30" fill="none" xmlns="http://www.w3.org/2000/svg">
<path d="M29.9919 13.7112C29.9881 13.6544 29.9775 13.6 29.9587 13.5462C29.9519 13.5262 29.9469 13.5069 29.9381 13.4875C29.9081 13.4225 29.87 13.3613 29.8175 13.3094C29.8169 13.3088 29.8169 13.3088 29.8169 13.3088L26.25 9.74125V6.25C26.25 6.23625 26.2431 6.22438 26.2419 6.21063C26.2381 6.15563 26.2275 6.1025 26.21 6.05C26.2031 6.03 26.1981 6.01063 26.1888 5.99125C26.1581 5.925 26.12 5.86188 26.0663 5.80813L20.4413 0.183125C20.3875 0.129375 20.3244 0.090625 20.2575 0.060625C20.2387 0.051875 20.22 0.046875 20.2006 0.040625C20.1475 0.021875 20.0931 0.01125 20.0362 0.008125C20.0244 0.00625 20.0131 0 20 0H4.375C4.03 0 3.75 0.28 3.75 0.625V9.74125L0.183125 13.3081C0.183125 13.3081 0.1825 13.3088 0.181875 13.3094C0.129375 13.3619 0.091875 13.4231 0.061875 13.4875C0.053125 13.5069 0.048125 13.5262 0.04125 13.5462C0.0225 13.6 0.01125 13.6544 0.008125 13.7112C0.006875 13.725 0 13.7363 0 13.75V25.625C0 25.97 0.28 26.25 0.625 26.25H3.75V29.375C3.75 29.72 4.03 30 4.375 30H25.625C25.97 30 26.25 29.72 26.25 29.375V26.25H29.375C29.72 26.25 30 25.97 30 25.625V13.75C30 13.7363 29.9931 13.725 29.9919 13.7112ZM27.8662 13.125H26.25V11.5087L27.8662 13.125ZM24.1162 5.625H20.625V2.13375L24.1162 5.625ZM5 1.25H19.375V6.25C19.375 6.595 19.655 6.875 20 6.875H25V10V13.125H5V10V1.25ZM3.75 11.5087V13.125H2.13375L3.75 11.5087ZM25 28.75H5V26.25H25V28.75ZM28.75 25H1.25V14.375H4.375H25.625H28.75V25Z" fill="#00640A"/>
<path d="M14.6389 17.428C14.7308 17.343 14.8339 17.2811 14.947 17.2418C15.0602 17.203 15.177 17.1836 15.2977 17.1836C15.7158 17.1836 16.0627 17.3499 16.3389 17.683L17.0402 16.7693C16.8345 16.5286 16.5814 16.3461 16.2808 16.2218C15.9795 16.098 15.6383 16.0361 15.2558 16.0361C14.9939 16.0361 14.7352 16.0805 14.4802 16.1686C14.2252 16.2574 13.9964 16.3936 13.7945 16.578C13.5927 16.7624 13.4295 16.9943 13.3058 17.2736C13.182 17.5536 13.1195 17.8886 13.1195 18.278C13.1195 18.5899 13.1602 18.8568 13.2414 19.0799C13.3227 19.3036 13.4327 19.498 13.5708 19.6643C13.7089 19.8311 13.8683 19.9743 14.0489 20.0949C14.2295 20.2155 14.4227 20.3249 14.6283 20.4243C14.9539 20.5874 15.2233 20.7643 15.4358 20.9555C15.6483 21.1468 15.7545 21.4055 15.7545 21.7311C15.7545 22.0643 15.6658 22.3224 15.4889 22.5068C15.312 22.6911 15.0889 22.783 14.8195 22.783C14.5789 22.783 14.3433 22.7261 14.1127 22.613C13.882 22.4999 13.6858 22.3436 13.5227 22.1455L12.832 23.0805C13.0445 23.3286 13.3277 23.5336 13.682 23.6968C14.0364 23.8599 14.422 23.9411 14.8402 23.9411C15.1308 23.9411 15.407 23.8918 15.6689 23.7924C15.9308 23.693 16.1595 23.5461 16.3545 23.3511C16.5495 23.1568 16.7052 22.9174 16.822 22.6343C16.9389 22.3511 16.9977 22.0249 16.9977 21.6568C16.9977 21.338 16.9483 21.0618 16.8489 20.828C16.7495 20.5943 16.622 20.3924 16.4664 20.2224C16.3108 20.0524 16.137 19.9074 15.9458 19.7868C15.7545 19.6661 15.567 19.5599 15.3827 19.468C15.0708 19.3124 14.8195 19.1474 14.6283 18.9736C14.437 18.8005 14.3414 18.5543 14.3414 18.2355C14.3414 18.0511 14.3677 17.8918 14.4214 17.7574C14.4745 17.623 14.547 17.513 14.6389 17.428Z" fill="#00640A"/>
<path d="M9.48516 18.0336C9.61266 17.7855 9.77203 17.5893 9.96328 17.4436C10.1545 17.2986 10.3777 17.2261 10.6327 17.2261C11.0933 17.2261 11.4683 17.4349 11.7589 17.853L12.492 16.9605C12.2864 16.663 12.0208 16.4349 11.6952 16.2749C11.3695 16.1155 10.9902 16.0361 10.5583 16.0361C10.1402 16.0361 9.75953 16.1336 9.41578 16.328C9.07203 16.523 8.78016 16.7955 8.53891 17.1461C8.29828 17.4974 8.11203 17.9149 7.98141 18.3999C7.85016 18.8855 7.78516 19.4149 7.78516 19.9886C7.78516 20.5624 7.85078 21.0899 7.98141 21.5718C8.11203 22.0536 8.29641 22.4693 8.53391 22.8199C8.77141 23.1711 9.06141 23.4455 9.40516 23.6436C9.74891 23.8418 10.1333 23.9411 10.5583 23.9411C11.0258 23.9411 11.4133 23.8493 11.7214 23.6649C12.0295 23.4805 12.2827 23.2399 12.4808 22.9424L11.7477 22.0818C11.627 22.2661 11.4764 22.4218 11.2964 22.5493C11.1164 22.6768 10.9014 22.7405 10.6539 22.7405C10.392 22.7405 10.1633 22.668 9.96828 22.5224C9.77328 22.3774 9.61266 22.1811 9.48453 21.933C9.35641 21.6849 9.26141 21.393 9.19766 21.0561C9.13391 20.7199 9.10203 20.3643 9.10203 19.9886C9.10203 19.6061 9.13391 19.2468 9.19766 18.9099C9.26203 18.5736 9.35766 18.2818 9.48516 18.0336Z" fill="#00640A"/>
<path d="M20.0043 22.2625H19.9724L18.7187 16.2275H17.2949L19.133 23.75H20.748L22.618 16.2275H21.258L20.0043 22.2625Z" fill="#00640A"/>
</svg>
