<svg width="29" height="29" viewBox="0 0 29 29" fill="none" xmlns="http://www.w3.org/2000/svg">
<path fill-rule="evenodd" clip-rule="evenodd" d="M0 27.9884C0 28.547 0.452919 29 1.01163 29C1.57034 29 2.02326 28.547 2.02326 27.9884V1.01162C2.02326 0.452915 1.57034 0 1.01163 0C0.452919 0 0 0.452915 0 1.01162V27.9884ZM14.3464 22.5213C14.7415 22.9165 15.382 22.9165 15.7771 22.5213C16.1721 22.1264 16.1721 21.4859 15.7771 21.0907L10.1978 15.5115H27.9884C28.547 15.5115 29 15.0586 29 14.4999C29 13.9412 28.547 13.4883 27.9884 13.4883H10.1978L15.7771 7.90906C16.1721 7.51398 16.1721 6.87345 15.7771 6.4784C15.382 6.08332 14.7415 6.08332 14.3464 6.4784L7.04017 13.7846C6.6451 14.1796 6.6451 14.8202 7.04017 15.2152L14.3464 22.5213Z" fill="#BE0000"/>
</svg>
