<svg width="124" height="121" viewBox="0 0 124 121" fill="none" xmlns="http://www.w3.org/2000/svg">
<g clip-path="url(#clip0_1321_750)">
<path d="M78.7201 27.1675H45.3075C44.5461 27.1685 43.8161 27.4707 43.2777 28.0081C42.7393 28.5454 42.4364 29.2739 42.4355 30.0338V104.147L42.0526 104.263L33.8559 106.769C33.4675 106.887 33.0479 106.846 32.6893 106.656C32.3307 106.466 32.0624 106.141 31.9432 105.754L7.56195 26.2713C7.4433 25.8836 7.48374 25.4648 7.67439 25.1068C7.86503 24.7489 8.19028 24.4811 8.57865 24.3624L21.2097 20.5024L57.8274 9.31623L70.4584 5.45627C70.6506 5.39723 70.8526 5.3766 71.0528 5.39556C71.253 5.41452 71.4475 5.4727 71.6252 5.56677C71.8029 5.66083 71.9602 5.78894 72.0882 5.94377C72.2162 6.09859 72.3124 6.27708 72.3712 6.46903L78.6033 26.7854L78.7201 27.1675Z" fill="#DDDDDD"/>
<path d="M86.0112 26.7854L78.5 2.2996C78.375 1.89162 78.1707 1.51221 77.8988 1.18306C77.6268 0.853908 77.2926 0.581464 76.9151 0.381292C76.5376 0.181121 76.1243 0.0571446 75.6988 0.016453C75.2733 -0.0242387 74.8439 0.0191515 74.4352 0.14414L56.6768 5.56909L20.0609 16.7572L2.30251 22.1841C1.47755 22.4369 0.786798 23.0061 0.381875 23.7666C-0.0230479 24.5272 -0.109059 25.4171 0.142724 26.2409L25.8144 109.923C26.019 110.588 26.4317 111.17 26.992 111.584C27.5523 111.998 28.2307 112.222 28.9277 112.222C29.2503 112.222 29.5711 112.174 29.8792 112.079L42.0526 108.36L42.4356 108.242V107.843L42.0526 107.959L29.7663 111.714C29.0381 111.935 28.2516 111.86 27.5793 111.503C26.9071 111.147 26.4039 110.539 26.1802 109.813L0.510417 26.1281C0.399575 25.7683 0.360944 25.3902 0.396734 25.0154C0.432524 24.6407 0.542028 24.2766 0.718985 23.9442C0.895941 23.6117 1.13687 23.3174 1.42798 23.078C1.71908 22.8386 2.05464 22.6588 2.41544 22.5491L20.1739 17.1222L56.7898 5.93598L74.5482 0.509119C74.8219 0.425767 75.1064 0.383267 75.3925 0.383001C76.0066 0.384377 76.604 0.581952 77.0974 0.946788C77.5908 1.31162 77.9542 1.82455 78.1343 2.41043L85.611 26.7855L85.7298 27.1676H86.128L86.0112 26.7854Z" fill="#3F3D56"/>
<path fill-rule="evenodd" clip-rule="evenodd" d="M39.2897 7.28535C39.8797 6.61303 40.2373 5.73245 40.2373 4.76851C40.2373 2.65783 38.5229 0.946777 36.408 0.946777C34.2931 0.946777 32.5787 2.65783 32.5787 4.76851C32.5787 6.54198 33.7891 8.0333 35.4304 8.46456L20.5176 13.0211C20.3012 13.0872 20.1 13.1951 19.9254 13.3388C19.7509 13.4826 19.6064 13.6592 19.5002 13.8586C19.394 14.0581 19.3283 14.2765 19.3067 14.5013C19.2851 14.7261 19.3081 14.953 19.3744 15.1689L21.8405 23.2083C21.9489 23.5603 22.1676 23.8684 22.4643 24.0874C22.761 24.3063 23.1203 24.4246 23.4893 24.4249C23.6599 24.4248 23.8296 24.3994 23.9927 24.3494L57.6791 14.0567C58.1158 13.9228 58.4814 13.6214 58.6957 13.2187C58.91 12.816 58.9555 12.3449 58.8223 11.9088L56.3561 3.86934C56.2219 3.43346 55.9199 3.06852 55.5164 2.85462C55.1129 2.64072 54.6409 2.59533 54.2039 2.72842L39.2897 7.28535ZM36.4082 7.18856C37.7474 7.18856 38.833 6.10507 38.833 4.76852C38.833 3.43197 37.7474 2.34848 36.4082 2.34848C35.069 2.34848 33.9833 3.43197 33.9833 4.76852C33.9833 6.10507 35.069 7.18856 36.4082 7.18856Z" fill="#10B981"/>
<path d="M115.384 111.246H50.669C50.2375 111.245 49.8238 111.074 49.5187 110.769C49.2136 110.465 49.042 110.052 49.0415 109.621V32.2313C49.042 31.8007 49.2136 31.3878 49.5187 31.0833C49.8238 30.7788 50.2375 30.6075 50.669 30.6071H115.384C115.816 30.6076 116.229 30.7788 116.535 31.0833C116.84 31.3878 117.011 31.8007 117.012 32.2313V109.621C117.011 110.052 116.84 110.465 116.535 110.769C116.229 111.074 115.816 111.245 115.384 111.246Z" fill="#DDDDDD"/>
<path d="M85.6111 26.7853H45.3076C44.4448 26.7866 43.6176 27.1292 43.0074 27.7381C42.3973 28.3471 42.054 29.1726 42.0527 30.0338V107.959L42.4357 107.842V30.0338C42.4366 29.2739 42.7395 28.5454 43.2779 28.0081C43.8163 27.4707 44.5462 27.1684 45.3076 27.1675H85.7299L85.6111 26.7853ZM120.745 26.7853H45.3076C44.4448 26.7866 43.6176 27.1292 43.0074 27.7381C42.3973 28.3471 42.054 29.1726 42.0527 30.0338V117.552C42.054 118.413 42.3973 119.238 43.0074 119.847C43.6176 120.456 44.4448 120.799 45.3076 120.8H120.745C121.608 120.799 122.435 120.456 123.045 119.847C123.655 119.238 123.999 118.413 124 117.552V30.0338C123.999 29.1726 123.655 28.3471 123.045 27.7381C122.435 27.1292 121.608 26.7866 120.745 26.7853ZM123.617 117.552C123.616 118.311 123.313 119.04 122.775 119.577C122.236 120.115 121.506 120.417 120.745 120.418H45.3076C44.5462 120.417 43.8163 120.115 43.2779 119.577C42.7395 119.04 42.4366 118.311 42.4357 117.552V30.0338C42.4366 29.2739 42.7395 28.5454 43.2779 28.0081C43.8163 27.4707 44.5462 27.1684 45.3076 27.1675H120.745C121.506 27.1684 122.236 27.4707 122.775 28.0081C123.313 28.5454 123.616 29.2739 123.617 30.0338V117.552Z" fill="#3F3D56"/>
<path fill-rule="evenodd" clip-rule="evenodd" d="M85.0445 23.3458C86.1318 22.6715 86.8556 21.4688 86.8556 20.0973C86.8556 17.9866 85.1412 16.2756 83.0263 16.2756C80.9114 16.2756 79.197 17.9866 79.197 20.0973C79.197 21.4688 79.9208 22.6715 81.0081 23.3458H65.4117C64.9548 23.3463 64.5168 23.5276 64.1938 23.85C63.8707 24.1725 63.689 24.6096 63.6885 25.0655V33.4734C63.689 33.9293 63.8707 34.3665 64.1937 34.6889C64.5168 35.0113 64.9548 35.1926 65.4117 35.1931H100.641C101.098 35.1926 101.536 35.0113 101.859 34.6889C102.182 34.3665 102.364 33.9293 102.365 33.4734V25.0655C102.364 24.6096 102.182 24.1725 101.859 23.85C101.536 23.5276 101.098 23.3463 100.641 23.3458H85.0445ZM83.0265 22.4251C84.3147 22.4251 85.3589 21.3829 85.3589 20.0973C85.3589 18.8117 84.3147 17.7695 83.0265 17.7695C81.7384 17.7695 80.6941 18.8117 80.6941 20.0973C80.6941 21.3829 81.7384 22.4251 83.0265 22.4251Z" fill="#10B981"/>
</g>
<defs>
<clipPath id="clip0_1321_750">
<rect width="124" height="120.8" fill="white"/>
</clipPath>
</defs>
</svg>
