<svg width="30" height="30" viewBox="0 0 30 30" fill="none" xmlns="http://www.w3.org/2000/svg">
<g clip-path="url(#clip0_48_159)">
<path d="M29.9919 13.7113C29.9881 13.6544 29.9775 13.6 29.9587 13.5462C29.9519 13.5262 29.9469 13.5069 29.9381 13.4875C29.9081 13.4225 29.87 13.3612 29.8175 13.3094C29.8169 13.3088 29.8169 13.3088 29.8169 13.3088L26.25 9.74125V6.25C26.25 6.23625 26.2431 6.22438 26.2419 6.21063C26.2381 6.15563 26.2275 6.1025 26.21 6.05C26.2031 6.03 26.1981 6.01063 26.1888 5.99125C26.1581 5.925 26.12 5.86188 26.0662 5.80813L20.4412 0.183125C20.3875 0.129375 20.3244 0.090625 20.2575 0.060625C20.2387 0.051875 20.22 0.046875 20.2006 0.040625C20.1475 0.021875 20.0931 0.01125 20.0362 0.008125C20.0244 0.00625 20.0131 0 20 0H4.375C4.03 0 3.75 0.28 3.75 0.625V9.74125L0.183125 13.3081C0.183125 13.3081 0.1825 13.3088 0.181875 13.3094C0.129375 13.3619 0.091875 13.4231 0.061875 13.4875C0.053125 13.5069 0.048125 13.5262 0.04125 13.5462C0.0225 13.6 0.01125 13.6544 0.008125 13.7113C0.006875 13.725 0 13.7362 0 13.75V25.625C0 25.97 0.28 26.25 0.625 26.25H3.75V29.375C3.75 29.72 4.03 30 4.375 30H25.625C25.97 30 26.25 29.72 26.25 29.375V26.25H29.375C29.72 26.25 30 25.97 30 25.625V13.75C30 13.7362 29.9931 13.725 29.9919 13.7113ZM27.8662 13.125H26.25V11.5087L27.8662 13.125ZM24.1162 5.625H20.625V2.13375L24.1162 5.625ZM5 1.25H19.375V6.25C19.375 6.595 19.655 6.875 20 6.875H25V10V13.125H5V10V1.25ZM3.75 11.5087V13.125H2.13375L3.75 11.5087ZM25 28.75H5V26.25H25V28.75ZM28.75 25H1.25V14.375H4.375H25.625H28.75V25Z" fill="#BB8702"/>
<path d="M20.9926 20.5836H21.9063V22.528C21.8213 22.5918 21.7101 22.643 21.5719 22.6818C21.4338 22.7211 21.2801 22.7405 21.1101 22.7405C20.8407 22.7405 20.6088 22.6699 20.4144 22.528C20.2194 22.3861 20.0588 22.1899 19.9307 21.938C19.8032 21.6868 19.7076 21.393 19.6438 21.0561C19.5801 20.7199 19.5482 20.3605 19.5482 19.978C19.5482 19.6099 19.5801 19.2593 19.6438 18.9261C19.7076 18.593 19.8032 18.3011 19.9307 18.0493C20.0582 17.798 20.2194 17.598 20.4144 17.4493C20.6094 17.3005 20.8376 17.2261 21.1001 17.2261C21.5819 17.2261 21.9644 17.4318 22.2476 17.8424L22.9807 16.9499C22.7751 16.6593 22.5094 16.4349 22.1838 16.2749C21.8582 16.1155 21.4719 16.0361 21.0257 16.0361C20.6007 16.0361 20.2182 16.1336 19.8782 16.328C19.5382 16.523 19.2476 16.7955 19.0069 17.1461C18.7663 17.4974 18.5819 17.913 18.4544 18.3949C18.3269 18.8768 18.2632 19.4043 18.2632 19.978C18.2632 20.5661 18.3288 21.1005 18.4601 21.5824C18.5913 22.0643 18.7788 22.4786 19.0232 22.8255C19.2676 23.1724 19.5669 23.4399 19.9213 23.6274C20.2757 23.8155 20.6757 23.9093 21.1219 23.9093C21.5613 23.9093 21.9382 23.8524 22.2538 23.7393C22.5688 23.6261 22.8401 23.4774 23.0663 23.293V19.4786H20.9944C20.9926 19.4786 20.9926 20.5836 20.9926 20.5836Z" fill="#BB8702"/>
<path d="M10.6169 16.7C10.415 16.5269 10.1869 16.4044 9.93123 16.3338C9.67623 16.2632 9.42811 16.2275 9.18748 16.2275H7.10498V23.75H8.35873V20.7325H9.25123C9.51311 20.7325 9.76811 20.6863 10.0162 20.5944C10.2644 20.5025 10.4837 20.3607 10.675 20.1694C10.8662 19.9782 11.02 19.7394 11.1375 19.4519C11.2544 19.165 11.3131 18.8307 11.3131 18.4482C11.3131 18.0232 11.2475 17.6688 11.1162 17.3857C10.985 17.1025 10.8187 16.8738 10.6169 16.7ZM9.81498 19.3775C9.62373 19.5869 9.37936 19.6913 9.08186 19.6913H8.35936V17.3007H9.08186C9.37936 17.3007 9.62373 17.3925 9.81498 17.5769C10.0062 17.7613 10.1019 18.055 10.1019 18.4588C10.1019 18.8625 10.0062 19.1688 9.81498 19.3775Z" fill="#BB8702"/>
<path d="M15.9669 21.5719H15.935L13.8206 16.2275H12.365V23.75H13.5125L13.4912 18.4375H13.5231L15.6587 23.75H17.0612V16.2275H15.9562L15.9669 21.5719Z" fill="#BB8702"/>
</g>
<defs>
<clipPath id="clip0_48_159">
<rect width="30" height="30" fill="white"/>
</clipPath>
</defs>
</svg>
