<svg width="322" height="300" viewBox="0 0 322 300" fill="none" xmlns="http://www.w3.org/2000/svg">
<g clip-path="url(#clip0_1324_829)">
<path d="M217.05 212.674H101.54C91.8311 212.674 83.9321 204.781 83.9321 195.08V79.6633C83.9321 69.9619 91.8311 62.0693 101.54 62.0693H217.05C226.76 62.0693 234.659 69.9619 234.659 79.6633V195.08C234.659 204.781 226.76 212.674 217.05 212.674ZM101.54 64.8844C93.3716 64.8844 86.7494 71.5011 86.7494 79.6633V195.08C86.7494 203.242 93.3716 209.859 101.54 209.859H182.452C209.729 209.859 231.841 187.764 231.841 160.51V79.6633C231.841 71.5011 225.219 64.8844 217.05 64.8844L101.54 64.8844Z" fill="#9E9E9E"/>
<path d="M113.994 76.8865C108.527 76.8865 104.079 81.3303 104.079 86.7929V102.299C104.079 107.761 108.527 112.205 113.994 112.205H129.512C134.979 112.205 139.426 107.761 139.426 102.299V86.7929C139.426 81.3303 134.979 76.8865 129.512 76.8865H113.994Z" fill="#9E9E9E"/>
<path d="M113.994 120.537C108.527 120.537 104.079 124.981 104.079 130.443V145.949C104.079 151.412 108.527 155.855 113.994 155.855H129.512C134.979 155.855 139.426 151.412 139.426 145.949V130.443C139.426 124.981 134.979 120.537 129.512 120.537H113.994Z" fill="#9E9E9E"/>
<path d="M113.994 164.187C108.527 164.187 104.079 168.631 104.079 174.094V189.599C104.079 195.062 108.527 199.506 113.994 199.506H129.512C134.979 199.506 139.426 195.062 139.426 189.599V174.094C139.426 168.631 134.979 164.187 129.512 164.187H113.994Z" fill="#9E9E9E"/>
<path d="M124.284 39.0562C117.395 39.0562 111.792 44.6555 111.792 51.5385V71.0761C111.792 77.9591 117.395 83.5584 124.284 83.5584H143.837C150.726 83.5584 156.33 77.9591 156.33 71.0761V51.5385C156.33 44.6555 150.726 39.0562 143.837 39.0562H124.284Z" fill="#10B981"/>
<path d="M188.659 93.6555C181.77 93.6555 176.167 99.2549 176.167 106.138V125.675C176.167 132.558 181.77 138.158 188.659 138.158H208.212C215.101 138.158 220.705 132.558 220.705 125.675V106.138C220.705 99.2549 215.101 93.6555 208.212 93.6555H188.659Z" fill="#10B981"/>
<path d="M160.672 290.309L156.7 290.276L154.941 274.609L160.804 274.659L160.672 290.309Z" fill="#A0616A"/>
<path d="M147.948 296.621C147.94 297.598 148.728 298.402 149.709 298.411L157.607 298.477L158.99 295.676L159.497 298.491L162.477 298.518L161.725 288.479L160.688 288.41L156.459 288.119L155.095 288.028L155.071 290.868L148.727 295.168C148.244 295.495 147.953 296.038 147.948 296.621Z" fill="#2F2E41"/>
<path d="M180.883 290.309L176.91 290.276L175.152 274.609L181.015 274.659L180.883 290.309Z" fill="#A0616A"/>
<path d="M168.159 296.621C168.15 297.598 168.938 298.402 169.92 298.411L177.817 298.477L179.2 295.676L179.708 298.491L182.688 298.518L181.935 288.479L180.899 288.41L176.67 288.119L175.305 288.028L175.281 290.868L168.937 295.168C168.454 295.495 168.164 296.038 168.159 296.621Z" fill="#2F2E41"/>
<path d="M145.084 163.647L161.186 164.156L176.44 167.543C176.44 167.543 174.915 169.406 180 174.486C180 174.486 186.779 186.341 182.033 197.857L180 243.921C180 243.921 185.93 276.394 181.399 286.729L175.41 287.102L165.277 244.296L160.339 198.196L157.966 243.583C157.966 243.583 167.043 274.735 161.311 287.103L154.825 286.729L143.728 243.583C143.728 243.583 138.983 193.793 139.661 184.309C140.338 174.825 145.084 163.647 145.084 163.647Z" fill="#2F2E41"/>
<path d="M199.157 90.8585C196.956 91.428 195.634 93.6726 196.204 95.872C196.465 96.8798 197.08 97.6996 197.88 98.2413L197.88 98.2469L197.567 105.804L203.355 108.48L203.817 96.8511L203.777 96.8523C204.279 95.959 204.452 94.8797 204.175 93.8097C203.605 91.6103 201.358 90.289 199.157 90.8585Z" fill="#A0616A"/>
<path d="M166.809 117.83C165.593 116.626 164.888 114.993 164.861 113.218C164.826 110.836 166.02 108.674 168.056 107.435C170.401 106.008 173.333 106.153 175.527 107.803L193.702 121.476L196.94 101.778L203.893 104.015L202.234 129.664C202.118 131.458 201.103 133.038 199.519 133.892C197.935 134.745 196.056 134.723 194.493 133.834L168.227 118.903C167.699 118.603 167.224 118.241 166.809 117.83Z" fill="#3F3D56"/>
<path d="M139.095 79.8407C140.257 81.7935 139.615 84.3178 137.66 85.4787C136.765 86.0107 135.75 86.16 134.8 85.9822L134.797 85.9863L129.693 91.5727L123.697 89.4016L131.563 80.8181L131.591 80.8473C131.864 79.8599 132.502 78.9714 133.453 78.4066C135.407 77.2457 137.933 77.8877 139.095 79.8407Z" fill="#A0616A"/>
<path d="M141.299 121.515L112.126 113.641C110.389 113.172 109.04 111.866 108.516 110.146C107.992 108.426 108.385 106.589 109.567 105.233L126.462 85.8519L132.975 89.155L121.396 105.421L143.937 108.497C146.657 108.868 148.841 110.829 149.501 113.491C150.074 115.804 149.399 118.179 147.696 119.846C146.426 121.088 144.775 121.751 143.063 121.751C142.478 121.751 141.886 121.673 141.299 121.515Z" fill="#3F3D56"/>
<path d="M182.892 170.424L142.096 172.294C140.976 170.594 141.279 168.038 142.848 164.836C148.773 152.75 144.273 129.884 141.247 117.978C140.397 114.638 142.677 111.317 146.109 110.974L149.956 110.589L153.511 99.7441H165.964L171.13 105.641L179.898 110.963C178.302 127.388 171.502 150.581 181.189 162.212C183.308 164.756 183.909 167.507 182.892 170.424Z" fill="#3F3D56"/>
<path d="M158.154 99.9946C164.853 99.9946 170.283 94.5686 170.283 87.8752C170.283 81.1818 164.853 75.7557 158.154 75.7557C151.455 75.7557 146.024 81.1818 146.024 87.8752C146.024 94.5686 151.455 99.9946 158.154 99.9946Z" fill="#A0616A"/>
<path d="M171.879 80.1175C173.566 73.9698 155.174 68.6981 151.6 73.6488C151.102 72.945 149.266 72.5175 148.423 72.7334C147.58 72.9493 146.872 73.4891 146.18 74.0116C145.229 74.7413 144.244 75.497 143.661 76.5463C143.073 77.5913 142.982 79.0164 143.773 79.9232C144.4 80.6443 145.501 84.4764 146.443 84.6664C147.1 84.8003 147.653 84.9082 148.128 84.9859C148.552 84.3684 149.632 83.5928 149.554 82.8457C150.194 83.2689 149.96 84.0134 149.831 84.7743C149.402 87.3082 139.727 106.923 145.268 101.143C145.817 101.467 146.496 101.769 147.278 102.045C148.605 100.046 149.694 97.6882 150.411 95.2225L150.416 95.2681C150.663 97.4108 152.23 99.169 154.304 99.7692C162.621 102.177 169.349 98.644 171.663 92.273C170.816 90.5544 170.447 90.741 170.523 90.6899C171.581 89.9777 173.034 90.4435 173.489 91.6342C173.623 91.9853 173.745 92.285 173.85 92.5105C175.056 88.2009 176.49 88.823 171.879 80.1175Z" fill="#2F2E41"/>
<path d="M166.141 75.6572L165.291 71.3172C165.22 70.9524 165.152 70.5565 165.317 70.2232C165.528 69.7948 166.072 69.6173 166.545 69.6856C167.018 69.7539 167.372 70.1857 167.843 70.2688C169.48 70.5579 171.643 68.9427 172.229 73.0289C172.474 74.7326 175.195 74.9126 176.103 76.3748C177.012 77.837 177.123 79.9475 175.883 81.1421C174.893 82.0961 173.302 82.2062 172.016 81.7189C170.73 81.2315 169.697 80.2471 168.796 79.209C167.894 78.171 167.077 77.0476 166.037 76.148" fill="#2F2E41"/>
<path d="M172.527 82.2583C169.208 81.795 166.946 80.5889 165.803 78.6738C164.307 76.1669 165.309 73.4065 165.352 73.2902L166.054 73.5507C166.045 73.5761 165.136 76.103 166.45 78.2973C167.472 80.0043 169.551 81.0878 172.63 81.5177L172.527 82.2583Z" fill="#10B981"/>
<path d="M188.102 35.364C178.345 35.364 170.406 27.4313 170.406 17.682C170.406 7.93273 178.345 0 188.102 0C197.859 0 205.798 7.93273 205.798 17.682C205.798 27.4313 197.859 35.364 188.102 35.364ZM188.102 7.07281C182.247 7.07281 177.484 11.8318 177.484 17.682C177.484 23.5323 182.247 28.2912 188.102 28.2912C193.957 28.2912 198.72 23.5323 198.72 17.682C198.72 11.8318 193.957 7.07281 188.102 7.07281Z" fill="#10B981"/>
<path d="M215.329 47.3806C214.461 47.3806 213.592 47.0646 212.91 46.424L196.3 30.871C194.873 29.5363 194.8 27.2984 196.138 25.8738C197.472 24.444 199.712 24.3733 201.139 25.7115L217.748 41.2644C219.176 42.5992 219.248 44.8371 217.911 46.2616C217.214 47.0059 216.273 47.3806 215.329 47.3806Z" fill="#10B981"/>
<path d="M290.395 289.912C291.599 289.987 292.264 288.494 291.353 287.623L291.263 287.263C291.274 287.234 291.286 287.206 291.299 287.177C292.515 284.277 296.64 284.297 297.846 287.201C298.917 289.778 300.281 292.36 300.617 295.085C300.767 296.288 300.699 297.513 300.432 298.694C302.942 293.217 304.262 287.236 304.262 281.221C304.262 279.71 304.179 278.199 304.01 276.692C303.871 275.459 303.679 274.233 303.431 273.019C302.088 266.456 299.179 260.204 294.985 254.983C292.968 253.881 291.286 252.16 290.271 250.096C289.906 249.352 289.62 248.551 289.484 247.735C289.714 247.765 290.35 244.273 290.177 244.059C290.496 243.574 291.069 243.333 291.418 242.86C293.155 240.506 295.549 240.917 296.798 244.115C299.467 245.461 299.493 247.693 297.855 249.84C296.813 251.206 296.67 253.054 295.756 254.517C295.85 254.637 295.948 254.754 296.042 254.874C297.767 257.084 299.258 259.46 300.516 261.956C300.16 259.182 300.685 255.84 301.58 253.686C302.598 251.231 304.507 249.164 306.187 247.042C308.206 244.494 312.346 245.606 312.702 248.837C312.705 248.868 312.709 248.899 312.712 248.931C312.462 249.071 312.218 249.221 311.979 249.379C310.616 250.279 311.087 252.39 312.702 252.639L312.738 252.645C312.648 253.543 312.494 254.434 312.268 255.31C314.424 263.642 309.769 266.676 303.122 266.813C302.975 266.888 302.832 266.963 302.686 267.034C303.359 268.929 303.897 270.872 304.296 272.842C304.653 274.583 304.902 276.342 305.041 278.109C305.214 280.338 305.199 282.578 305.011 284.804L305.022 284.725C305.5 282.274 306.832 279.985 308.765 278.398C311.646 276.034 315.716 275.163 318.824 273.262C320.32 272.348 322.237 273.53 321.976 275.263L321.963 275.346C321.5 275.534 321.049 275.752 320.612 275.996C320.363 276.137 320.118 276.286 319.879 276.444C318.517 277.345 318.988 279.455 320.602 279.705L320.639 279.71C320.665 279.714 320.688 279.718 320.714 279.721C319.92 281.605 318.814 283.353 317.43 284.86C316.081 292.134 310.291 292.824 304.097 290.706H304.093C303.416 293.653 302.426 296.532 301.155 299.276H290.658C290.621 299.16 290.587 299.039 290.553 298.923C291.523 298.983 292.502 298.927 293.457 298.75C292.678 297.795 291.9 296.833 291.121 295.878C291.102 295.859 291.087 295.84 291.072 295.822C290.677 295.333 290.278 294.848 289.883 294.359L289.883 294.359C289.858 292.859 290.039 291.363 290.395 289.912Z" fill="#9E9E9E"/>
<path d="M0 299.307C0 299.692 0.308731 300 0.693184 300H321.225C321.61 300 321.918 299.692 321.918 299.307C321.918 298.923 321.61 298.615 321.225 298.615H0.693184C0.308731 298.615 0 298.923 0 299.307Z" fill="#9E9E9E"/>
</g>
<defs>
<clipPath id="clip0_1324_829">
<rect width="322" height="300" fill="white"/>
</clipPath>
</defs>
</svg>
