<svg width="160" height="160" viewBox="0 0 160 160" fill="none" xmlns="http://www.w3.org/2000/svg">
<g clip-path="url(#clip0_1536_929)">
<path d="M81.4315 104.446C95.7742 104.446 107.401 92.8191 107.401 78.4765C107.401 64.1339 95.7742 52.5069 81.4315 52.5069C67.0889 52.5069 55.4619 64.1339 55.4619 78.4765C55.4619 92.8191 67.0889 104.446 81.4315 104.446Z" fill="#DCDCDC"/>
<path d="M66.5229 108.286L65.3497 96.4266L88.7786 92.0457L102.613 125.73L78.553 153.399L61.4102 119.715L66.5229 108.286Z" fill="#DCDCDC"/>
<path d="M64.9738 102.363L70.0959 103.52C70.0959 103.52 66.0694 90.7521 67.4361 89.5331C68.8028 88.3142 72.1519 90.2349 72.1519 90.2349L75.6713 94.1807L79.9582 89.8161C79.9582 89.8161 84.6123 84.029 86.4346 82.4037C88.2568 80.7784 85.3299 74.7454 85.3299 74.7454C85.3299 74.7454 112.365 67.4554 102.305 54.3425C102.305 54.3425 96.4072 44.0615 94.4865 47.4106C92.5657 50.7597 90.2754 45.4406 90.2754 45.4406L83.2818 46.7705C83.2818 46.7705 69.479 38.6321 56.3786 56.0426C43.2781 73.4531 64.9738 102.363 64.9738 102.363Z" fill="#5A5A5A"/>
<path d="M130.274 142.241C116.082 153.747 98.5236 160 80.0003 160C63.086 160 46.9747 154.785 33.498 145.119C33.5221 144.866 33.5462 144.617 33.5672 144.367C33.9251 140.457 34.2439 136.656 34.4544 133.504C35.2695 121.266 63.8198 113.11 63.8198 113.11C63.8198 113.11 63.9492 113.239 64.2078 113.465C65.7838 114.848 72.1808 119.865 83.3988 121.266C93.4018 122.517 96.695 116.583 97.6905 113.741C97.9913 112.875 98.0815 112.295 98.0815 112.295L127.447 126.162C129.363 128.899 130.112 134.794 130.259 141.42C130.265 141.693 130.271 141.964 130.274 142.241Z" fill="#9E9E9E"/>
<path d="M25.8501 21L138.987 134.137L134.745 138.38L21.6074 25.2426L25.8501 21Z" fill="#10B981"/>
<circle cx="80" cy="80" r="78" stroke="#10B981" stroke-width="4"/>
</g>
<defs>
<clipPath id="clip0_1536_929">
<rect width="160" height="160" fill="white"/>
</clipPath>
</defs>
</svg>
