<svg width="180" height="180" viewBox="0 0 180 180" fill="none" xmlns="http://www.w3.org/2000/svg">
<g clip-path="url(#clip0_212_2)">
<path d="M114.179 102.126L36.372 120.747C33.7327 121.376 30.9328 121.006 28.5866 119.719C26.2404 118.431 24.5395 116.331 23.8571 113.88L0.326089 28.955C-0.350388 26.5021 0.0476807 23.9 1.43297 21.7195C2.81826 19.539 5.07763 17.9582 7.71541 17.324L80.1025 0L98.6302 7.70845L121.569 90.495C122.245 92.9479 121.847 95.5501 120.462 97.7305C119.077 99.911 116.817 101.492 114.179 102.126Z" fill="#9D9D9D"/>
<path d="M8.45247 19.9866C6.57405 20.4383 4.9651 21.564 3.9786 23.1168C2.99211 24.6695 2.70864 26.5226 3.19037 28.2693L26.7214 113.194C27.2074 114.94 28.4186 116.435 30.0894 117.352C31.7602 118.269 33.754 118.532 35.6335 118.085L113.441 99.4633C115.319 99.0117 116.928 97.886 117.915 96.3332C118.901 94.7805 119.185 92.9274 118.703 91.1807L96.1199 9.67684L79.8374 2.90247L8.45247 19.9866Z" fill="white"/>
<path d="M98.4327 8.14651L86.391 11.0284C85.5119 11.2388 84.5789 11.116 83.7972 10.6871C83.0155 10.2581 82.4492 9.55816 82.2228 8.74117L79.9325 0.475438C79.9225 0.439251 79.9237 0.40117 79.9359 0.365562C79.948 0.329954 79.9708 0.298262 80.0015 0.274119C80.0322 0.249976 80.0696 0.234359 80.1094 0.22906C80.1492 0.223761 80.1898 0.228994 80.2265 0.244159L98.4662 7.77228C98.5067 7.78903 98.5407 7.81711 98.5634 7.85262C98.586 7.88813 98.5962 7.92931 98.5925 7.97045C98.5888 8.01158 98.5715 8.05063 98.5428 8.08218C98.5142 8.11373 98.4757 8.13621 98.4327 8.14651Z" fill="#9D9D9D"/>
<path d="M92.097 80.6705L56.6723 89.1485C56.4547 89.2006 56.2281 89.2123 56.0056 89.1831C55.7831 89.1538 55.569 89.0841 55.3754 88.9779C55.1819 88.8717 55.0128 88.7311 54.8777 88.5641C54.7427 88.3972 54.6443 88.2072 54.5882 88.0049C54.5322 87.8026 54.5196 87.5921 54.5511 87.3853C54.5826 87.1785 54.6576 86.9795 54.7719 86.7996C54.8861 86.6198 55.0374 86.4626 55.217 86.3371C55.3967 86.2115 55.6011 86.1201 55.8188 86.068L91.2434 77.59C91.461 77.538 91.6876 77.5262 91.9101 77.5555C92.1326 77.5848 92.3468 77.6545 92.5403 77.7607C92.7338 77.8669 92.903 78.0075 93.038 78.1744C93.1731 78.3414 93.2714 78.5314 93.3275 78.7337C93.3835 78.9359 93.3961 79.1465 93.3646 79.3533C93.3331 79.5601 93.2581 79.7591 93.1439 79.9389C93.0296 80.1188 92.8783 80.276 92.6987 80.4015C92.5191 80.527 92.3146 80.6184 92.097 80.6705Z" fill="#7E7E7E"/>
<path d="M100.374 84.2327L58.1127 94.3468C57.6732 94.452 57.2067 94.3906 56.8159 94.1761C56.425 93.9616 56.1419 93.6117 56.0287 93.2032C55.9155 92.7947 55.9816 92.3611 56.2123 91.9979C56.4431 91.6346 56.8197 91.3715 57.2592 91.2663L99.5202 81.1522C99.9596 81.0474 100.426 81.1091 100.816 81.3236C101.207 81.5381 101.49 81.8879 101.603 82.2962C101.716 82.7044 101.65 83.1377 101.42 83.5008C101.189 83.864 100.813 84.1272 100.374 84.2327Z" fill="#7E7E7E"/>
<path d="M42.2147 99.3594C45.5553 99.3594 48.2635 96.8425 48.2635 93.7378C48.2635 90.6332 45.5553 88.1163 42.2147 88.1163C38.8741 88.1163 36.166 90.6332 36.166 93.7378C36.166 96.8425 38.8741 99.3594 42.2147 99.3594Z" fill="#9D9D9D"/>
<path d="M88.331 65.9586L41.2835 77.214C39.9238 77.5378 38.4815 77.3471 37.2729 76.6837C36.0643 76.0204 35.1882 74.9386 34.8368 73.6757L24.9774 38.0793C24.629 36.8157 24.8342 35.4752 25.5479 34.352C26.2617 33.2288 27.4257 32.4145 28.7846 32.0879L75.8321 20.8325C77.1917 20.5087 78.6341 20.6994 79.8427 21.3628C81.0512 22.0261 81.9274 23.1079 82.2788 24.3708L92.1382 59.9672C92.4865 61.2308 92.2814 62.5713 91.5676 63.6945C90.8539 64.8177 89.6899 65.632 88.331 65.9586Z" fill="white"/>
<path d="M88.331 65.9586L41.2835 77.214C39.9238 77.5378 38.4815 77.3471 37.2729 76.6837C36.0643 76.0204 35.1882 74.9386 34.8368 73.6757L24.9774 38.0793C24.629 36.8157 24.8342 35.4752 25.5479 34.352C26.2617 33.2288 27.4257 32.4145 28.7846 32.0879L75.8321 20.8325C77.1917 20.5087 78.6341 20.6994 79.8427 21.3628C81.0512 22.0261 81.9274 23.1079 82.2788 24.3708L92.1382 59.9672C92.4865 61.2308 92.2814 62.5713 91.5676 63.6945C90.8539 64.8177 89.6899 65.632 88.331 65.9586ZM28.9399 32.6485C27.7408 32.9367 26.7138 33.6551 26.084 34.6462C25.4542 35.6373 25.2732 36.82 25.5806 37.935L35.44 73.5314C35.7501 74.6457 36.5231 75.6002 37.5895 76.1855C38.6559 76.7708 39.9285 76.9391 41.1283 76.6534L88.1757 65.398C89.3748 65.1098 90.4018 64.3914 91.0316 63.4003C91.6614 62.4092 91.8424 61.2265 91.535 60.1115L81.6756 24.5151C81.3655 23.4008 80.5925 22.4462 79.5261 21.861C78.4597 21.2757 77.187 21.1074 75.9873 21.3931L28.9399 32.6485Z" fill="#9D9D9D"/>
<path d="M73.4444 32.8015L49.7001 38.4819C49.4925 38.5358 49.2707 38.5144 49.0794 38.4221C48.8882 38.3297 48.7418 38.1734 48.6698 37.9845C48.6363 37.8859 48.6248 37.782 48.636 37.6791C48.6471 37.5762 48.6807 37.4764 48.7347 37.386C48.7887 37.2956 48.862 37.2163 48.95 37.153C49.0381 37.0898 49.1391 37.0439 49.2468 37.0181L73.417 31.2357C74.3934 31.6955 74.1364 32.6359 73.4441 32.8015L73.4444 32.8015Z" fill="#9D9D9D"/>
<path d="M74.5166 36.6722L50.7724 42.3527C50.5648 42.4065 50.343 42.3851 50.1517 42.2928C49.9604 42.2004 49.814 42.0441 49.7421 41.8553C49.7086 41.7566 49.6971 41.6527 49.7082 41.5498C49.7194 41.4469 49.753 41.3472 49.807 41.2567C49.861 41.1663 49.9342 41.087 50.0223 41.0238C50.1103 40.9605 50.2113 40.9146 50.3191 40.8888L74.4893 35.1064C75.4656 35.5662 75.2087 36.5066 74.5164 36.6723L74.5166 36.6722Z" fill="#9D9D9D"/>
<path d="M46.2502 45.7845L39.0037 47.5182C38.767 47.5745 38.5159 47.5414 38.3056 47.4259C38.0952 47.3104 37.9427 47.1221 37.8816 46.9023L35.6803 38.9548C35.6196 38.7348 35.6553 38.5015 35.7795 38.306C35.9038 38.1105 36.1064 37.9687 36.3429 37.9119L43.5894 36.1783C43.8261 36.122 44.0771 36.1552 44.2875 36.2706C44.4978 36.3861 44.6504 36.5744 44.7116 36.7942L46.9129 44.7417C46.9735 44.9616 46.9378 45.195 46.8136 45.3905C46.6893 45.586 46.4867 45.7277 46.2502 45.7845V45.7845Z" fill="#9D9D9D"/>
<path d="M76.6433 44.614L40.4052 53.2835C40.1976 53.3373 39.9758 53.3159 39.7845 53.2236C39.5933 53.1313 39.4469 52.9749 39.3749 52.7861C39.3414 52.6875 39.3299 52.5835 39.341 52.4806C39.3522 52.3777 39.3858 52.278 39.4398 52.1876C39.4938 52.0971 39.567 52.0179 39.6551 51.9546C39.7431 51.8913 39.8441 51.8454 39.9519 51.8196L76.6162 43.0482C77.5925 43.508 77.3356 44.4484 76.6433 44.614L76.6433 44.614Z" fill="#9D9D9D"/>
<path d="M77.7155 48.486L41.4775 57.1554C41.2699 57.2093 41.048 57.1879 40.8568 57.0955C40.6655 57.0032 40.5191 56.8468 40.4472 56.658C40.4137 56.5594 40.4021 56.4555 40.4133 56.3525C40.4245 56.2496 40.4581 56.1499 40.5121 56.0595C40.5661 55.9691 40.6393 55.8898 40.7274 55.8265C40.8154 55.7633 40.9164 55.7173 41.0242 55.6916L77.6885 46.9202C78.6648 47.3799 78.4079 48.3203 77.7155 48.486V48.486Z" fill="#9D9D9D"/>
<path d="M78.7868 52.3552L42.5488 61.0247C42.3412 61.0785 42.1193 61.0571 41.9281 60.9648C41.7368 60.8725 41.5904 60.7161 41.5184 60.5273C41.485 60.4287 41.4734 60.3247 41.4846 60.2218C41.4958 60.1189 41.5294 60.0192 41.5834 59.9288C41.6373 59.8383 41.7106 59.7591 41.7986 59.6958C41.8867 59.6325 41.9877 59.5866 42.0955 59.5608L78.7597 50.7894C79.7361 51.2492 79.4792 52.1896 78.7868 52.3552Z" fill="#9D9D9D"/>
<path d="M79.8591 56.2269L43.621 64.8964C43.4134 64.9502 43.1916 64.9288 43.0003 64.8365C42.8091 64.7442 42.6627 64.5878 42.5907 64.399C42.5572 64.3004 42.5457 64.1964 42.5569 64.0935C42.568 63.9906 42.6016 63.8909 42.6556 63.8004C42.7096 63.71 42.7829 63.6307 42.8709 63.5675C42.959 63.5042 43.06 63.4583 43.1677 63.4325L79.832 54.6611C80.8084 55.1209 80.5515 56.0613 79.8591 56.227L79.8591 56.2269Z" fill="#9D9D9D"/>
<path d="M80.9314 60.0966L44.6933 68.766C44.4857 68.8199 44.2639 68.7985 44.0726 68.7061C43.8813 68.6138 43.7349 68.4574 43.663 68.2686C43.6295 68.17 43.618 68.066 43.6291 67.9631C43.6403 67.8602 43.6739 67.7605 43.7279 67.6701C43.7819 67.5796 43.8551 67.5004 43.9432 67.4371C44.0312 67.3739 44.1322 67.3279 44.24 67.3022L80.9043 58.5308C81.8806 58.9905 81.6237 59.9309 80.9314 60.0966Z" fill="#9D9D9D"/>
<path d="M42.6605 95.7084C42.5288 95.7402 42.3895 95.7313 42.2637 95.683L42.2559 95.68L40.6081 95.0308C40.5316 95.0007 40.4623 94.9569 40.4041 94.9019C40.3458 94.8469 40.2998 94.7817 40.2687 94.7102C40.2376 94.6386 40.2219 94.5621 40.2227 94.4849C40.2234 94.4077 40.2405 94.3314 40.273 94.2604C40.3055 94.1894 40.3528 94.125 40.4121 94.071C40.4713 94.0169 40.5415 93.9743 40.6185 93.9455C40.6956 93.9167 40.778 93.9022 40.861 93.9031C40.9441 93.9039 41.0261 93.9199 41.1025 93.9502L42.1702 94.3723L43.5694 91.3133C43.6019 91.2424 43.649 91.1781 43.7082 91.1241C43.7674 91.0701 43.8374 91.0275 43.9143 90.9987C43.9912 90.9698 44.0735 90.9554 44.1564 90.9561C44.2393 90.9568 44.3213 90.9727 44.3976 91.0028L44.3978 91.0029L44.3894 91.0229L44.3982 91.0028C44.5522 91.0639 44.6738 91.1793 44.7364 91.3236C44.7991 91.4679 44.7975 91.6295 44.7321 91.7727L43.086 95.3695C43.0478 95.4524 42.9896 95.526 42.9159 95.5847C42.8422 95.6433 42.7549 95.6854 42.6608 95.7076L42.6605 95.7084Z" fill="white"/>
<path d="M144.023 134.489H63.6772C60.9525 134.486 58.3404 133.479 56.4138 131.688C54.4872 129.898 53.4035 127.47 53.4004 124.938V37.2424C53.4035 34.7102 54.4872 32.2825 56.4138 30.492C58.3404 28.7014 60.9525 27.6943 63.6772 27.6914H138.426L154.3 39.4504V124.938C154.297 127.47 153.213 129.898 151.286 131.688C149.36 133.479 146.748 134.486 144.023 134.489Z" fill="#9D9D9D"/>
<path d="M63.6777 30.4409C61.7374 30.443 59.8773 31.1602 58.5053 32.4353C57.1333 33.7103 56.3616 35.4391 56.3594 37.2424V124.938C56.3616 126.741 57.1333 128.47 58.5053 129.745C59.8773 131.02 61.7374 131.737 63.6777 131.739H144.024C145.964 131.737 147.824 131.02 149.196 129.745C150.568 128.47 151.34 126.741 151.342 124.938V40.775L137.392 30.4409H63.6777Z" fill="white"/>
<path d="M128.396 55.9404H91.8158C91.362 55.9404 90.9267 55.7728 90.6057 55.4745C90.2848 55.1763 90.1045 54.7717 90.1045 54.3499C90.1045 53.9281 90.2848 53.5235 90.6057 53.2252C90.9267 52.927 91.362 52.7594 91.8158 52.7594H128.396C128.85 52.7594 129.285 52.927 129.606 53.2252C129.927 53.5235 130.108 53.9281 130.108 54.3499C130.108 54.7717 129.927 55.1763 129.606 55.4745C129.285 55.7728 128.85 55.9404 128.396 55.9404Z" fill="#10B981"/>
<path d="M135.455 61.3083H91.8155C91.362 61.3077 90.9273 61.1399 90.6069 60.8417C90.2864 60.5435 90.1064 60.1393 90.1064 59.7178C90.1064 59.2964 90.2864 58.8921 90.6069 58.5939C90.9273 58.2957 91.362 58.1279 91.8155 58.1273H135.455C135.68 58.127 135.903 58.168 136.111 58.2478C136.319 58.3276 136.508 58.4447 136.667 58.5924C136.826 58.7401 136.952 58.9155 137.038 59.1087C137.125 59.3018 137.169 59.5088 137.169 59.7178C137.169 59.9269 137.125 60.1339 137.038 60.327C136.952 60.5201 136.826 60.6955 136.667 60.8432C136.508 60.9909 136.319 61.1081 136.111 61.1879C135.903 61.2677 135.68 61.3086 135.455 61.3083Z" fill="#10B981"/>
<path d="M128.396 76.8147H91.8167C91.3629 76.8147 90.9276 76.9823 90.6067 77.2805C90.2858 77.5788 90.1055 77.9833 90.1055 78.4051C90.1055 78.8269 90.2858 79.2314 90.6067 79.5297C90.9276 79.8279 91.3629 79.9955 91.8167 79.9955H128.396C128.85 79.9955 129.285 79.8279 129.606 79.5297C129.927 79.2314 130.107 78.8269 130.107 78.4051C130.107 77.9833 129.927 77.5788 129.606 77.2805C129.285 76.9823 128.85 76.8147 128.396 76.8147Z" fill="#9E9E9E"/>
<path d="M135.456 82.1835H91.8167C91.3629 82.1835 90.9276 82.351 90.6067 82.6493C90.2858 82.9475 90.1055 83.3521 90.1055 83.7739C90.1055 84.1957 90.2858 84.6002 90.6067 84.8984C90.9276 85.1967 91.3629 85.3642 91.8167 85.3642H135.456C135.91 85.3642 136.345 85.1967 136.666 84.8984C136.987 84.6002 137.167 84.1957 137.167 83.7739C137.167 83.3521 136.987 82.9475 136.666 82.6493C136.345 82.351 135.91 82.1835 135.456 82.1835Z" fill="#9E9E9E"/>
<path d="M128.396 104.053H91.8158C91.362 104.053 90.9267 103.885 90.6057 103.587C90.2848 103.289 90.1045 102.884 90.1045 102.462C90.1045 102.04 90.2848 101.636 90.6057 101.338C90.9267 101.039 91.362 100.872 91.8158 100.872H128.396C128.85 100.872 129.285 101.039 129.606 101.338C129.927 101.636 130.108 102.04 130.108 102.462C130.108 102.884 129.927 103.289 129.606 103.587C129.285 103.885 128.85 104.053 128.396 104.053Z" fill="#9E9E9E"/>
<path d="M135.455 109.421H91.8155C91.362 109.42 90.9273 109.252 90.6069 108.954C90.2864 108.656 90.1064 108.252 90.1064 107.83C90.1064 107.409 90.2864 107.005 90.6069 106.706C90.9273 106.408 91.362 106.24 91.8155 106.24H135.455C135.68 106.239 135.903 106.28 136.111 106.36C136.319 106.44 136.508 106.557 136.667 106.705C136.826 106.853 136.952 107.028 137.038 107.221C137.125 107.414 137.169 107.621 137.169 107.83C137.169 108.039 137.125 108.246 137.038 108.439C136.952 108.633 136.826 108.808 136.667 108.956C136.508 109.103 136.319 109.22 136.111 109.3C135.903 109.38 135.68 109.421 135.455 109.421Z" fill="#9E9E9E"/>
<path d="M76.5829 62.6553C79.9235 62.6553 82.6316 60.1384 82.6316 57.0337C82.6316 53.9291 79.9235 51.4122 76.5829 51.4122C73.2423 51.4122 70.5342 53.9291 70.5342 57.0337C70.5342 60.1384 73.2423 62.6553 76.5829 62.6553Z" fill="#10B981"/>
<path d="M75.9829 59.1783C75.8468 59.1785 75.7143 59.1376 75.6055 59.0617L75.5987 59.057L74.1772 58.0464C74.1111 57.9995 74.0557 57.941 74.014 57.8743C73.9723 57.8075 73.9452 57.7337 73.9342 57.6572C73.9233 57.5806 73.9287 57.5029 73.9501 57.4283C73.9715 57.3537 74.0085 57.2837 74.0591 57.2225C74.1096 57.1612 74.1727 57.1098 74.2446 57.0712C74.3166 57.0326 74.396 57.0076 74.4784 56.9975C74.5608 56.9875 74.6444 56.9927 74.7247 57.0127C74.8049 57.0328 74.88 57.0674 74.9459 57.1145L75.8666 57.7707L78.0424 55.1326C78.0928 55.0715 78.1558 55.0201 78.2276 54.9816C78.2994 54.943 78.3786 54.918 78.4608 54.9079C78.5431 54.8978 78.6266 54.9028 78.7067 54.9228C78.7868 54.9427 78.8619 54.9771 78.9277 55.024L78.9279 55.0241L78.9144 55.0415L78.9283 55.0241C79.061 55.1189 79.1479 55.2588 79.1698 55.4131C79.1917 55.5674 79.1468 55.7235 79.0451 55.847L76.4859 58.9486C76.4267 59.0201 76.3506 59.0779 76.2634 59.1176C76.1763 59.1573 76.0805 59.1778 75.9834 59.1776L75.9829 59.1783Z" fill="white"/>
<path d="M83.253 81.0895C83.2533 81.8278 83.0971 82.559 82.7933 83.2412C82.4895 83.9234 82.0441 84.5433 81.4825 85.0655C80.9209 85.5877 80.2541 86.002 79.5202 86.2847C78.7863 86.5673 77.9997 86.7129 77.2053 86.713C77.1533 86.714 77.1013 86.712 77.0496 86.7072C75.8602 86.6789 74.7063 86.3252 73.7322 85.6904C72.7581 85.0556 72.007 84.1679 71.573 83.1384C71.139 82.1089 71.0414 80.9833 71.2923 79.9024C71.5432 78.8216 72.1315 77.8335 72.9836 77.0619C73.8357 76.2902 74.9137 75.7693 76.0828 75.5642C77.2519 75.3591 78.4601 75.479 79.5562 75.9089C80.6523 76.3388 81.5877 77.0596 82.2452 77.9811C82.9028 78.9025 83.2533 79.9838 83.253 81.0895Z" fill="#9E9E9E"/>
<path d="M76.5829 110.768C79.9235 110.768 82.6316 108.251 82.6316 105.146C82.6316 102.042 79.9235 99.5247 76.5829 99.5247C73.2423 99.5247 70.5342 102.042 70.5342 105.146C70.5342 108.251 73.2423 110.768 76.5829 110.768Z" fill="#9E9E9E"/>
<path d="M153.991 39.8288H141.557C140.649 39.8288 139.778 39.4936 139.136 38.8971C138.494 38.3005 138.134 37.4914 138.134 36.6478V28.1124C138.134 28.075 138.145 28.0384 138.166 28.0067C138.188 27.9751 138.218 27.9497 138.255 27.9334C138.291 27.9171 138.331 27.9107 138.371 27.9148C138.411 27.9189 138.449 27.9333 138.481 27.9565L154.124 39.4741C154.159 39.4998 154.184 39.5348 154.197 39.5744C154.209 39.6141 154.208 39.6563 154.193 39.6953C154.179 39.7343 154.151 39.7681 154.115 39.792C154.079 39.8159 154.036 39.8288 153.991 39.8288Z" fill="#7E7E7E"/>
<path d="M83.2533 81.0895C83.2536 81.8278 83.0974 82.5589 82.7936 83.2411C82.4898 83.9234 82.0444 84.5433 81.4828 85.0655C80.9212 85.5877 80.2544 86.002 79.5205 86.2846C78.7866 86.5673 78 86.7129 77.2056 86.713C77.1536 86.7139 77.1016 86.712 77.0499 86.7072C76.2684 84.8958 75.9672 82.9363 76.1715 80.9939C76.3759 79.0516 77.0798 77.1834 78.2239 75.547C79.631 75.7712 80.9074 76.4504 81.8278 77.4646C82.7481 78.4788 83.253 79.7627 83.2533 81.0895Z" fill="#10B981"/>
<path d="M90.1045 78.4065C90.1053 77.9846 90.286 77.5801 90.607 77.2818C90.9281 76.9834 91.3633 76.8155 91.8173 76.8147H100.933C101.465 77.8211 101.843 78.8917 102.057 79.9955H91.8173C91.3636 79.9954 90.9285 79.828 90.6074 79.5301C90.2863 79.2323 90.1054 78.8282 90.1045 78.4065Z" fill="#10B981"/>
<path d="M102.268 82.1835C102.269 83.2578 102.116 84.3274 101.813 85.3642H91.8167C91.3629 85.3642 90.9276 85.1967 90.6067 84.8984C90.2858 84.6002 90.1055 84.1957 90.1055 83.7739C90.1055 83.3521 90.2858 82.9475 90.6067 82.6493C90.9276 82.351 91.3629 82.1835 91.8167 82.1835H102.268Z" fill="#10B981"/>
<path d="M124.821 101.8C124.563 102.193 124.147 102.475 123.666 102.583C123.184 102.692 122.676 102.618 122.253 102.378L100.452 90.0196C100.243 89.9008 100.06 89.7449 99.9158 89.5607C99.7711 89.3765 99.6669 89.1676 99.6092 88.946C99.5514 88.7243 99.5412 88.4943 99.579 88.269C99.6169 88.0437 99.7022 87.8275 99.83 87.6328C99.9577 87.4381 100.126 87.2687 100.324 87.1343C100.522 86.9999 100.747 86.9031 100.985 86.8494C101.224 86.7957 101.471 86.7862 101.714 86.8214C101.956 86.8566 102.189 86.9358 102.398 87.0546L124.199 99.413C124.622 99.6529 124.925 100.039 125.042 100.487C125.159 100.934 125.079 101.407 124.821 101.8Z" fill="#3F3D56"/>
<path d="M103.021 89.4414C101.481 91.7871 99.2281 93.6559 96.5458 94.8113C93.8635 95.9668 90.8727 96.3571 87.9517 95.9329C85.0307 95.5087 82.3107 94.289 80.1355 92.4281C77.9604 90.5672 76.4279 88.1486 75.7318 85.4782C75.0357 82.8078 75.2072 80.0055 76.2248 77.4257C77.2423 74.846 79.0602 72.6045 81.4484 70.9849C83.8366 69.3653 86.688 68.4402 89.6419 68.3267C92.5958 68.2131 95.5196 68.9162 98.0436 70.347C101.425 72.2685 103.847 75.358 104.781 78.9377C105.714 82.5173 105.081 86.2948 103.021 89.4414ZM80.6885 76.7815C79.5339 78.5408 78.9665 80.5788 79.0581 82.6377C79.1498 84.6967 79.8963 86.6842 81.2033 88.3489C82.5103 90.0135 84.3191 91.2806 86.401 91.9898C88.4829 92.6991 90.7443 92.8187 92.8993 92.3335C95.0543 91.8483 97.0061 90.7801 98.5078 89.2639C100.01 87.7478 100.994 85.8518 101.336 83.8158C101.679 81.7798 101.364 79.6952 100.431 77.8255C99.4986 75.9558 97.9906 74.3852 96.0976 73.3121C93.5583 71.8762 90.5099 71.4352 87.6211 72.0856C84.7324 72.736 82.2392 74.4248 80.6885 76.7815Z" fill="#3F3D56"/>
<path d="M150.914 84.4346C155.139 84.4346 158.563 81.252 158.563 77.3261C158.563 73.4001 155.139 70.2175 150.914 70.2175C146.69 70.2175 143.266 73.4001 143.266 77.3261C143.266 81.252 146.69 84.4346 150.914 84.4346Z" fill="#A0616A"/>
<path d="M150.42 117.177C150.272 116.75 150.224 116.299 150.277 115.853C150.33 115.407 150.484 114.977 150.729 114.59C150.973 114.203 151.303 113.869 151.697 113.609C152.09 113.349 152.538 113.169 153.012 113.082C153.162 113.054 153.313 113.037 153.466 113.03L161.523 101.012L154.163 94.5092C153.882 94.2608 153.657 93.963 153.5 93.6332C153.343 93.3033 153.258 92.9478 153.25 92.5873C153.242 92.2268 153.311 91.8684 153.453 91.5328C153.595 91.1971 153.807 90.8909 154.077 90.6319C154.347 90.3728 154.669 90.166 155.025 90.0234C155.382 89.8808 155.765 89.8052 156.153 89.801C156.541 89.7968 156.926 89.8641 157.286 89.9989C157.645 90.1338 157.973 90.3336 158.249 90.5867L168.411 99.8986L168.431 99.9218C168.745 100.366 168.897 100.893 168.864 101.424C168.83 101.955 168.614 102.462 168.246 102.869L156.957 115.278C156.991 115.377 157.019 115.478 157.041 115.581C157.136 116.021 157.129 116.474 157.022 116.912C156.914 117.349 156.709 117.76 156.418 118.119C156.128 118.477 155.759 118.774 155.337 118.991C154.914 119.208 154.447 119.339 153.966 119.377C153.869 119.385 153.772 119.389 153.676 119.389C152.951 119.386 152.247 119.17 151.662 118.773C151.077 118.376 150.643 117.818 150.42 117.177Z" fill="#A0616A"/>
<path d="M138.317 176.259L134.499 176.259L132.683 162.573L138.317 162.573L138.317 176.259Z" fill="#A0616A"/>
<path d="M139.29 179.699L126.979 179.698V179.554C126.979 178.969 127.103 178.39 127.344 177.849C127.585 177.309 127.938 176.818 128.383 176.405C128.828 175.991 129.356 175.663 129.937 175.439C130.519 175.216 131.142 175.1 131.771 175.1H131.771L139.29 175.101L139.29 179.699Z" fill="#2F2E41"/>
<path d="M176.265 171.353L172.985 173.169L163.89 162.273L168.731 159.594L176.265 171.353Z" fill="#A0616A"/>
<path d="M178.995 173.846L168.417 179.699L168.338 179.574C168.016 179.072 167.803 178.515 167.713 177.937C167.622 177.358 167.655 176.768 167.81 176.202C167.965 175.635 168.238 175.102 168.614 174.633C168.991 174.164 169.463 173.769 170.003 173.47L170.004 173.47L176.464 169.895L178.995 173.846Z" fill="#2F2E41"/>
<path d="M132.201 170.232C129.643 142.243 128.122 116.241 137.471 105.634L137.544 105.552L153.278 111.402L153.304 111.454C153.357 111.561 158.59 122.259 157.369 129.455L161.251 146.047L173.905 165.739C174.007 165.898 174.072 166.075 174.094 166.258C174.117 166.442 174.098 166.627 174.037 166.803C173.977 166.979 173.877 167.141 173.744 167.279C173.611 167.416 173.448 167.525 173.267 167.6L167.767 169.848C167.457 169.974 167.108 169.991 166.785 169.897C166.462 169.804 166.186 169.605 166.008 169.337L152.242 148.476L144.467 132.475C144.425 132.388 144.353 132.316 144.262 132.271C144.172 132.226 144.068 132.21 143.967 132.225C143.866 132.24 143.773 132.286 143.702 132.355C143.632 132.424 143.587 132.513 143.577 132.607L139.266 170.26C139.23 170.58 139.068 170.877 138.811 171.092C138.553 171.307 138.219 171.426 137.873 171.425H133.598C133.247 171.423 132.91 171.3 132.651 171.079C132.393 170.859 132.232 170.557 132.201 170.232Z" fill="#2F2E41"/>
<path d="M137.524 105.856L137.449 105.823L137.437 105.746C136.85 101.923 137.545 97.675 139.505 93.1203C140.471 90.891 142.267 89.0585 144.565 87.9566C146.863 86.8546 149.51 86.5566 152.025 87.1167C153.473 87.4484 154.832 88.0561 156.015 88.9013C157.197 89.7464 158.178 90.8106 158.895 92.0264C159.603 93.2298 160.034 94.5567 160.161 95.923C160.288 97.2894 160.109 98.6653 159.634 99.9638C157.163 106.679 153.958 112.961 153.926 113.024L153.859 113.155L137.524 105.856Z" fill="black"/>
<path d="M120.357 96.3333C120.736 96.0553 121.173 95.8548 121.642 95.745C122.11 95.6352 122.597 95.6186 123.073 95.6962C123.548 95.7738 124.001 95.9439 124.4 96.1953C124.8 96.4467 125.138 96.7738 125.392 97.1552C125.472 97.2762 125.543 97.4023 125.604 97.5326L140.538 100.338L144.514 91.654C144.666 91.3222 144.887 91.0216 145.165 90.7697C145.442 90.5178 145.771 90.3194 146.131 90.1862C146.492 90.0529 146.877 89.9874 147.265 89.9933C147.653 89.9992 148.036 90.0765 148.392 90.2207C148.747 90.3649 149.068 90.5732 149.337 90.8334C149.606 91.0937 149.816 91.4009 149.956 91.7371C150.096 92.0734 150.163 92.4321 150.153 92.7926C150.143 93.153 150.057 93.5081 149.898 93.8373L144.072 105.944L144.055 105.97C143.717 106.399 143.24 106.716 142.693 106.873C142.146 107.03 141.559 107.018 141.02 106.841L124.56 101.359C124.472 101.423 124.38 101.483 124.285 101.538C123.874 101.775 123.415 101.928 122.937 101.987C122.458 102.047 121.972 102.012 121.509 101.885C121.046 101.758 120.617 101.541 120.25 101.249C119.884 100.957 119.588 100.596 119.382 100.191C119.34 100.109 119.302 100.026 119.268 99.942C119.018 99.3106 118.988 98.6217 119.183 97.9737C119.379 97.3256 119.789 96.7515 120.357 96.3333Z" fill="#A0616A"/>
<path d="M178.546 84.9387C177.809 83.7255 176.736 82.6142 175.317 82.1658C173.484 81.5866 171.5 82.2033 169.616 82.615C168.164 82.9322 166.647 83.1264 165.184 82.8587C163.721 82.591 162.31 81.7996 161.644 80.5595C160.664 78.7351 161.49 76.5595 161.43 74.5214C161.399 73.4119 161.098 72.3233 160.549 71.3378C160 70.3522 159.217 69.4954 158.26 68.8319C157.303 68.1683 156.196 67.7154 155.023 67.5072C153.85 67.299 152.641 67.341 151.488 67.63C149.684 67.1461 148.051 67.1013 146.935 68.3904C145.531 68.3904 144.184 68.9087 143.191 69.8315C142.198 70.7542 141.641 72.0056 141.641 73.3106H146.703C146.463 74.5102 146.737 75.7495 147.467 76.7637C148.361 77.9839 149.915 78.8665 150.214 80.3161C150.504 81.7208 149.476 83.0537 148.398 84.0747C147.321 85.0958 146.071 86.1076 145.734 87.5033C145.528 88.5629 145.762 89.6557 146.389 90.561C147.015 91.4554 147.792 92.2504 148.689 92.9157C152.733 96.1354 157.539 98.4205 162.715 99.5841C166.36 100.4 170.346 100.611 173.73 99.1108C175.084 98.5106 176.29 97.6582 177.274 96.6064C178.258 95.5547 178.999 94.3261 179.451 92.997C179.902 91.6679 180.055 90.2667 179.899 88.8805C179.744 87.4942 179.283 86.1525 178.546 84.9387Z" fill="#2F2E41"/>
<path d="M179.689 180H120.519C120.437 180 120.358 179.969 120.299 179.915C120.241 179.861 120.208 179.787 120.208 179.711C120.208 179.634 120.241 179.56 120.299 179.506C120.358 179.452 120.437 179.421 120.519 179.421H179.689C179.771 179.421 179.851 179.452 179.909 179.506C179.967 179.56 180 179.634 180 179.711C180 179.787 179.967 179.861 179.909 179.915C179.851 179.969 179.771 180 179.689 180Z" fill="#9E9E9E"/>
</g>
<defs>
<clipPath id="clip0_212_2">
<rect width="180" height="180" fill="white"/>
</clipPath>
</defs>
</svg>
