<svg width="177" height="174" viewBox="0 0 177 174" fill="none" xmlns="http://www.w3.org/2000/svg">
<path d="M86.7029 81.3243C99.5234 81.3243 109.917 70.9415 109.917 58.1337C109.917 45.3259 99.5234 34.9431 86.7029 34.9431C73.8823 34.9431 63.4893 45.3259 63.4893 58.1337C63.4893 70.9415 73.8823 81.3243 86.7029 81.3243Z" fill="black"/>
<path d="M68.5836 45.6296C72.3348 41.8821 73.095 36.5656 70.2816 33.755C67.4682 30.9444 62.1465 31.7038 58.3952 35.4514C54.644 39.1989 53.8838 44.5153 56.6972 47.3259C59.5106 50.1366 64.8323 49.3771 68.5836 45.6296Z" fill="black"/>
<path d="M110.897 38.2652C112.46 34.6098 109.772 29.9589 104.894 27.877C100.015 25.7951 94.7934 27.0707 93.2304 30.726C91.6674 34.3813 94.3553 39.0322 99.2339 41.1141C104.112 43.196 109.334 41.9205 110.897 38.2652Z" fill="black"/>
<path d="M135.864 157.706C131.875 160.474 127.66 162.902 123.263 164.964L122.614 163.816L116.392 152.907L115.847 151.949L112.664 146.37L112.658 146.363L102.61 128.727L97.4453 119.673L112.782 108.927L118.748 121.528L121.984 128.373L135.3 156.506L135.864 157.706Z" fill="#C8939B"/>
<path d="M122.161 115.155L120.238 112.146L111.733 98.817C110.571 96.2274 108.43 94.2031 105.778 93.1877C103.125 92.1722 100.178 92.2484 97.582 93.3995C94.9857 94.5506 92.952 96.6828 91.9264 99.329C90.9007 101.975 90.9667 104.92 92.11 107.517L97.367 126.229C97.5152 126.758 97.7751 127.25 98.1293 127.671C98.4835 128.092 98.9238 128.432 99.4205 128.668C99.9172 128.905 100.459 129.033 101.009 129.043C101.559 129.053 102.105 128.945 102.611 128.727C102.63 128.72 102.644 128.714 102.663 128.707L118.749 121.528L120.481 120.754C120.987 120.527 121.438 120.193 121.804 119.776C122.169 119.359 122.441 118.869 122.6 118.338C122.759 117.807 122.803 117.248 122.727 116.699C122.651 116.15 122.458 115.624 122.161 115.155H122.161Z" fill="black"/>
<path d="M75.9451 115.575L71.4694 125.672L70.4981 127.868L53.9269 165.265L53.3953 166.465C48.9079 164.596 44.5871 162.35 40.4795 159.751L40.9259 158.493L54.4518 120.368L57.7726 111.005L65.0443 112.834L75.9451 115.575Z" fill="#C8939B"/>
<path d="M104.726 73.11C109.945 63.5722 106.436 51.6137 96.8888 46.3999C87.3415 41.186 75.371 44.6913 70.152 54.2291C64.933 63.7669 68.4418 75.7254 77.989 80.9393C87.5363 86.1531 99.5068 82.6478 104.726 73.11Z" fill="#C8939B"/>
<path d="M121.779 119.804C121.495 117.21 120.979 114.647 120.237 112.146C118.003 104.614 113.731 97.8439 107.893 92.5818C105.747 90.6582 102.965 89.5956 100.083 89.5987H72.3284C70.3338 89.5935 68.3711 90.0992 66.6277 91.0674C64.8843 92.0356 63.4184 93.434 62.3699 95.1291C61.3214 96.8243 60.7253 98.7597 60.6385 100.75C60.5517 102.741 60.9771 104.721 61.874 106.501L65.0439 112.834L71.469 125.672L73.011 128.746L79.8824 142.482L80.4272 143.57L115.309 153.156L115.46 152.821C115.591 152.526 115.722 152.238 115.847 151.949C116.037 151.51 116.227 151.084 116.405 150.651C119.922 142.318 121.583 134.903 121.983 128.373C122.163 125.516 122.095 122.649 121.779 119.804Z" fill="black"/>
<path d="M77.3628 93.1919C74.7954 91.9902 71.8561 91.8537 69.1883 92.8122C66.5204 93.7706 64.3413 95.7459 63.128 98.3058L60.6538 102.036L52.3846 114.506C52.0777 114.969 51.8743 115.493 51.7881 116.041C51.7018 116.589 51.7349 117.15 51.885 117.684C52.0351 118.219 52.2987 118.714 52.6578 119.138C53.017 119.561 53.4633 119.903 53.9663 120.138L54.4518 120.368L70.4981 127.868L71.6398 128.399C72.0705 128.602 72.5361 128.72 73.0114 128.747C73.6456 128.797 74.2822 128.686 74.8623 128.425C75.3684 128.199 75.8198 127.866 76.1856 127.45C76.5514 127.034 76.8231 126.544 76.9821 126.013L82.5342 107.452C83.7388 104.875 83.8707 101.927 82.9012 99.2531C81.9316 96.5796 79.9397 94.3997 77.3628 93.1919Z" fill="black"/>
<path d="M116.405 150.651C116.288 150.243 116.099 149.859 115.847 149.517C114.95 148.315 113.877 147.254 112.665 146.37L112.658 146.363C108.438 143.17 100.038 139.44 83.8341 139.342H83.8078C83.065 139.341 82.3378 139.554 81.7128 139.955C81.0879 140.356 80.5917 140.928 80.2835 141.603L79.8832 142.482L77.3039 148.147C77.0852 148.634 76.7382 149.053 76.2999 149.36C73.9699 151.005 66.5541 156.971 62.7215 168.366C62.5837 168.773 62.4523 169.186 62.3276 169.612C78.7146 174.395 96.1503 174.237 112.448 169.16L112.809 167.671L116.392 152.907L116.452 152.664C116.614 152.001 116.598 151.306 116.405 150.651Z" fill="black"/>
<path d="M66.7378 51.2902C71.2398 54.39 76.5834 56.0397 82.0511 56.0179C80.1007 57.3689 77.8803 58.2815 75.5429 58.6928C82.8126 60.2506 90.3259 60.2928 97.6127 58.8167C99.2324 58.5572 100.795 58.0209 102.233 57.2314C102.949 56.8318 103.573 56.286 104.065 55.6295C104.556 54.9731 104.903 54.2207 105.085 53.4213C105.569 50.6579 103.413 48.1473 101.173 46.4552C97.7438 43.9042 93.7895 42.1465 89.5966 41.3095C85.4036 40.4725 81.0769 40.577 76.9293 41.6154C74.2211 42.3148 71.5081 43.4964 69.7491 45.6691C67.99 47.8418 67.4689 51.1915 69.1449 53.4288L66.7378 51.2902Z" fill="black"/>
<path d="M2.02819 97.5776C1.96249 97.1055 1.90994 96.6269 1.85739 96.1549C1.84426 96.0828 1.83781 96.0172 1.83111 95.9451C1.64076 94.2208 1.50297 92.479 1.41773 90.7197C1.0569 92.2342 0.731003 93.7553 0.440033 95.2829C0.459578 95.5058 0.479449 95.7222 0.505405 95.9451C0.512132 96.0172 0.518557 96.0828 0.531682 96.1549C0.584238 96.6269 0.636789 97.1055 0.702483 97.5776C0.886104 99.0397 1.10943 100.482 1.37186 101.918C1.37828 101.859 1.38499 101.806 1.39141 101.747C1.57535 100.364 1.78527 98.9872 2.0346 97.6104C2.02941 97.6003 2.02719 97.5889 2.02819 97.5776ZM94.6299 0.367152C94.1572 0.321258 93.6781 0.281905 93.2055 0.249123C93.1334 0.242567 93.0676 0.242574 92.9955 0.236018C90.8953 0.0786662 88.7691 0 86.6295 0C74.5163 0.00376628 62.5385 2.54448 51.469 7.45823C40.3994 12.372 30.484 19.5496 22.3625 28.5279C14.2411 37.5062 8.09402 48.0857 4.31801 59.5839C0.541999 71.082 -0.77906 83.2432 0.440033 95.2829C0.459578 95.5058 0.479449 95.7222 0.505405 95.9451C0.512132 96.0172 0.518517 96.0828 0.531642 96.1549C0.584198 96.6269 0.636749 97.1055 0.702443 97.5776C0.886064 99.0397 1.10943 100.482 1.37186 101.918C3.97939 116.153 10.1033 129.512 19.188 140.784C28.2728 152.055 40.0308 160.883 53.3954 166.465C54.7606 167.029 56.1385 167.566 57.5366 168.058C58.4554 168.392 59.3741 168.701 60.306 168.996C60.9754 169.212 61.6515 169.415 62.3274 169.612C63.2855 169.894 64.2568 170.163 65.2348 170.412C77.2302 173.486 89.7479 173.943 101.936 171.75C114.124 169.557 125.695 164.767 135.864 157.706H135.871C147.402 149.752 156.828 139.121 163.34 126.726C169.853 114.331 173.256 100.542 173.259 86.5434C173.259 41.5146 138.66 4.4124 94.6299 0.367152ZM135.3 156.506C131.29 159.303 127.045 161.749 122.614 163.816C119.429 165.305 116.154 166.592 112.809 167.671C97.7107 172.525 81.5588 173.085 66.16 169.291C65.0051 169.009 63.8588 168.701 62.7212 168.366C61.599 168.038 60.4877 167.691 59.3873 167.324C58.4881 167.016 57.5889 166.701 56.6964 166.366C55.7646 166.012 54.8458 165.645 53.9271 165.265C40.1072 159.511 28.041 150.235 18.9347 138.363C9.82831 126.49 4.00077 112.438 2.0346 97.6104C2.02941 97.6003 2.02719 97.5889 2.02819 97.5776C1.96249 97.1055 1.90994 96.6269 1.85739 96.1549C1.84426 96.0828 1.83785 96.0172 1.83115 95.9451C1.6408 94.2208 1.50301 92.479 1.41777 90.7197C1.34566 89.3363 1.31063 87.9442 1.31266 86.5434C1.33741 63.946 10.3341 42.2812 26.3287 26.3024C42.3234 10.3237 64.0097 1.33598 86.6295 1.31126C88.7692 1.31126 90.8954 1.38993 92.9956 1.54728C93.0677 1.55384 93.1334 1.56039 93.2055 1.56695C93.6782 1.59973 94.1572 1.63906 94.6299 1.68496C137.938 5.72365 171.946 42.2358 171.946 86.5434C171.945 100.294 168.61 113.84 162.229 126.023C155.847 138.207 146.607 148.665 135.3 156.506ZM56.6964 166.366C55.7646 166.012 54.8458 165.645 53.9271 165.265C40.1072 159.512 28.041 150.235 18.9347 138.363C9.8283 126.49 4.00078 112.438 2.0346 97.6104C1.78528 98.9872 1.5754 100.364 1.39145 101.747C1.38504 101.806 1.37833 101.859 1.3719 101.918C3.97943 116.153 10.1033 129.512 19.1881 140.784C28.2728 152.055 40.0308 160.883 53.3955 166.465C54.7606 167.029 56.1385 167.566 57.5367 168.058C57.2479 167.501 56.9656 166.937 56.6964 166.366ZM92.9955 0.236018C90.8952 0.0786662 88.7691 0 86.6294 0C74.5163 0.00376628 62.5385 2.54448 51.4689 7.45823C40.3994 12.372 30.4839 19.5496 22.3625 28.5279C14.241 37.5062 8.09398 48.0857 4.31797 59.5839C0.541959 71.082 -0.7791 83.2432 0.439993 95.2829C0.459538 95.5058 0.479409 95.7222 0.505365 95.9451C0.512092 96.0172 0.518477 96.0828 0.531602 96.1549H1.85731C1.84418 96.0828 1.83773 96.0172 1.83103 95.9451C1.64068 94.2208 1.50289 92.479 1.41765 90.7197C1.34554 89.3363 1.31051 87.9442 1.31254 86.5434C1.33729 63.946 10.334 42.2812 26.3286 26.3024C42.3233 10.3237 64.0096 1.33598 86.6294 1.31126C88.7691 1.31126 90.8952 1.38993 92.9955 1.54728C93.0676 1.55384 93.1333 1.56039 93.2054 1.56695V0.249123C93.1333 0.242567 93.0676 0.242574 92.9955 0.236018H92.9955Z" fill="#3F3D56"/>
<path d="M157.045 22.1516C183.654 22.6056 183.649 62.1457 157.044 62.5958C130.437 62.1418 130.441 22.6017 157.045 22.1516Z" fill="black"/>
<path d="M157.046 53.3848C156.669 53.3843 156.307 53.2344 156.04 52.968C155.774 52.7016 155.624 52.3404 155.623 51.9636V44.4285C155.623 44.2605 155.556 44.0995 155.437 43.9808C155.319 43.862 155.157 43.7952 154.989 43.795H147.447C147.069 43.795 146.707 43.6452 146.441 43.3787C146.174 43.1121 146.024 42.7506 146.024 42.3736C146.024 41.9967 146.174 41.6351 146.441 41.3686C146.707 41.102 147.069 40.9523 147.447 40.9523H154.989C155.157 40.9521 155.318 40.8854 155.437 40.7667C155.556 40.648 155.623 40.487 155.623 40.3192V32.7836C155.623 32.4067 155.773 32.0453 156.04 31.7788C156.307 31.5123 156.668 31.3625 157.046 31.3625C157.423 31.3625 157.785 31.5123 158.052 31.7788C158.318 32.0453 158.468 32.4067 158.468 32.7836V40.3191C158.468 40.487 158.535 40.648 158.654 40.7667C158.773 40.8854 158.934 40.9521 159.102 40.9522H166.645C167.022 40.9522 167.384 41.102 167.651 41.3686C167.918 41.6351 168.068 41.9966 168.068 42.3736C168.068 42.7506 167.918 43.1121 167.651 43.3787C167.384 43.6452 167.022 43.795 166.645 43.795H159.102C158.934 43.7952 158.773 43.862 158.654 43.9808C158.535 44.0995 158.468 44.2605 158.468 44.4284V51.9636C158.468 52.3403 158.318 52.7015 158.051 52.968C157.784 53.2344 157.423 53.3843 157.046 53.3848Z" fill="white"/>
</svg>
