<svg width="30" height="30" viewBox="0 0 30 30" fill="none" xmlns="http://www.w3.org/2000/svg">
<g clip-path="url(#clip0_48_166)">
<path d="M29.9919 13.7113C29.9881 13.6544 29.9775 13.6 29.9587 13.5462C29.9519 13.5262 29.9469 13.5069 29.9381 13.4875C29.9081 13.4225 29.87 13.3612 29.8175 13.3094C29.8169 13.3088 29.8169 13.3088 29.8169 13.3088L26.25 9.74125V6.25C26.25 6.23625 26.2431 6.22438 26.2419 6.21063C26.2381 6.15563 26.2275 6.1025 26.21 6.05C26.2031 6.03 26.1981 6.01063 26.1888 5.99125C26.1581 5.925 26.12 5.86188 26.0662 5.80813L20.4412 0.183125C20.3875 0.129375 20.3244 0.090625 20.2575 0.06C20.2387 0.051875 20.22 0.04625 20.2012 0.04C20.1475 0.02125 20.0925 0.010625 20.0362 0.006875C20.0237 0.00625 20.0125 0 20 0H4.375C4.03 0 3.75 0.28 3.75 0.625V9.74125L0.183125 13.3081C0.183125 13.3081 0.1825 13.3088 0.181875 13.3094C0.129375 13.3619 0.091875 13.4231 0.061875 13.4875C0.053125 13.5069 0.048125 13.5262 0.04125 13.5462C0.0225 13.6 0.01125 13.6544 0.008125 13.7113C0.006875 13.725 0 13.7362 0 13.75V25.625C0 25.97 0.28 26.25 0.625 26.25H3.75V29.375C3.75 29.72 4.03 30 4.375 30H25.625C25.97 30 26.25 29.72 26.25 29.375V26.25H29.375C29.72 26.25 30 25.97 30 25.625V13.75C30 13.7362 29.9931 13.725 29.9919 13.7113ZM27.8662 13.125H26.25V11.5087L27.8662 13.125ZM24.1162 5.625H20.625V2.13375L24.1162 5.625ZM5 1.25H19.375V6.25C19.375 6.595 19.655 6.875 20 6.875H25V10V13.125H5V10V1.25ZM3.75 11.5087V13.125H2.13375L3.75 11.5087ZM25 28.75H5V26.25H25V28.75ZM28.75 25H1.25V14.375H4.375H25.625H28.75V25Z" fill="#970000"/>
<path d="M11.4088 16.7C11.207 16.5269 10.9788 16.4044 10.7232 16.3338C10.4682 16.2632 10.2201 16.2275 9.97947 16.2275H7.89697V23.75H9.15072V20.7325H10.0432C10.3051 20.7325 10.5601 20.6863 10.8082 20.5944C11.0563 20.5025 11.2757 20.3607 11.467 20.1694C11.6582 19.9782 11.812 19.7394 11.9295 19.4519C12.0463 19.165 12.1051 18.8307 12.1051 18.4482C12.1051 18.0232 12.0395 17.6688 11.9082 17.3857C11.777 17.1025 11.6107 16.8738 11.4088 16.7ZM10.607 19.3782C10.4157 19.5869 10.1713 19.6913 9.87385 19.6913H9.15135V17.3007H9.87385C10.1713 17.3007 10.4157 17.3925 10.607 17.5769C10.7982 17.7613 10.8938 18.055 10.8938 18.4588C10.8938 18.8625 10.7982 19.1688 10.607 19.3782Z" fill="#970000"/>
<path d="M19.2019 23.75H20.4875V20.52H22.4107V19.4257H20.4775V17.375H22.57V16.2275H19.2019V23.75Z" fill="#970000"/>
<path d="M15.0475 16.2275H13.1562V23.75H15.0369C16.0075 23.75 16.7425 23.4225 17.2419 22.7675C17.7413 22.1119 17.9906 21.1894 17.9906 19.9994C17.9906 18.8094 17.7413 17.8832 17.2419 17.2207C16.7425 16.5588 16.0113 16.2275 15.0475 16.2275ZM16.5938 21.1519C16.5125 21.4819 16.3969 21.7563 16.2487 21.9757C16.1 22.195 15.9231 22.36 15.7175 22.4694C15.5119 22.5794 15.2888 22.6344 15.0481 22.6344H14.4425V17.3432H15.0481C15.2888 17.3432 15.5119 17.3982 15.7175 17.5082C15.9231 17.6175 16.1 17.7825 16.2487 18.0019C16.3975 18.2213 16.5125 18.4975 16.5938 18.8307C16.675 19.1638 16.7163 19.5532 16.7163 19.9994C16.7163 20.4388 16.675 20.8225 16.5938 21.1519Z" fill="#970000"/>
</g>
<defs>
<clipPath id="clip0_48_166">
<rect width="30" height="30" fill="white"/>
</clipPath>
</defs>
</svg>
