<?xml version="1.0" encoding="iso-8859-1"?>
<!-- Uploaded to: SVG Repo, www.svgrepo.com, Generator: SVG Repo Mixer Tools -->
<svg fill="#000000" height="800px" width="800px" version="1.1" id="Layer_1" xmlns="http://www.w3.org/2000/svg" xmlns:xlink="http://www.w3.org/1999/xlink" 
	 viewBox="0 0 512 512" xml:space="preserve">
<g>
	<g>
		<path d="M400.564,419.328c-0.151-0.745-0.372-1.478-0.663-2.189c-0.291-0.698-0.652-1.373-1.071-2.001
			c-0.419-0.64-0.908-1.233-1.443-1.769c-0.535-0.536-1.129-1.025-1.769-1.455c-0.628-0.408-1.303-0.768-2.013-1.059
			c-0.698-0.291-1.431-0.524-2.176-0.663c-1.501-0.303-3.049-0.303-4.55,0c-0.733,0.14-1.466,0.372-2.176,0.663
			c-0.698,0.291-1.373,0.652-2.001,1.059c-0.64,0.429-1.233,0.918-1.769,1.455c-0.535,0.535-1.024,1.129-1.455,1.769
			c-0.419,0.628-0.78,1.303-1.071,2.001c-0.279,0.71-0.512,1.443-0.663,2.188c-0.151,0.746-0.221,1.514-0.221,2.269
			c0,0.756,0.07,1.526,0.221,2.269c0.151,0.744,0.384,1.478,0.675,2.176c0.291,0.71,0.64,1.384,1.059,2.012
			c0.431,0.641,0.919,1.235,1.455,1.77c2.164,2.164,5.167,3.409,8.227,3.409c0.756,0,1.524-0.08,2.269-0.233
			c0.745-0.138,1.478-0.371,2.176-0.662c0.71-0.291,1.385-0.653,2.013-1.071c0.64-0.419,1.233-0.908,1.769-1.443
			c0.535-0.535,1.024-1.129,1.443-1.77c0.419-0.628,0.78-1.302,1.071-2.012c0.291-0.699,0.512-1.431,0.663-2.176
			c0.151-0.745,0.233-1.513,0.233-2.269C400.797,420.842,400.715,420.073,400.564,419.328z"/>
	</g>
</g>
<g>
	<g>
		<path d="M470.086,51.534l-9.164-9.164V11.636c0-6.426-5.21-11.636-11.636-11.636H182.564c-0.135,0-0.266,0.016-0.401,0.021
			c-0.126,0.004-0.251,0.01-0.377,0.019c-0.504,0.034-1.002,0.09-1.487,0.185c-0.002,0-0.003,0-0.006,0
			c-0.52,0.102-1.024,0.248-1.517,0.418c-0.084,0.028-0.165,0.061-0.248,0.091c-0.468,0.173-0.923,0.369-1.36,0.598
			c-0.024,0.013-0.05,0.023-0.074,0.036c-0.455,0.242-0.887,0.52-1.302,0.819c-0.093,0.068-0.184,0.136-0.275,0.206
			c-0.41,0.313-0.804,0.642-1.168,1.005c-0.004,0.003-0.008,0.007-0.013,0.01L25.389,152.354c-0.004,0.003-0.007,0.008-0.01,0.013
			c-0.362,0.363-0.69,0.756-1.001,1.164c-0.072,0.094-0.144,0.188-0.213,0.285c-0.296,0.412-0.571,0.84-0.812,1.289
			c-0.019,0.034-0.031,0.07-0.05,0.104c-0.221,0.425-0.412,0.867-0.581,1.32c-0.035,0.094-0.071,0.187-0.104,0.282
			c-0.166,0.484-0.31,0.98-0.411,1.491c-0.005,0.022-0.006,0.044-0.01,0.065c-0.09,0.463-0.144,0.939-0.177,1.421
			c-0.009,0.137-0.016,0.273-0.021,0.412c-0.005,0.128-0.02,0.255-0.02,0.384v339.782c0,6.426,5.21,11.636,11.636,11.636h415.667
			c6.427,0,11.636-5.211,11.636-11.636V157.106l9.164-9.164C496.665,121.363,496.665,78.114,470.086,51.534z M170.928,39.73v109.215
			H61.711L170.928,39.73z M437.649,488.727H45.255V172.218h137.309c6.427,0,11.636-5.211,11.636-11.636V23.273h169.551
			c-0.412,0.278-0.812,0.578-1.218,0.867c-0.387,0.275-0.777,0.541-1.16,0.825c-0.532,0.393-1.053,0.809-1.577,1.219
			c-0.354,0.278-0.712,0.547-1.061,0.833c-0.57,0.468-1.128,0.958-1.686,1.446c-0.29,0.254-0.585,0.496-0.872,0.754
			c-0.837,0.758-1.661,1.538-2.468,2.346L316.493,68.78c-0.002,0.002-0.005,0.006-0.007,0.008c-0.001,0.001-0.001,0.001-0.002,0.002
			L97.511,288.3c-0.369,0.347-0.742,0.688-1.103,1.048c-3.956,3.956-8.432,11.736-14.335,41.604c0,0.001,0,0.002,0,0.003
			c-6.852,34.667-12.097,80.979-12.866,87.928c-0.208,0.873-0.332,1.778-0.332,2.714c0,6.426,5.21,11.636,11.636,11.636h274.554
			c6.427,0,11.636-5.211,11.636-11.636s-5.21-11.636-11.636-11.636H205.278c3.52-1.677,5.54-3.233,7.024-4.716
			c0-0.001,0.001-0.001,0.001-0.002c0.358-0.36,0.697-0.73,1.043-1.097c0.001-0.001,0.002-0.002,0.005-0.003l219.508-218.972
			c0.002-0.001,0.003-0.004,0.005-0.006c0.001-0.001,0.003-0.002,0.006-0.005l4.78-4.78V488.727z M130.965,354.23l-24.818-24.818
			c3.861-18.056,6.401-22.922,6.992-23.879c0.34-0.33,0.704-0.62,1.057-0.929c0.418-0.365,0.837-0.728,1.27-1.064
			c0.311-0.239,0.632-0.456,0.951-0.678c0.368-0.258,0.733-0.52,1.109-0.758c0.469-0.293,0.95-0.561,1.432-0.823
			c0.233-0.127,0.463-0.264,0.698-0.383c0.695-0.349,1.401-0.669,2.118-0.953c0.029-0.012,0.057-0.024,0.086-0.036
			c9.405-3.686,20.508-1.77,28.148,5.732c0.058,0.057,0.122,0.106,0.18,0.164c4.862,4.862,7.557,11.262,7.725,17.936
			c0.034,1.229-0.03,2.469-0.173,3.712L130.965,354.23z M144.44,400.617c-18.654,3.027-37.836,5.529-50.483,7.077
			c1.549-12.648,4.051-31.829,7.078-50.483L144.44,400.617z M174.196,343.912c0.12-0.014,0.24-0.036,0.36-0.049
			c5.68-0.578,11.314,0.694,16.144,3.586c1.846,1.105,3.577,2.444,5.146,4.011c8.251,8.251,9.879,20.65,4.899,30.547
			c-0.109,0.215-0.234,0.424-0.349,0.635c-0.271,0.504-0.55,1.003-0.856,1.492c-0.23,0.365-0.485,0.72-0.735,1.078
			c-0.229,0.328-0.453,0.657-0.698,0.976c-0.334,0.434-0.697,0.852-1.061,1.268c-0.308,0.353-0.597,0.716-0.926,1.055
			c-0.955,0.591-5.823,3.13-23.878,6.992l-24.818-24.818L174.196,343.912z M194.544,323.563l133.98-133.981
			c4.544-4.544,4.544-11.912,0-16.457c-4.544-4.543-11.912-4.543-16.457,0L178.085,307.106c-1.911-5.114-4.674-9.93-8.247-14.245
			c-0.054-0.065-0.104-0.133-0.157-0.197c-0.033-0.04-0.069-0.077-0.101-0.116c-0.926-1.101-1.903-2.17-2.934-3.201
			c-0.009-0.009-0.02-0.017-0.029-0.027c-0.744-0.742-1.512-1.448-2.289-2.133c-0.261-0.23-0.525-0.454-0.789-0.677
			c-0.549-0.463-1.105-0.912-1.67-1.348c-0.301-0.235-0.599-0.475-0.905-0.702c-0.71-0.522-1.43-1.024-2.16-1.505
			c-0.54-0.356-1.088-0.689-1.638-1.023c-0.221-0.133-0.441-0.266-0.664-0.396c-4.375-2.561-9.044-4.423-13.858-5.531L324.73,93.477
			l83.443,83.443L225.642,359.006c-1.104-4.8-2.96-9.456-5.51-13.823c-0.147-0.251-0.297-0.5-0.448-0.751
			c-0.32-0.527-0.639-1.053-0.98-1.57c-0.486-0.741-0.996-1.472-1.527-2.192c-0.215-0.291-0.443-0.574-0.666-0.86
			c-0.448-0.582-0.91-1.154-1.387-1.719c-0.215-0.255-0.431-0.51-0.653-0.761c-0.697-0.792-1.413-1.573-2.169-2.328
			C207.156,329.856,201.094,326.009,194.544,323.563z M453.63,131.485l-12.572,12.572l-16.417,16.417l-83.463-83.464l28.988-28.989
			c0.547-0.547,1.104-1.076,1.672-1.589c17.602-15.898,44.864-15.368,61.822,1.589l9.985,9.985l9.984,9.984
			C471.134,85.497,471.134,113.979,453.63,131.485z"/>
	</g>
</g>
<g>
	<g>
		<path d="M355.811,154.973c-0.151-0.745-0.372-1.478-0.663-2.176c-0.291-0.698-0.652-1.373-1.071-2.012
			c-0.419-0.628-0.908-1.235-1.443-1.77c-0.535-0.535-1.129-1.024-1.769-1.443c-0.628-0.418-1.303-0.78-2.013-1.071
			c-0.698-0.291-1.431-0.511-2.176-0.662c-1.501-0.304-3.049-0.304-4.55,0c-0.733,0.151-1.466,0.371-2.176,0.662
			c-0.698,0.291-1.373,0.653-2.001,1.071c-0.64,0.419-1.233,0.908-1.78,1.443c-0.535,0.535-1.012,1.14-1.443,1.77
			c-0.419,0.64-0.78,1.315-1.071,2.012c-0.291,0.699-0.512,1.431-0.663,2.176c-0.151,0.756-0.221,1.513-0.221,2.281
			c0,0.756,0.07,1.513,0.221,2.269c0.151,0.745,0.372,1.478,0.663,2.176c0.291,0.698,0.652,1.373,1.071,2.012
			c0.431,0.628,0.908,1.223,1.443,1.77c0.547,0.535,1.14,1.012,1.78,1.443c0.628,0.418,1.303,0.78,2.001,1.071
			c0.71,0.291,1.443,0.511,2.176,0.662c0.756,0.151,1.524,0.233,2.281,0.233c3.06,0,6.051-1.245,8.227-3.409
			c2.164-2.176,3.409-5.167,3.409-8.227C356.043,156.485,355.962,155.729,355.811,154.973z"/>
	</g>
</g>
</svg>