<svg width="250" height="250" viewBox="0 0 250 250" fill="none" xmlns="http://www.w3.org/2000/svg">
<g clip-path="url(#clip0_212_2)">
<path d="M158.582 141.842L50.5161 167.705C46.8504 168.578 42.9617 168.064 39.7031 166.276C36.4445 164.488 34.0822 161.571 33.1343 158.166L0.452359 40.2153C-0.487193 36.8085 0.0656807 33.1944 1.98969 30.166C3.9137 27.1375 7.05172 24.942 10.7153 24.0611L111.253 0L136.986 10.7062L168.845 125.688C169.785 129.094 169.232 132.708 167.308 135.737C165.384 138.765 162.246 140.961 158.582 141.842V141.842Z" fill="#9D9D9D"/>
<path d="M11.7404 27.7593C9.13149 28.3866 6.89684 29.95 5.52671 32.1066C4.15657 34.2633 3.76286 36.8369 4.43194 39.263L37.1139 157.214C37.7889 159.639 39.4712 161.716 41.7917 162.989C44.1122 164.262 46.8814 164.628 49.4919 164.006L157.558 138.144C160.167 137.516 162.401 135.953 163.771 133.796C165.142 131.64 165.535 129.066 164.866 126.64L133.501 13.4401L110.886 4.03125L11.7404 27.7593Z" fill="white"/>
<path d="M136.711 11.3147L119.987 15.3173C118.766 15.6095 117.47 15.439 116.384 14.8432C115.299 14.2475 114.512 13.2753 114.198 12.1406L111.017 0.660413C111.003 0.610152 111.004 0.557261 111.021 0.507806C111.038 0.458351 111.07 0.414335 111.112 0.380802C111.155 0.34727 111.207 0.32558 111.262 0.31822C111.318 0.310861 111.374 0.318128 111.425 0.339191L136.758 10.7949C136.814 10.8182 136.861 10.8572 136.893 10.9065C136.924 10.9558 136.938 11.013 136.933 11.0701C136.928 11.1273 136.904 11.1815 136.864 11.2253C136.825 11.2692 136.771 11.3004 136.711 11.3147V11.3147Z" fill="#9D9D9D"/>
<path d="M127.913 112.042L78.7118 123.817C78.4095 123.89 78.0949 123.906 77.7858 123.865C77.4768 123.825 77.1794 123.728 76.9106 123.58C76.6418 123.433 76.4069 123.238 76.2193 123.006C76.0317 122.774 75.8951 122.51 75.8173 122.229C75.7394 121.948 75.7219 121.656 75.7657 121.368C75.8094 121.081 75.9136 120.805 76.0723 120.555C76.231 120.305 76.4411 120.087 76.6906 119.913C76.9401 119.738 77.2241 119.611 77.5263 119.539L126.727 107.764C127.03 107.692 127.344 107.675 127.653 107.716C127.962 107.757 128.26 107.853 128.528 108.001C128.797 108.148 129.032 108.344 129.22 108.576C129.407 108.807 129.544 109.071 129.622 109.352C129.7 109.633 129.717 109.926 129.673 110.213C129.63 110.5 129.525 110.776 129.367 111.026C129.208 111.276 128.998 111.494 128.748 111.669C128.499 111.843 128.215 111.97 127.913 112.042Z" fill="#7E7E7E"/>
<path d="M139.408 116.99L80.7123 131.037C80.1018 131.183 79.4539 131.098 78.9111 130.8C78.3683 130.502 77.975 130.016 77.8178 129.449C77.6606 128.881 77.7523 128.279 78.0728 127.775C78.3933 127.27 78.9164 126.905 79.5268 126.759L138.223 112.711C138.833 112.566 139.48 112.652 140.023 112.949C140.565 113.247 140.958 113.733 141.115 114.3C141.272 114.867 141.181 115.469 140.861 115.973C140.541 116.478 140.018 116.843 139.408 116.99V116.99Z" fill="#7E7E7E"/>
<path d="M58.631 137.999C63.2707 137.999 67.032 134.504 67.032 130.191C67.032 125.879 63.2707 122.384 58.631 122.384C53.9912 122.384 50.23 125.879 50.23 130.191C50.23 134.504 53.9912 137.999 58.631 137.999Z" fill="#9D9D9D"/>
<path d="M122.681 91.6092L57.3377 107.242C55.4493 107.691 53.446 107.427 51.7674 106.505C50.0889 105.584 48.872 104.081 48.3839 102.327L34.6903 52.888C34.2065 51.1329 34.4915 49.2712 35.4828 47.7111C36.4741 46.1511 38.0907 45.0202 39.9781 44.5666L105.322 28.9341C107.21 28.4844 109.214 28.7492 110.892 29.6705C112.571 30.5918 113.788 32.0943 114.276 33.8484L127.969 83.2878C128.453 85.0429 128.168 86.9046 127.177 88.4647C126.185 90.0247 124.569 91.1556 122.681 91.6092Z" fill="white"/>
<path d="M122.681 91.6092L57.3377 107.242C55.4493 107.691 53.446 107.427 51.7674 106.505C50.0889 105.584 48.872 104.081 48.3839 102.327L34.6903 52.888C34.2065 51.1329 34.4915 49.2712 35.4828 47.7111C36.4741 46.1511 38.0907 45.0202 39.9781 44.5666L105.322 28.9341C107.21 28.4844 109.214 28.7492 110.892 29.6705C112.571 30.5918 113.788 32.0943 114.276 33.8484L127.969 83.2878C128.453 85.0429 128.168 86.9046 127.177 88.4647C126.185 90.0247 124.569 91.1556 122.681 91.6092ZM40.1938 45.3452C38.5285 45.7454 37.102 46.7433 36.2273 48.1198C35.3526 49.4963 35.1012 51.139 35.5281 52.6876L49.2217 102.127C49.6524 103.675 50.726 105 52.2071 105.813C53.6882 106.626 55.4558 106.86 57.1221 106.463L122.466 90.8306C124.131 90.4304 125.558 89.4325 126.432 88.056C127.307 86.6795 127.558 85.0368 127.132 83.4882L113.438 34.0488C113.007 32.5011 111.933 31.1754 110.452 30.3625C108.971 29.5496 107.204 29.3159 105.537 29.7126L40.1938 45.3452Z" fill="#9D9D9D"/>
<path d="M102.007 45.5575L69.0287 53.447C68.7404 53.5218 68.4322 53.4921 68.1666 53.3638C67.901 53.2356 67.6976 53.0184 67.5977 52.7562C67.5512 52.6192 67.5352 52.4748 67.5507 52.3319C67.5662 52.189 67.6128 52.0505 67.6878 51.9249C67.7628 51.7993 67.8646 51.6892 67.9868 51.6013C68.1091 51.5135 68.2494 51.4497 68.3991 51.4139L101.969 43.3828C103.325 44.0214 102.968 45.3275 102.006 45.5576L102.007 45.5575Z" fill="#9D9D9D"/>
<path d="M103.496 50.9334L70.5174 58.823C70.2291 58.8978 69.921 58.868 69.6553 58.7398C69.3897 58.6116 69.1864 58.3944 69.0864 58.1322C69.0399 57.9952 69.0239 57.8508 69.0394 57.7079C69.0549 57.565 69.1016 57.4265 69.1766 57.3009C69.2516 57.1752 69.3533 57.0651 69.4756 56.9773C69.5979 56.8894 69.7381 56.8257 69.8878 56.7898L103.458 48.7588C104.814 49.3974 104.457 50.7035 103.495 50.9335L103.496 50.9334Z" fill="#9D9D9D"/>
<path d="M64.2362 63.5897L54.1716 65.9975C53.8429 66.0758 53.4942 66.0297 53.202 65.8693C52.9098 65.709 52.698 65.4474 52.6131 65.1421L49.5558 54.1039C49.4715 53.7984 49.5211 53.4743 49.6936 53.2028C49.8662 52.9312 50.1476 52.7344 50.4761 52.6555L60.5407 50.2477C60.8694 50.1695 61.2181 50.2156 61.5102 50.3759C61.8024 50.5363 62.0142 50.7978 62.0992 51.103L65.1566 62.1413C65.2408 62.4468 65.1912 62.7708 65.0187 63.0424C64.8461 63.3139 64.5647 63.5108 64.2362 63.5897V63.5897Z" fill="#9D9D9D"/>
<path d="M106.449 61.9641L56.118 74.0049C55.8297 74.0797 55.5216 74.05 55.2559 73.9218C54.9903 73.7935 54.787 73.5764 54.687 73.3141C54.6405 73.1771 54.6245 73.0328 54.64 72.8898C54.6555 72.7469 54.7022 72.6084 54.7772 72.4828C54.8522 72.3572 54.9539 72.2471 55.0762 72.1593C55.1985 72.0714 55.3387 72.0076 55.4884 71.9718L106.411 59.7893C107.767 60.4279 107.41 61.734 106.449 61.9641L106.449 61.9641Z" fill="#9D9D9D"/>
<path d="M107.938 67.3415L57.6073 79.3824C57.319 79.4572 57.0109 79.4274 56.7452 79.2992C56.4796 79.171 56.2762 78.9538 56.1763 78.6916C56.1298 78.5546 56.1138 78.4102 56.1293 78.2673C56.1448 78.1243 56.1914 77.9859 56.2664 77.8603C56.3414 77.7346 56.4432 77.6245 56.5655 77.5367C56.6877 77.4488 56.828 77.3851 56.9777 77.3492L107.9 65.1667C109.256 65.8053 108.9 67.1114 107.938 67.3415V67.3415Z" fill="#9D9D9D"/>
<path d="M109.427 72.7158L59.0961 84.7566C58.8077 84.8314 58.4996 84.8017 58.234 84.6735C57.9683 84.5452 57.765 84.3281 57.6651 84.0658C57.6185 83.9288 57.6025 83.7845 57.618 83.6416C57.6335 83.4986 57.6802 83.3601 57.7552 83.2345C57.8302 83.1089 57.9319 82.9988 58.0542 82.911C58.1765 82.8231 58.3168 82.7593 58.4665 82.7235L109.389 70.541C110.745 71.1796 110.388 72.4857 109.427 72.7158V72.7158Z" fill="#9D9D9D"/>
<path d="M110.916 78.0929L60.5853 90.1338C60.297 90.2086 59.9889 90.1789 59.7232 90.0507C59.4576 89.9224 59.2543 89.7052 59.1543 89.443C59.1078 89.306 59.0918 89.1617 59.1073 89.0187C59.1228 88.8758 59.1695 88.7373 59.2445 88.6117C59.3194 88.4861 59.4212 88.376 59.5435 88.2882C59.6658 88.2003 59.806 88.1365 59.9557 88.1007L110.878 75.9182C112.234 76.5568 111.878 77.8629 110.916 78.093L110.916 78.0929Z" fill="#9D9D9D"/>
<path d="M112.405 83.4675L62.0741 95.5083C61.7858 95.5831 61.4776 95.5534 61.212 95.4252C60.9464 95.2969 60.743 95.0798 60.6431 94.8175C60.5966 94.6805 60.5806 94.5362 60.5961 94.3933C60.6116 94.2503 60.6582 94.1118 60.7332 93.9862C60.8082 93.8606 60.91 93.7505 61.0322 93.6627C61.1545 93.5748 61.2948 93.511 61.4445 93.4752L112.367 81.2927C113.723 81.9313 113.366 83.2374 112.405 83.4675V83.4675Z" fill="#9D9D9D"/>
<path d="M59.2506 132.928C59.0677 132.972 58.8743 132.96 58.6995 132.893L58.6887 132.889L56.4001 131.987C56.2939 131.945 56.1976 131.885 56.1167 131.808C56.0358 131.732 55.9719 131.641 55.9287 131.542C55.8855 131.443 55.8638 131.336 55.8648 131.229C55.8658 131.122 55.8896 131.016 55.9347 130.917C55.9798 130.819 56.0455 130.729 56.1278 130.654C56.2101 130.579 56.3076 130.52 56.4146 130.48C56.5216 130.44 56.636 130.42 56.7514 130.421C56.8667 130.422 56.9807 130.444 57.0867 130.486L58.5697 131.073L60.513 126.824C60.5581 126.726 60.6236 126.636 60.7058 126.561C60.788 126.486 60.8853 126.427 60.9921 126.387C61.0989 126.347 61.2131 126.327 61.3283 126.328C61.4435 126.329 61.5573 126.351 61.6633 126.393L61.6636 126.393L61.6519 126.421L61.6641 126.393C61.878 126.478 62.0469 126.638 62.1339 126.838C62.2209 127.039 62.2187 127.263 62.1279 127.462L59.8416 132.458C59.7886 132.573 59.7077 132.675 59.6053 132.757C59.5029 132.838 59.3817 132.896 59.2511 132.927L59.2506 132.928Z" fill="white"/>
<path d="M200.032 186.79H88.4408C84.6566 186.786 81.0286 185.387 78.3528 182.9C75.6769 180.413 74.1718 177.042 74.1675 173.525V51.7255C74.1718 48.2085 75.6769 44.8368 78.3528 42.3499C81.0286 39.863 84.6566 38.4642 88.4408 38.4602H192.258L214.306 54.7921V173.525C214.301 177.042 212.796 180.413 210.12 182.9C207.444 185.387 203.816 186.786 200.032 186.79V186.79Z" fill="#9D9D9D"/>
<path d="M88.4407 42.2791C85.7459 42.2819 83.1623 43.278 81.2568 45.049C79.3513 46.8199 78.2794 49.221 78.2764 51.7255V173.525C78.2794 176.029 79.3513 178.43 81.2568 180.201C83.1623 181.972 85.7459 182.968 88.4407 182.971H200.032C202.727 182.968 205.311 181.972 207.216 180.201C209.122 178.43 210.193 176.029 210.196 173.525V56.6319L190.821 42.2791H88.4407Z" fill="white"/>
<path d="M178.327 77.6949H127.521C126.891 77.6949 126.286 77.4622 125.841 77.0479C125.395 76.6336 125.145 76.0717 125.145 75.4859C125.145 74.9 125.395 74.3381 125.841 73.9239C126.286 73.5096 126.891 73.2769 127.521 73.2769H178.327C178.958 73.2769 179.562 73.5096 180.008 73.9239C180.454 74.3381 180.704 74.9 180.704 75.4859C180.704 76.0717 180.454 76.6336 180.008 77.0479C179.562 77.4622 178.958 77.6949 178.327 77.6949V77.6949Z" fill="black"/>
<path d="M188.132 85.1505H127.522C126.892 85.1497 126.288 84.9166 125.843 84.5024C125.398 84.0882 125.148 83.5268 125.148 82.9414C125.148 82.3561 125.398 81.7947 125.843 81.3805C126.288 80.9663 126.892 80.7332 127.522 80.7324H188.132C188.445 80.732 188.754 80.7889 189.043 80.8997C189.332 81.0106 189.594 81.1732 189.815 81.3784C190.036 81.5835 190.212 81.8272 190.331 82.0954C190.451 82.3636 190.512 82.6511 190.512 82.9414C190.512 83.2318 190.451 83.5193 190.331 83.7875C190.212 84.0557 190.036 84.2993 189.815 84.5045C189.594 84.7097 189.332 84.8723 189.043 84.9832C188.754 85.094 188.445 85.1508 188.132 85.1505V85.1505Z" fill="black"/>
<path d="M178.328 106.687H127.523C126.893 106.687 126.288 106.92 125.843 107.334C125.397 107.748 125.146 108.31 125.146 108.896C125.146 109.482 125.397 110.044 125.843 110.458C126.288 110.872 126.893 111.105 127.523 111.105H178.328C178.958 111.105 179.562 110.872 180.008 110.458C180.454 110.044 180.704 109.482 180.704 108.896C180.704 108.31 180.454 107.748 180.008 107.334C179.562 106.92 178.958 106.687 178.328 106.687V106.687Z" fill="#7E7E7E"/>
<path d="M188.133 114.144H127.524C126.893 114.144 126.289 114.377 125.843 114.791C125.397 115.205 125.147 115.767 125.147 116.353C125.147 116.939 125.397 117.5 125.843 117.915C126.289 118.329 126.893 118.562 127.524 118.562H188.133C188.764 118.562 189.368 118.329 189.814 117.915C190.26 117.5 190.51 116.939 190.51 116.353C190.51 115.767 190.26 115.205 189.814 114.791C189.368 114.377 188.764 114.144 188.133 114.144Z" fill="#7E7E7E"/>
<path d="M178.327 144.518H127.521C126.891 144.518 126.286 144.285 125.841 143.871C125.395 143.456 125.145 142.895 125.145 142.309C125.145 141.723 125.395 141.161 125.841 140.747C126.286 140.332 126.891 140.1 127.521 140.1H178.327C178.958 140.1 179.562 140.332 180.008 140.747C180.454 141.161 180.704 141.723 180.704 142.309C180.704 142.895 180.454 143.456 180.008 143.871C179.562 144.285 178.958 144.518 178.327 144.518V144.518Z" fill="#7E7E7E"/>
<path d="M188.132 151.973H127.522C126.892 151.972 126.288 151.739 125.843 151.325C125.398 150.911 125.148 150.35 125.148 149.764C125.148 149.179 125.398 148.617 125.843 148.203C126.288 147.789 126.892 147.556 127.522 147.555H188.132C188.445 147.555 188.754 147.612 189.043 147.722C189.332 147.833 189.594 147.996 189.815 148.201C190.036 148.406 190.212 148.65 190.331 148.918C190.451 149.186 190.512 149.474 190.512 149.764C190.512 150.055 190.451 150.342 190.331 150.61C190.212 150.878 190.036 151.122 189.815 151.327C189.594 151.532 189.332 151.695 189.043 151.806C188.754 151.917 188.445 151.974 188.132 151.973Z" fill="#7E7E7E"/>
<path d="M106.364 87.0213C111.004 87.0213 114.765 83.5257 114.765 79.2137C114.765 74.9016 111.004 71.406 106.364 71.406C101.725 71.406 97.9634 74.9016 97.9634 79.2137C97.9634 83.5257 101.725 87.0213 106.364 87.0213Z" fill="black"/>
<path d="M105.532 82.192C105.343 82.1923 105.159 82.1355 105.008 82.0301L104.999 82.0236L103.024 80.6199C102.933 80.5549 102.856 80.4736 102.798 80.3809C102.74 80.2881 102.702 80.1857 102.687 80.0794C102.672 79.9731 102.679 79.8651 102.709 79.7614C102.739 79.6578 102.79 79.5607 102.86 79.4756C102.93 79.3905 103.018 79.3191 103.118 79.2655C103.218 79.2119 103.328 79.1771 103.443 79.1632C103.557 79.1493 103.673 79.1565 103.785 79.1843C103.896 79.2122 104 79.2602 104.092 79.3257L105.371 80.2371L108.393 76.5731C108.463 76.4881 108.55 76.4168 108.65 76.3633C108.75 76.3097 108.86 76.2749 108.974 76.2609C109.088 76.2469 109.204 76.2539 109.315 76.2816C109.427 76.3092 109.531 76.357 109.622 76.4221L109.623 76.4223L109.604 76.4465L109.623 76.4223C109.807 76.554 109.928 76.7483 109.958 76.9626C109.989 77.1769 109.927 77.3937 109.785 77.5653L106.231 81.873C106.149 81.9723 106.043 82.0526 105.922 82.1078C105.801 82.1629 105.668 82.1914 105.533 82.191L105.532 82.192Z" fill="white"/>
<path d="M115.629 112.624C115.63 113.65 115.413 114.665 114.991 115.613C114.569 116.56 113.95 117.421 113.17 118.146C112.39 118.872 111.464 119.447 110.445 119.84C109.425 120.232 108.333 120.434 107.23 120.435C107.157 120.436 107.085 120.433 107.013 120.427C105.361 120.387 103.759 119.896 102.406 119.014C101.053 118.133 100.01 116.9 99.407 115.47C98.8042 114.04 98.6686 112.477 99.017 110.975C99.3655 109.474 100.183 108.102 101.366 107.03C102.55 105.959 104.047 105.235 105.671 104.95C107.294 104.665 108.972 104.832 110.495 105.429C112.017 106.026 113.316 107.027 114.229 108.307C115.143 109.587 115.63 111.088 115.629 112.624V112.624Z" fill="#7E7E7E"/>
<path d="M106.364 153.844C111.004 153.844 114.765 150.348 114.765 146.036C114.765 141.724 111.004 138.229 106.364 138.229C101.725 138.229 97.9634 141.724 97.9634 146.036C97.9634 150.348 101.725 153.844 106.364 153.844Z" fill="#7E7E7E"/>
<path d="M213.876 55.3177H196.606C195.345 55.3177 194.136 54.8522 193.244 54.0237C192.353 53.1951 191.852 52.0714 191.852 50.8996V39.0449C191.852 38.993 191.868 38.9422 191.897 38.8982C191.927 38.8542 191.97 38.8189 192.02 38.7963C192.07 38.7737 192.126 38.7648 192.182 38.7705C192.237 38.7761 192.29 38.7963 192.334 38.8285L214.061 54.8251C214.109 54.8607 214.144 54.9094 214.161 54.9645C214.179 55.0195 214.177 55.0782 214.157 55.1323C214.136 55.1865 214.099 55.2334 214.048 55.2666C213.998 55.2998 213.938 55.3177 213.876 55.3177Z" fill="#7E7E7E"/>
<path d="M115.629 112.624C115.63 113.65 115.413 114.665 114.991 115.613C114.569 116.56 113.95 117.421 113.17 118.146C112.39 118.872 111.464 119.447 110.445 119.84C109.425 120.232 108.333 120.434 107.23 120.435C107.157 120.436 107.085 120.433 107.013 120.427C105.928 117.911 105.51 115.189 105.793 112.491C106.077 109.794 107.055 107.199 108.644 104.926C110.598 105.238 112.371 106.181 113.649 107.59C114.927 108.998 115.629 110.781 115.629 112.624V112.624Z" fill="black"/>
<path d="M125.145 108.898C125.146 108.312 125.397 107.75 125.843 107.336C126.288 106.921 126.893 106.688 127.523 106.687H140.183C140.923 108.085 141.448 109.572 141.745 111.105H127.523C126.893 111.105 126.289 110.872 125.843 110.458C125.397 110.045 125.146 109.484 125.145 108.898V108.898Z" fill="black"/>
<path d="M142.039 114.144C142.04 115.636 141.827 117.121 141.407 118.562H127.523C126.893 118.562 126.288 118.329 125.843 117.915C125.397 117.5 125.146 116.939 125.146 116.353C125.146 115.767 125.397 115.205 125.843 114.791C126.288 114.377 126.893 114.144 127.523 114.144H142.039Z" fill="black"/>
<path d="M173.363 141.389C173.005 141.935 172.427 142.326 171.758 142.477C171.09 142.627 170.384 142.525 169.796 142.192L139.517 125.027C139.226 124.862 138.973 124.646 138.772 124.39C138.571 124.134 138.427 123.844 138.346 123.536C138.266 123.228 138.252 122.909 138.305 122.596C138.357 122.283 138.476 121.983 138.653 121.712C138.831 121.442 139.064 121.207 139.339 121.02C139.614 120.833 139.926 120.699 140.258 120.624C140.589 120.55 140.933 120.536 141.269 120.585C141.606 120.634 141.929 120.744 142.22 120.909L172.499 138.074C173.086 138.407 173.508 138.943 173.67 139.565C173.832 140.187 173.721 140.843 173.363 141.389V141.389Z" fill="#3F3D56"/>
<path d="M143.085 124.224C140.946 127.482 137.817 130.077 134.091 131.682C130.366 133.287 126.212 133.829 122.155 133.24C118.098 132.651 114.32 130.957 111.299 128.372C108.278 125.788 106.15 122.428 105.183 118.72C104.216 115.011 104.454 111.119 105.868 107.536C107.281 103.953 109.806 100.84 113.123 98.5901C116.439 96.3406 120.4 95.0558 124.502 94.8981C128.605 94.7404 132.666 95.7169 136.171 97.7041C140.867 100.373 144.232 104.664 145.528 109.636C146.824 114.607 145.946 119.854 143.085 124.224ZM112.067 106.641C110.463 109.084 109.675 111.915 109.803 114.775C109.93 117.634 110.967 120.395 112.782 122.707C114.597 125.019 117.11 126.778 120.001 127.764C122.893 128.749 126.034 128.915 129.027 128.241C132.02 127.567 134.73 126.083 136.816 123.978C138.902 121.872 140.269 119.239 140.745 116.411C141.22 113.583 140.783 110.688 139.487 108.091C138.192 105.494 136.098 103.313 133.469 101.822C129.942 99.828 125.708 99.2154 121.696 100.119C117.684 101.022 114.221 103.368 112.067 106.641V106.641Z" fill="#3F3D56"/>
<path d="M209.603 117.27C215.47 117.27 220.226 112.85 220.226 107.397C220.226 101.945 215.47 97.5244 209.603 97.5244C203.736 97.5244 198.979 101.945 198.979 107.397C198.979 112.85 203.736 117.27 209.603 117.27Z" fill="#A0616A"/>
<path d="M208.916 162.746C208.711 162.153 208.644 161.526 208.718 160.907C208.791 160.287 209.005 159.69 209.345 159.153C209.685 158.615 210.143 158.151 210.69 157.79C211.236 157.429 211.858 157.179 212.516 157.057C212.724 157.02 212.935 156.996 213.147 156.985L224.337 140.294L214.116 131.263C213.725 130.918 213.412 130.504 213.194 130.046C212.977 129.588 212.859 129.094 212.848 128.593C212.836 128.093 212.932 127.595 213.129 127.129C213.326 126.663 213.62 126.237 213.995 125.877C214.37 125.518 214.818 125.23 215.313 125.032C215.808 124.834 216.34 124.729 216.879 124.723C217.418 124.718 217.952 124.811 218.452 124.998C218.952 125.186 219.407 125.463 219.79 125.815L233.904 138.748L233.932 138.78C234.368 139.397 234.579 140.129 234.533 140.867C234.487 141.604 234.186 142.308 233.675 142.874L217.996 160.108C218.043 160.246 218.082 160.387 218.113 160.528C218.244 161.14 218.234 161.769 218.085 162.377C217.936 162.984 217.651 163.556 217.247 164.054C216.844 164.551 216.332 164.964 215.745 165.265C215.158 165.567 214.509 165.749 213.841 165.801C213.706 165.812 213.572 165.817 213.438 165.817C212.432 165.813 211.454 165.514 210.642 164.963C209.829 164.411 209.226 163.635 208.916 162.746V162.746Z" fill="#A0616A"/>
<path d="M192.106 244.805L186.804 244.804L184.281 225.795L192.107 225.796L192.106 244.805Z" fill="#A0616A"/>
<path d="M193.459 249.582L176.361 249.581V249.38C176.361 248.568 176.533 247.763 176.867 247.013C177.202 246.263 177.692 245.581 178.31 245.007C178.928 244.432 179.662 243.977 180.469 243.666C181.277 243.355 182.142 243.195 183.016 243.195H183.016L193.459 243.195L193.459 249.582Z" fill="#2F2E41"/>
<path d="M244.812 237.991L240.256 240.512L227.624 225.379L234.348 221.658L244.812 237.991Z" fill="#A0616A"/>
<path d="M248.604 241.452L233.913 249.582L233.802 249.409C233.355 248.711 233.06 247.938 232.934 247.134C232.809 246.331 232.855 245.512 233.069 244.724C233.284 243.937 233.664 243.197 234.186 242.546C234.709 241.895 235.365 241.346 236.115 240.93L236.116 240.93L245.089 235.965L248.604 241.452Z" fill="#2F2E41"/>
<path d="M183.612 236.433C180.06 197.56 177.947 161.446 190.933 146.715L191.033 146.6L212.887 154.725L212.923 154.797C212.996 154.946 220.264 169.804 218.569 179.798L223.959 202.843L241.535 230.194C241.677 230.414 241.766 230.659 241.798 230.914C241.829 231.169 241.802 231.427 241.718 231.671C241.635 231.916 241.496 232.141 241.311 232.331C241.127 232.522 240.901 232.674 240.648 232.777L233.01 235.901C232.579 236.075 232.095 236.099 231.646 235.969C231.198 235.838 230.814 235.562 230.567 235.191L211.448 206.216L200.648 183.992C200.59 183.872 200.49 183.773 200.365 183.71C200.239 183.647 200.095 183.624 199.954 183.645C199.814 183.666 199.684 183.73 199.586 183.826C199.488 183.922 199.427 184.045 199.412 184.177L193.426 236.473C193.376 236.917 193.15 237.329 192.793 237.628C192.435 237.926 191.971 238.091 191.49 238.091H185.553C185.065 238.088 184.597 237.917 184.238 237.61C183.879 237.304 183.656 236.884 183.612 236.433V236.433Z" fill="#2F2E41"/>
<path d="M191.006 147.023L190.902 146.976L190.886 146.87C190.069 141.56 191.036 135.66 193.758 129.334C195.099 126.238 197.593 123.693 200.785 122.162C203.976 120.632 207.653 120.218 211.146 120.996C213.158 121.456 215.045 122.3 216.687 123.474C218.33 124.648 219.692 126.126 220.688 127.815C221.671 129.486 222.269 131.329 222.446 133.227C222.623 135.124 222.373 137.035 221.714 138.839C218.282 148.165 213.831 156.89 213.786 156.978L213.693 157.16L191.006 147.023Z" fill="black"/>
<path d="M167.163 133.796C167.689 133.41 168.297 133.132 168.947 132.979C169.597 132.827 170.274 132.804 170.935 132.911C171.595 133.019 172.223 133.255 172.779 133.605C173.334 133.954 173.803 134.408 174.157 134.938C174.268 135.106 174.366 135.281 174.45 135.462L195.192 139.358L200.714 127.297C200.925 126.836 201.232 126.419 201.618 126.069C202.004 125.719 202.46 125.444 202.961 125.259C203.461 125.074 203.996 124.983 204.535 124.991C205.074 124.999 205.606 125.106 206.1 125.307C206.594 125.507 207.04 125.796 207.413 126.158C207.786 126.519 208.078 126.946 208.273 127.413C208.467 127.88 208.56 128.378 208.547 128.879C208.533 129.379 208.412 129.872 208.192 130.33L200.1 147.144L200.077 147.18C199.608 147.777 198.944 148.216 198.185 148.434C197.425 148.652 196.61 148.637 195.861 148.39L173.001 140.777C172.878 140.866 172.75 140.949 172.618 141.025C172.048 141.354 171.41 141.566 170.746 141.649C170.081 141.732 169.405 141.683 168.762 141.507C168.119 141.33 167.524 141.029 167.015 140.624C166.506 140.218 166.095 139.717 165.809 139.154C165.75 139.04 165.698 138.925 165.651 138.808C165.303 137.931 165.261 136.975 165.533 136.075C165.804 135.175 166.375 134.377 167.163 133.796V133.796Z" fill="#A0616A"/>
<path d="M247.98 117.97C246.957 116.285 245.466 114.742 243.495 114.119C240.95 113.315 238.194 114.171 235.577 114.743C233.561 115.184 231.454 115.453 229.422 115.082C227.39 114.71 225.43 113.611 224.505 111.888C223.145 109.354 224.291 106.333 224.208 103.502C224.165 101.961 223.747 100.449 222.984 99.0804C222.222 97.7116 221.135 96.5215 219.805 95.6C218.476 94.6784 216.938 94.0493 215.309 93.7601C213.68 93.471 212.002 93.5293 210.4 93.9307C207.894 93.2586 205.626 93.1965 204.076 94.9868C202.125 94.9868 200.255 95.7067 198.876 96.9883C197.497 98.2698 196.723 100.008 196.723 101.82H203.754C203.42 103.487 203.801 105.208 204.815 106.616C206.056 108.311 208.214 109.537 208.63 111.55C209.033 113.501 207.605 115.352 206.109 116.771C204.612 118.189 202.875 119.594 202.408 121.533C202.122 123.004 202.447 124.522 203.318 125.779C204.187 127.022 205.266 128.126 206.513 129.05C212.129 133.522 218.804 136.695 225.992 138.311C231.055 139.444 236.592 139.738 241.291 137.654C243.171 136.82 244.847 135.636 246.214 134.176C247.58 132.715 248.609 131.009 249.237 129.163C249.864 127.317 250.076 125.371 249.86 123.445C249.644 121.52 249.004 119.656 247.98 117.97V117.97Z" fill="#2F2E41"/>
<path d="M249.567 250H167.388C167.273 250 167.163 249.958 167.082 249.882C167.001 249.807 166.955 249.705 166.955 249.598C166.955 249.491 167.001 249.389 167.082 249.314C167.163 249.238 167.273 249.196 167.388 249.196H249.567C249.682 249.196 249.792 249.238 249.873 249.314C249.954 249.389 250 249.491 250 249.598C250 249.705 249.954 249.807 249.873 249.882C249.792 249.958 249.682 250 249.567 250Z" fill="#7E7E7E"/>
</g>
<defs>
<clipPath id="clip0_212_2">
<rect width="250" height="250" fill="white"/>
</clipPath>
</defs>
</svg>
