<svg width="241" height="203" viewBox="0 0 241 203" fill="none" xmlns="http://www.w3.org/2000/svg">
<g clip-path="url(#clip0_253_2)">
<path d="M218.788 0.132568H0.09375V149.988H218.788V0.132568Z" fill="#D2D2D2"/>
<path d="M212.534 18.9282H6.34668V141.123H212.534V18.9282Z" fill="white"/>
<path d="M218.694 0H0V9.94064H218.694V0Z" fill="black"/>
<path d="M6.90462 6.92459C7.85566 6.92459 8.62662 6.09971 8.62662 5.08217C8.62662 4.06463 7.85566 3.23975 6.90462 3.23975C5.95358 3.23975 5.18262 4.06463 5.18262 5.08217C5.18262 6.09971 5.95358 6.92459 6.90462 6.92459Z" fill="white"/>
<path d="M13.4408 6.92459C14.3918 6.92459 15.1628 6.09971 15.1628 5.08217C15.1628 4.06463 14.3918 3.23975 13.4408 3.23975C12.4897 3.23975 11.7188 4.06463 11.7188 5.08217C11.7188 6.09971 12.4897 6.92459 13.4408 6.92459Z" fill="white"/>
<path d="M19.9769 6.92459C20.9279 6.92459 21.6989 6.09971 21.6989 5.08217C21.6989 4.06463 20.9279 3.23975 19.9769 3.23975C19.0259 3.23975 18.2549 4.06463 18.2549 5.08217C18.2549 6.09971 19.0259 6.92459 19.9769 6.92459Z" fill="white"/>
<path d="M78.0624 31.6069H25.082V128.444H78.0624V31.6069Z" fill="#D2D2D2"/>
<path d="M131.358 31.6069H87.208V58.2625H131.358V31.6069Z" fill="black"/>
<path d="M131.358 65.6858H87.208V94.3658H131.358V65.6858Z" fill="#D2D2D2"/>
<path d="M131.358 101.789H87.208V128.444H131.358V101.789Z" fill="#D2D2D2"/>
<path d="M193.799 31.6069H140.818V73.8081H193.799V31.6069Z" fill="#D2D2D2"/>
<path d="M193.799 86.2432H140.818V128.444H193.799V86.2432Z" fill="#D2D2D2"/>
<path d="M173.39 76.84V67.7546C173.39 64.5258 174.588 61.4292 176.722 59.1461C178.856 56.863 181.75 55.5803 184.768 55.5803C187.786 55.5803 190.68 56.863 192.814 59.1461C194.948 61.4292 196.147 64.5258 196.147 67.7546V76.84C196.146 77.2735 195.985 77.6892 195.699 77.9958C195.412 78.3024 195.024 78.4748 194.618 78.4753H174.918C174.513 78.4748 174.124 78.3024 173.838 77.9958C173.551 77.6892 173.39 77.2735 173.39 76.84Z" fill="black"/>
<path d="M201.593 195.075L197.58 196.263L191.386 180.267L197.309 178.513L201.593 195.075Z" fill="#FFB8B8"/>
<path d="M194.396 195.885L202.136 193.593L203.484 198.807L190.871 202.542C190.694 201.857 190.645 201.142 190.726 200.437C190.807 199.732 191.018 199.051 191.345 198.433C191.672 197.814 192.11 197.271 192.633 196.834C193.157 196.397 193.756 196.075 194.396 195.885V195.885Z" fill="black"/>
<path d="M159.752 198.378H155.588L153.606 181.193H159.753L159.752 198.378Z" fill="#FFB8B8"/>
<path d="M152.613 197.105H160.644V202.515H147.557C147.557 201.804 147.687 201.101 147.942 200.444C148.196 199.788 148.568 199.192 149.038 198.689C149.507 198.187 150.065 197.788 150.678 197.517C151.292 197.245 151.949 197.105 152.613 197.105V197.105Z" fill="black"/>
<path d="M154.73 102.336C155.027 102.765 155.409 103.12 155.848 103.374C156.287 103.629 156.773 103.777 157.271 103.809C157.77 103.841 158.269 103.755 158.733 103.558C159.197 103.361 159.615 103.058 159.958 102.67L171.028 107.997L170.021 101.335L159.663 97.2974C159.015 96.7245 158.193 96.4259 157.353 96.4582C156.513 96.4904 155.713 96.8513 155.105 97.4724C154.497 98.0935 154.123 98.9317 154.054 99.8281C153.985 100.725 154.225 101.617 154.73 102.336H154.73Z" fill="#FFB8B8"/>
<path d="M177.73 142.398C174.252 142.398 170.652 141.844 167.626 140.195C166.019 139.337 164.595 138.134 163.444 136.66C162.292 135.187 161.436 133.475 160.931 131.631C159.355 126.289 161.343 121.041 163.265 115.966C164.457 112.821 165.582 109.851 165.874 106.923L165.976 105.884C166.431 101.215 166.823 97.1825 168.998 95.6701C170.125 94.8861 171.64 94.8414 173.631 95.5331L192.328 102.031L191.64 140.004L191.527 140.045C191.429 140.08 184.838 142.398 177.73 142.398Z" fill="black"/>
<path d="M173.304 83.7113C173.304 83.7113 182.475 80.804 189.608 81.8943C189.608 81.8943 185.532 105.88 186.891 113.875C188.249 121.87 163.284 116.964 168.379 109.332L170.078 100.247C170.078 100.247 166.681 96.6125 169.738 92.2515L173.304 83.7113Z" fill="black"/>
<path d="M168.794 141.678L157.491 139.411L161.437 106.919C161.703 106.012 167.815 85.4258 170.592 84.312C172.607 83.5525 174.669 82.9397 176.762 82.4779L177.164 82.3918L174.898 86.0292L165.875 109.162L168.794 141.678Z" fill="black"/>
<path d="M162.904 194.396L148.301 191.792L156.496 155.987L168.691 107.022L168.811 107.891C168.821 107.956 169.96 114.353 186.865 111.515L187.013 111.49L187.054 111.645L207.486 188.883L190.845 191.851L175.668 135.498L162.904 194.396Z" fill="black"/>
<path d="M183.146 147.759L183.155 147.484C183.165 147.179 184.17 116.822 183.834 104.613C183.497 92.3626 187.204 81.754 187.241 81.6482L187.272 81.563L187.354 81.5378C192.149 80.0719 196.31 84.4471 196.352 84.4914L196.41 84.5539L195.044 96.6106L200.892 140.453L183.146 147.759Z" fill="black"/>
<path d="M182.429 78.2639C187.037 78.2639 190.772 74.2677 190.772 69.3381C190.772 64.4086 187.037 60.4124 182.429 60.4124C177.822 60.4124 174.087 64.4086 174.087 69.3381C174.087 74.2677 177.822 78.2639 182.429 78.2639Z" fill="#FFB8B8"/>
<path d="M170.697 68.4815C170.7 65.9282 171.649 63.4804 173.337 61.675C175.024 59.8695 177.312 58.854 179.698 58.8511H181.397C183.783 58.854 186.071 59.8695 187.758 61.675C189.446 63.4804 190.395 65.9283 190.398 68.4815V68.6632H186.808L185.584 64.9957L185.34 68.6632H183.485L182.867 66.8128L182.744 68.6632H170.697V68.4815Z" fill="black"/>
<path d="M181.609 79.4969C181.44 79.2527 181.34 78.9627 181.319 78.66C181.297 78.3574 181.357 78.0545 181.489 77.7863C183.289 74.1238 185.809 67.3563 182.464 63.1827L182.224 62.8828H191.934V78.4804L183.113 80.1456C183.024 80.1625 182.933 80.1711 182.842 80.1711C182.602 80.1711 182.364 80.11 182.15 79.9928C181.935 79.8756 181.75 79.7056 181.609 79.4969Z" fill="black"/>
<path d="M142.515 15.0984C135.72 8.96415 127.406 5.0751 118.583 3.90451C109.76 2.73392 100.81 4.33227 92.8204 8.50506C84.8312 12.6779 78.1478 19.2452 73.5836 27.4079C69.0193 35.5706 66.7708 44.9767 67.1119 54.4817C67.4529 63.9867 70.3688 73.1807 75.5045 80.945C80.6403 88.7093 87.7746 94.7091 96.0392 98.2142C104.304 101.719 113.343 102.579 122.055 100.688C130.768 98.7971 138.78 94.2375 145.115 87.5639L201.369 138.35C202.225 139.124 203.333 139.503 204.45 139.403C205.567 139.303 206.601 138.732 207.324 137.816C208.048 136.901 208.402 135.715 208.308 134.52C208.215 133.325 207.681 132.218 206.826 131.444L206.819 131.439L150.565 80.6524C157.1 70.6175 159.897 58.3332 158.408 46.2069C156.919 34.0806 151.251 22.9864 142.515 15.0984ZM138.888 75.762C134.506 81.319 128.682 85.3607 122.152 87.3761C115.623 89.3914 108.682 89.29 102.206 87.0846C95.7307 84.8792 90.012 80.6688 85.773 74.9859C81.5341 69.303 78.9653 62.4028 78.3917 55.1579C77.818 47.9131 79.2651 40.6489 82.5501 34.284C85.8351 27.9191 90.8103 22.7394 96.8467 19.3998C102.883 16.0602 109.71 14.7109 116.463 15.5223C123.216 16.3337 129.592 19.2695 134.786 23.9584C138.235 27.0717 141.076 30.8812 143.149 35.1695C145.221 39.4578 146.484 44.1408 146.865 48.9513C147.246 53.7617 146.737 58.6053 145.369 63.2055C144 67.8057 141.798 72.0724 138.888 75.762Z" fill="#9C9C9C"/>
<path opacity="0.3" d="M90.4699 80.1508C83.8784 74.1995 79.6198 65.8136 78.5397 56.6583C77.4596 47.503 79.6369 38.2479 84.6394 30.7307C83.9825 31.4386 83.3474 32.1799 82.7341 32.9548C79.8243 36.6444 77.6222 40.9111 76.2535 45.5113C74.8849 50.1115 74.3765 54.9551 74.7574 59.7656C75.1383 64.576 76.401 69.259 78.4735 73.5473C80.5459 77.8356 83.3875 81.6452 86.836 84.7585C90.2845 87.8718 94.2724 90.2279 98.5719 91.6922C102.871 93.1566 107.398 93.7005 111.894 93.293C116.391 92.8855 120.767 91.5344 124.775 89.317C128.783 87.0997 132.344 84.0594 135.254 80.3697C135.866 79.5939 136.442 78.7993 136.982 77.9861C130.898 84.5267 122.738 88.3801 114.121 88.7812C105.504 89.1822 97.0619 86.1015 90.4699 80.1508Z" fill="#9C9C9C"/>
<path d="M185.108 117.94C185.593 118.067 186.098 118.079 186.588 117.974C187.077 117.87 187.54 117.652 187.942 117.335C188.344 117.019 188.677 116.612 188.916 116.143C189.156 115.674 189.296 115.155 189.328 114.622L201.023 111.148L196.269 106.713L185.892 110.692C185.051 110.694 184.24 111.027 183.614 111.626C182.987 112.225 182.587 113.05 182.491 113.944C182.394 114.837 182.607 115.737 183.089 116.474C183.572 117.211 184.29 117.733 185.108 117.94V117.94Z" fill="#FFB8B8"/>
<path d="M189.97 116.102L189.258 108.868L199.027 103.101L192.658 94.8513L193.697 85.5845L196.285 84.3977L196.366 84.5084C197.586 86.1874 208.29 100.964 208.29 102.791C208.29 104.667 206.242 110.176 203.441 111.675C200.738 113.121 190.591 115.93 190.16 116.05L189.97 116.102Z" fill="black"/>
<path d="M240.66 203H111.25C111.16 203 111.073 202.962 111.01 202.894C110.946 202.825 110.91 202.733 110.91 202.637C110.91 202.54 110.946 202.448 111.01 202.38C111.073 202.311 111.16 202.273 111.25 202.273H240.66C240.75 202.273 240.837 202.311 240.901 202.38C240.964 202.448 241 202.54 241 202.637C241 202.733 240.964 202.825 240.901 202.894C240.837 202.962 240.75 203 240.66 203Z" fill="black"/>
</g>
<defs>
<clipPath id="clip0_253_2">
<rect width="241" height="203" fill="white"/>
</clipPath>
</defs>
</svg>
