<svg width="30" height="30" viewBox="0 0 30 30" fill="none" xmlns="http://www.w3.org/2000/svg">
<path d="M29.9925 13.7125C29.9887 13.6556 29.9781 13.6006 29.9587 13.5462C29.9519 13.5262 29.9469 13.5069 29.9381 13.4875C29.9081 13.4231 29.8706 13.3631 29.8187 13.3106C29.8181 13.3094 29.8175 13.3087 29.8163 13.3075L26.25 9.74125V6.25C26.25 6.23688 26.2431 6.225 26.2425 6.21188C26.2387 6.15625 26.2281 6.1025 26.21 6.05C26.2031 6.03 26.1981 6.01125 26.1894 5.99187C26.1587 5.92562 26.1206 5.8625 26.0669 5.80875L20.4419 0.18375C20.3888 0.130625 20.3256 0.0925 20.26 0.061875C20.2394 0.0525 20.2188 0.046875 20.1975 0.04C20.1469 0.023125 20.0956 0.0125 20.0425 0.00875C20.0275 0.0075 20.0144 0 20 0H4.375C4.02938 0 3.75 0.28 3.75 0.625V9.74125L0.18375 13.3075C0.1825 13.3087 0.1825 13.3094 0.18125 13.3106C0.129375 13.3625 0.091875 13.4231 0.061875 13.4875C0.053125 13.5062 0.048125 13.5262 0.04125 13.5462C0.0225 13.6 0.01125 13.655 0.0075 13.7125C0.006875 13.7256 0 13.7369 0 13.75V25.625C0 25.97 0.279375 26.25 0.625 26.25H3.75V29.375C3.75 29.72 4.02938 30 4.375 30H25.625C25.9706 30 26.25 29.72 26.25 29.375V26.25H29.375C29.7206 26.25 30 25.97 30 25.625V13.75C30 13.7369 29.9931 13.7256 29.9925 13.7125ZM27.8662 13.125H26.25V11.5087L27.8662 13.125ZM24.1162 5.625H20.625V2.13375L24.1162 5.625ZM5 1.25H19.375V6.25C19.375 6.595 19.6544 6.875 20 6.875H25V10V13.125H5V10V1.25ZM3.75 11.5087V13.125H2.13375L3.75 11.5087ZM25 28.75H5V26.25H25V28.75ZM28.75 25H1.25V14.375H4.375H25.625H28.75V25Z" fill="#8F00FF"/>
<path d="M17.6406 17.3115H19.0537V23.7503H20.3075V17.3115H21.72V16.2278H17.6406V17.3115Z" fill="#8F00FF"/>
<path d="M8.2793 17.3115H9.69242V23.7503H10.9455V17.3115H12.3587V16.2278H8.2793V17.3115Z" fill="#8F00FF"/>
<path d="M17.4285 16.2278H16.1216L15.016 18.8203L13.9004 16.2278H12.5722L14.2729 19.7872L12.3916 23.7503H13.7197L14.9847 20.8709L16.2379 23.7503H17.6091L15.7172 19.7872L17.4285 16.2278Z" fill="#8F00FF"/>
</svg>
