<svg width="48" height="48" viewBox="0 0 48 48" fill="none" xmlns="http://www.w3.org/2000/svg">
<path d="M47.988 21.94C47.982 21.849 47.965 21.761 47.934 21.674C47.923 21.642 47.915 21.611 47.901 21.58C47.853 21.477 47.793 21.381 47.71 21.297C47.709 21.295 47.708 21.294 47.706 21.292L42 15.586V10C42 9.979 41.989 9.96 41.988 9.939C41.982 9.85 41.965 9.764 41.936 9.68C41.925 9.648 41.917 9.618 41.903 9.587C41.854 9.481 41.793 9.38 41.707 9.294L32.707 0.294C32.622 0.209 32.521 0.148 32.416 0.099C32.383 0.084 32.35 0.075 32.316 0.064C32.235 0.037 32.153 0.02 32.068 0.014C32.044 0.012 32.023 0 32 0H7C6.447 0 6 0.448 6 1V15.586L0.294 21.292C0.292 21.294 0.292 21.295 0.29 21.297C0.207 21.38 0.147 21.477 0.099 21.58C0.085 21.61 0.077 21.642 0.066 21.674C0.036 21.76 0.018 21.848 0.012 21.94C0.011 21.961 0 21.979 0 22V41C0 41.552 0.447 42 1 42H6V47C6 47.552 6.447 48 7 48H41C41.553 48 42 47.552 42 47V42H47C47.553 42 48 41.552 48 41V22C48 21.979 47.989 21.961 47.988 21.94ZM44.586 21H42V18.414L44.586 21ZM38.586 9H33V3.414L38.586 9ZM8 2H31V10C31 10.552 31.447 11 32 11H40V16V21H8V16V2ZM6 18.414V21H3.414L6 18.414ZM40 46H8V42H40V46ZM46 40H2V23H7H41H46V40Z" fill="#DDDDDD"/>
<path d="M28.2246 27.6981H30.4856V38.0001H32.4916V27.6981H34.7516V25.9641H28.2246V27.6981Z" fill="#DDDDDD"/>
<path d="M13.248 27.6981H15.509V38.0001H17.514V27.6981H19.775V25.9641H13.248V27.6981Z" fill="#DDDDDD"/>
<path d="M27.8852 25.9641H25.7942L24.0252 30.1121L22.2402 25.9641H20.1152L22.8362 31.6591L19.8262 38.0001H21.9512L23.9752 33.3931L25.9802 38.0001H28.1742L25.1472 31.6591L27.8852 25.9641Z" fill="#DDDDDD"/>
</svg>
