<svg width="160" height="123" viewBox="0 0 160 123" fill="none" xmlns="http://www.w3.org/2000/svg">
<g clip-path="url(#clip0_1384_67)">
<path fill-rule="evenodd" clip-rule="evenodd" d="M105.283 122.67C105.279 122.54 105.275 122.41 105.266 122.279C105.055 118.339 103.365 113.988 101.064 109.789L101.063 109.789C101.063 109.789 101.063 109.789 101.063 109.789C100.898 109.894 100.727 109.992 100.553 110.088C97.8522 111.583 94.7519 112.196 91.6857 111.841C88.6195 111.486 85.7411 110.181 83.4537 108.109C83.4536 108.109 83.4536 108.109 83.4536 108.109C83.4536 108.109 83.4536 108.109 83.4536 108.109C83.4536 112.008 84.0121 115.836 85.6332 118.756C86.3151 120.006 87.1177 121.186 88.0294 122.279C88.141 122.412 88.2544 122.542 88.3677 122.67H105.283ZM83.4602 107.394C83.4602 107.394 83.4602 107.394 83.4602 107.394C85.6572 109.521 88.479 110.886 91.5101 111.287C94.5412 111.689 97.6212 111.107 100.296 109.626C100.47 109.531 100.64 109.429 100.809 109.327L100.809 109.327C100.809 109.327 100.809 109.327 100.809 109.327C99.6921 107.33 98.4471 105.376 97.1612 103.518L97.1612 103.518L97.1611 103.518C97.097 103.556 97.0329 103.592 96.9673 103.628C94.9397 104.754 92.6754 105.385 90.358 105.472C88.0406 105.559 85.7354 105.098 83.6294 104.127L83.6294 104.127L83.6294 104.127C83.5391 105.205 83.4783 106.3 83.4602 107.394ZM101.536 109.493L101.536 109.493C104.184 114.322 105.61 118.598 105.794 122.279C105.8 122.41 105.805 122.54 105.808 122.67H108.112C108.275 122.542 108.436 122.412 108.592 122.279C113.25 118.35 115.065 112.619 110.74 104.822C109.914 103.388 108.873 102.089 107.653 100.971C106.728 104.465 104.551 107.498 101.536 109.493ZM107.214 100.565C106.369 104.032 104.25 107.054 101.277 109.028C100.238 107.175 99.0236 105.244 97.6325 103.237L97.6325 103.237C99.9058 101.82 101.747 99.8069 102.957 97.4167L102.633 107.89L105.524 99.1707C106.114 99.6191 106.677 100.084 107.214 100.565C107.214 100.565 107.214 100.565 107.214 100.565ZM97.3287 102.804C99.5469 101.427 101.341 99.4627 102.512 97.1292L102.512 97.1292C100.105 95.6871 97.5938 94.4261 94.9996 93.3566L94.9996 93.3566C94.2017 94.402 93.2664 95.3351 92.2191 96.1305L92.2192 96.1306C93.5151 97.6958 94.9193 99.4696 96.3104 101.376C96.6602 101.856 96.9996 102.332 97.3287 102.804ZM96.8588 103.083L96.8589 103.083C95.1476 100.641 93.3804 98.3807 91.784 96.4509L91.7839 96.4508L91.7838 96.4509C91.3496 96.7559 90.8995 97.0377 90.4354 97.2951C88.5389 98.3511 86.4312 98.9721 84.265 99.1132C84.0318 100.519 83.8265 102.023 83.6803 103.569L83.6804 103.569C85.7276 104.545 87.9784 105.018 90.2453 104.948C92.5122 104.878 94.7296 104.267 96.7127 103.167C96.7603 103.14 96.8112 103.111 96.8588 103.083ZM84.3553 98.5811C86.4003 98.4277 88.3876 97.8314 90.1792 96.8336C90.6141 96.5928 91.0362 96.3297 91.4439 96.0452L91.444 96.0451C89.0774 93.2072 87.1246 91.1395 86.3412 90.3281L86.3409 90.3281C86.2901 90.3149 86.2638 90.3083 86.2638 90.3083C85.4679 93.0266 84.8306 95.7888 84.3553 98.5811ZM94.4922 93.1464C91.4259 91.8868 88.767 91.0393 87.3513 90.6188C88.3433 91.67 89.9839 93.4585 91.8825 95.7265C92.8616 94.9845 93.739 94.117 94.4922 93.1464L94.4922 93.1464Z" fill="#9E9E9E"/>
<path d="M93.5311 73.4477H0V3.2749H93.5311V73.4477Z" fill="white"/>
<path d="M22.6644 17.9204C24.7206 17.9204 26.3874 16.2536 26.3874 14.1974C26.3874 12.1412 24.7206 10.4744 22.6644 10.4744C20.6083 10.4744 18.9414 12.1412 18.9414 14.1974C18.9414 16.2536 20.6083 17.9204 22.6644 17.9204Z" fill="#E6E6E6"/>
<path d="M31.2627 11.7156C31.0983 11.7159 30.9408 11.7814 30.8247 11.8977C30.7085 12.014 30.6433 12.1717 30.6433 12.3361C30.6433 12.5005 30.7085 12.6581 30.8247 12.7744C30.9408 12.8908 31.0983 12.9563 31.2627 12.9566H76.5667C76.731 12.9563 76.8886 12.8908 77.0047 12.7744C77.1208 12.6581 77.186 12.5005 77.186 12.3361C77.186 12.1717 77.1208 12.014 77.0047 11.8977C76.8886 11.7814 76.731 11.7159 76.5667 11.7156H31.2627Z" fill="#E6E6E6"/>
<path d="M31.2627 15.4385C31.0981 15.4381 30.9402 15.5032 30.8235 15.6193C30.7069 15.7354 30.6412 15.8931 30.6409 16.0577C30.6405 16.2222 30.7056 16.3802 30.8217 16.4968C30.9378 16.6134 31.0955 16.6791 31.2601 16.6795H59.9017C59.9833 16.6796 60.0641 16.6637 60.1395 16.6326C60.2149 16.6015 60.2834 16.5558 60.3412 16.4981C60.3989 16.4405 60.4447 16.372 60.476 16.2967C60.5072 16.2213 60.5233 16.1406 60.5233 16.059C60.5233 15.9774 60.5072 15.8966 60.476 15.8213C60.4447 15.7459 60.3989 15.6775 60.3412 15.6198C60.2834 15.5622 60.2149 15.5165 60.1395 15.4854C60.0641 15.4543 59.9833 15.4383 59.9017 15.4385H31.2627Z" fill="#E6E6E6"/>
<path d="M93.5311 73.4477H0V3.2749H93.5311V73.4477ZM1.04685 72.4008H92.4843V4.32176H1.04685V72.4008Z" fill="#E6E6E6"/>
<path d="M5.22778 24.6748V66.4123H88.3035V24.6748H5.22778ZM87.9041 35.0093H67.6344V25.0742H87.9041V35.0093ZM46.9653 35.0093V25.0742H67.235V35.0093H46.9653ZM67.235 35.4087V45.3439H46.9653V35.4087H67.235ZM46.5659 35.0093H26.2963V25.0742H46.5659V35.0093ZM46.5659 35.4087V45.3439H26.2963V35.4087H46.5659ZM25.8969 45.3439H5.62719V35.4087H25.8969V45.3439ZM25.8969 45.7433V55.6784H5.62719V45.7433H25.8969ZM26.2963 45.7433H46.5659V55.6784H26.2963V45.7433ZM46.5659 56.0778V66.0129H26.2963V56.0778H46.5659ZM46.9653 56.0778H67.235V66.0129H46.9653V56.0778ZM46.9653 55.6784V45.7433H67.235V55.6784H46.9653ZM67.6344 45.7433H87.9041V55.6784H67.6344V45.7433ZM67.6344 45.3439V35.4087H87.9041V45.3439H67.6344ZM25.8969 25.0742V35.0093H5.62719V25.0742H25.8969ZM5.62719 56.0778H25.8969V66.0129H5.62719V56.0778ZM67.6344 66.0129V56.0778H87.9041V66.0129H67.6344Z" fill="#E4E4E4"/>
<path d="M39.3312 35.9034L31.065 35.7162C30.2381 32.5133 30.6104 29.4636 31.2702 26.6533L39.5363 26.8405C38.7002 29.7951 38.6296 32.9139 39.3312 35.9034Z" fill="#10B981"/>
<path d="M32.6863 28.6563L32.6907 28.3418L36.9733 28.4948L36.9687 28.8093L32.6863 28.6563Z" fill="white"/>
<path d="M32.6682 29.9144L32.6726 29.5999L36.955 29.753L36.9506 30.0676L32.6682 29.9144Z" fill="white"/>
<path d="M32.6501 31.1724L32.6547 30.8579L36.9371 31.0111L36.9327 31.3256L32.6501 31.1724Z" fill="white"/>
<path d="M32.6321 32.4307L32.6365 32.1162L36.9191 32.2694L36.9145 32.5839L32.6321 32.4307Z" fill="white"/>
<path d="M32.6143 33.6888L32.6187 33.3743L36.9012 33.5274L36.8966 33.842L32.6143 33.6888Z" fill="white"/>
<path d="M21.358 59.0687L13.0918 58.8815C12.265 55.6786 12.6373 52.6289 13.2971 49.8186L21.5632 50.0058C20.7271 52.9604 20.6565 56.0792 21.358 59.0687Z" fill="#F0F0F0"/>
<path d="M14.7131 51.8216L14.7175 51.5071L19.0001 51.6601L18.9955 51.9746L14.7131 51.8216Z" fill="white"/>
<path d="M14.6953 53.0797L14.6997 52.7651L18.9821 52.9183L18.9777 53.2328L14.6953 53.0797Z" fill="white"/>
<path d="M14.677 54.338L14.6816 54.0234L18.964 54.1766L18.9596 54.4911L14.677 54.338Z" fill="white"/>
<path d="M14.6592 55.596L14.6636 55.2815L18.9462 55.4347L18.9416 55.7492L14.6592 55.596Z" fill="white"/>
<path d="M14.6411 56.8541L14.6455 56.5396L18.9281 56.6927L18.9235 57.0073L14.6411 56.8541Z" fill="white"/>
<path d="M64.4933 48.4847L56.2271 48.2975C55.4003 45.0946 55.7725 42.0449 56.4323 39.2346L64.6985 39.4218C63.8623 42.3764 63.7917 45.4952 64.4933 48.4847Z" fill="#F0F0F0"/>
<path d="M57.8486 41.2374L57.853 40.9229L62.1356 41.0758L62.131 41.3903L57.8486 41.2374Z" fill="white"/>
<path d="M57.8306 42.4957L57.835 42.1812L62.1174 42.3343L62.113 42.6489L57.8306 42.4957Z" fill="white"/>
<path d="M57.8125 43.7537L57.8171 43.4392L62.0995 43.5924L62.0951 43.9069L57.8125 43.7537Z" fill="white"/>
<path d="M57.7944 45.0118L57.7988 44.6973L62.0814 44.8504L62.0768 45.165L57.7944 45.0118Z" fill="white"/>
<path d="M57.7766 46.2699L57.781 45.9553L62.0636 46.1085L62.059 46.423L57.7766 46.2699Z" fill="white"/>
<path d="M60.8988 46.4876L52.6326 46.3004C51.8058 43.0975 52.178 40.0478 52.8378 37.2375L61.104 37.4247C60.2679 40.3793 60.1973 43.4981 60.8988 46.4876Z" fill="#10B981"/>
<path d="M54.2539 39.2406L54.2583 38.926L58.5409 39.079L58.5363 39.3935L54.2539 39.2406Z" fill="white"/>
<path d="M54.2361 40.4986L54.2405 40.1841L58.5229 40.3373L58.5185 40.6518L54.2361 40.4986Z" fill="white"/>
<path d="M54.2178 41.7567L54.2224 41.4421L58.5048 41.5953L58.5004 41.9098L54.2178 41.7567Z" fill="white"/>
<path d="M54.2 43.0147L54.2043 42.7002L58.4869 42.8534L58.4823 43.1679L54.2 43.0147Z" fill="white"/>
<path d="M54.1819 44.273L54.1863 43.9585L58.4689 44.1117L58.4643 44.4262L54.1819 44.273Z" fill="white"/>
<path d="M91.3863 64.7303L83.1202 64.5431C82.2933 61.3402 82.6656 58.2905 83.3254 55.4802L91.5915 55.6674C90.7554 58.622 90.6848 61.7408 91.3863 64.7303Z" fill="#10B981"/>
<path d="M84.7417 57.483L84.7463 57.1685L89.0287 57.3216L89.0241 57.6362L84.7417 57.483Z" fill="white"/>
<path d="M84.7236 58.741L84.728 58.4265L89.0106 58.5797L89.006 58.8942L84.7236 58.741Z" fill="white"/>
<path d="M84.7056 59.9993L84.7102 59.6848L88.9925 59.8378L88.9882 60.1523L84.7056 59.9993Z" fill="white"/>
<path d="M84.6875 61.2574L84.6921 60.9429L88.9745 61.0958L88.9699 61.4104L84.6875 61.2574Z" fill="white"/>
<path d="M84.6694 62.5157L84.6738 62.2012L88.9564 62.3543L88.9518 62.6689L84.6694 62.5157Z" fill="white"/>
<path d="M82.4664 37.501L74.2002 37.3139C73.3734 34.1109 73.7457 31.0613 74.4055 28.251L82.6716 28.4381C81.8355 31.3928 81.7649 34.5116 82.4664 37.501Z" fill="#F0F0F0"/>
<path d="M75.8218 30.254L75.8262 29.9395L80.1088 30.0924L80.1042 30.407L75.8218 30.254Z" fill="white"/>
<path d="M75.8037 31.512L75.8081 31.1975L80.0905 31.3507L80.0861 31.6652L75.8037 31.512Z" fill="white"/>
<path d="M75.7856 32.7701L75.7902 32.4556L80.0726 32.6087L80.0682 32.9233L75.7856 32.7701Z" fill="white"/>
<path d="M75.7676 34.0284L75.772 33.7139L80.0546 33.867L80.05 34.1816L75.7676 34.0284Z" fill="white"/>
<path d="M75.7495 35.2865L75.7539 34.9719L80.0365 35.1251L80.0319 35.4396L75.7495 35.2865Z" fill="white"/>
<path d="M90.9407 58.0511C91.2257 57.9809 91.492 57.849 91.7206 57.6648C91.9492 57.4806 92.1346 57.2485 92.2638 56.9849C92.393 56.7213 92.4628 56.4326 92.4684 56.139C92.4739 55.8455 92.415 55.5543 92.2959 55.286L97.5079 50.4115L93.9022 49.5449L89.5055 54.3067C89.0681 54.5368 88.7302 54.9193 88.5559 55.3819C88.3817 55.8444 88.3831 56.3548 88.56 56.8163C88.7369 57.2779 89.077 57.6585 89.5157 57.8861C89.9545 58.1136 90.4615 58.1723 90.9407 58.0511Z" fill="#FFB6B6"/>
<path d="M93.6331 54.1247L91.2024 50.6975L100.332 41.2543L102.452 26.3695C102.557 25.6338 102.823 24.9301 103.23 24.3085C103.637 23.6869 104.177 23.1626 104.809 22.7728C105.442 22.383 106.153 22.1373 106.891 22.0531C107.63 21.9689 108.377 22.0483 109.082 22.2857C110.353 22.7158 111.402 23.6327 111.999 24.8354C112.595 26.038 112.69 27.428 112.262 28.7005L106.853 44.7481L93.6331 54.1247Z" fill="#9E9E9E"/>
<path d="M110.776 117.547L108.077 117.547L106.794 107.139L110.776 107.14L110.776 117.547Z" fill="#FFB6B6"/>
<path d="M112.228 122.671H110.313L109.971 120.863L109.096 122.671H104.018C103.774 122.671 103.537 122.593 103.341 122.449C103.145 122.305 103 122.101 102.928 121.869C102.855 121.637 102.859 121.387 102.938 121.157C103.018 120.927 103.169 120.728 103.369 120.59L107.424 117.789V115.962L111.69 116.216L112.228 122.671Z" fill="#2F2E41"/>
<path d="M127.423 114.802L125.053 116.091L118.951 107.563L122.449 105.659L127.423 114.802Z" fill="#FFB6B6"/>
<path d="M131.147 118.608L129.465 119.523L128.301 118.099L128.396 120.105L123.936 122.532C123.722 122.649 123.476 122.693 123.235 122.66C122.994 122.628 122.77 122.518 122.595 122.349C122.42 122.179 122.304 121.958 122.264 121.718C122.224 121.478 122.261 121.232 122.371 121.014L124.595 116.616L123.721 115.011L127.589 113.196L131.147 118.608Z" fill="#2F2E41"/>
<path d="M111.913 113.841H106.336V93.9842L102.884 81.0383C100.406 71.7802 99.7478 62.1294 100.945 52.6206L100.95 52.5817L100.98 52.5565C101.069 52.482 109.904 45.1762 115.493 50.7651C119.26 54.5323 115.721 68.0783 115.522 68.8218V92.1738L111.913 113.841Z" fill="#2F2E41"/>
<path d="M99.2468 56.2274L101.044 38.2543C100.811 37.7642 97.4495 34.6597 100.964 29.2013L104.76 20.2911L111.869 20.1807L111.899 20.2106C113.571 21.8794 114.804 23.936 115.489 26.1972C116.174 28.4584 116.288 30.8538 115.822 33.17L113.728 43.6438L115.543 50.9037L99.2468 56.2274Z" fill="#9E9E9E"/>
<path d="M108.586 94.0866L120.042 110.2L124.436 107.076L114.869 87.4148L108.586 94.0866Z" fill="#2F2E41"/>
<path d="M107.65 18.4799C111.275 18.4799 114.214 15.541 114.214 11.9157C114.214 8.29044 111.275 5.35156 107.65 5.35156C104.025 5.35156 101.086 8.29044 101.086 11.9157C101.086 15.541 104.025 18.4799 107.65 18.4799Z" fill="#FFB6B6"/>
<path opacity="0.1" d="M106.037 35.6582L107.834 46.4421L106.037 55.4286H102.442L104.076 46.4421L106.037 35.6582Z" fill="black"/>
<path d="M107.751 64.6878C107.97 64.4917 108.143 64.25 108.258 63.9799C108.373 63.7098 108.427 63.4177 108.417 63.1243C108.407 62.8309 108.332 62.5433 108.199 62.2817C108.066 62.0202 107.877 61.791 107.645 61.6104L109.948 54.856L106.359 55.7892L104.722 62.0603C104.445 62.4692 104.327 62.9658 104.391 63.4559C104.455 63.946 104.696 64.3956 105.07 64.7195C105.443 65.0434 105.922 65.2191 106.417 65.2132C106.911 65.2074 107.386 65.0204 107.751 64.6878Z" fill="#FFB6B6"/>
<path d="M108.278 59.956L104.52 58.077L108.128 45.4473L102.99 31.3174C102.736 30.619 102.639 29.8732 102.706 29.133C102.773 28.3929 103.001 27.6764 103.376 27.0346C103.751 26.3928 104.262 25.8414 104.874 25.4194C105.486 24.9975 106.183 24.7154 106.916 24.5932C108.24 24.374 109.598 24.689 110.69 25.4693C111.782 26.2495 112.52 27.4311 112.742 28.7549L115.526 45.4591L108.278 59.956Z" fill="#9E9E9E"/>
<path d="M160 122.432C160 122.464 159.994 122.495 159.982 122.524C159.97 122.552 159.953 122.579 159.931 122.601C159.909 122.623 159.882 122.64 159.853 122.652C159.825 122.664 159.794 122.67 159.762 122.67H30.4979C30.4349 122.67 30.3744 122.645 30.3299 122.601C30.2853 122.556 30.2603 122.495 30.2603 122.432C30.2603 122.369 30.2853 122.309 30.3299 122.264C30.3744 122.22 30.4349 122.195 30.4979 122.195H159.762C159.825 122.195 159.886 122.22 159.93 122.265C159.975 122.309 160 122.369 160 122.432Z" fill="#CACACA"/>
<path d="M133.18 11.5949C132.351 12.9393 130.597 13.532 129.041 13.2628C127.485 12.9936 126.133 11.9894 125.135 10.7662C124.136 9.54306 123.445 8.10329 122.766 6.6781C122.086 5.25288 121.398 3.81202 120.405 2.58482C119.411 1.3576 118.066 0.345653 116.513 0.0637932C115.667 -0.0896012 114.709 0.0116704 114.093 0.609863C113.667 1.05823 113.435 1.65572 113.446 2.27364C113.177 2.17897 112.889 2.15189 112.607 2.19481C112.325 2.23772 112.058 2.3493 111.83 2.51971C111.601 2.69013 111.418 2.91414 111.297 3.17201C111.175 3.42988 111.119 3.71368 111.133 3.99841C111.11 3.99797 111.087 3.99645 111.064 3.99645C108.169 2.35058 103.775 3.30669 103.775 5.104C102.187 5.104 100.245 6.67271 100.245 9.05482C103.53 9.05482 105.463 13.2635 103.546 16.2811C103.051 17.0508 102.505 17.7868 101.912 18.484H106.02C106.364 17.9895 106.572 17.4128 106.622 16.8122C106.773 17.3579 106.863 17.9185 106.891 18.484C106.891 18.484 118.111 19.9298 115.215 8.74597C115.407 8.7364 115.594 8.67991 115.758 8.58147C116.196 8.31791 116.434 7.7605 116.475 7.19488C116.584 7.22382 116.692 7.25268 116.799 7.28148C117.571 7.48988 118.373 7.7599 118.903 8.35876C119.798 9.37088 119.61 10.9071 119.935 12.2188C120.327 13.8006 121.5 15.0801 122.804 16.0587C124.204 17.1102 125.839 17.909 127.582 18.0748C129.326 18.2407 131.18 17.7106 132.388 16.4428C133.596 15.1751 134.017 13.1329 133.18 11.5949Z" fill="#2F2E41"/>
</g>
<defs>
<clipPath id="clip0_1384_67">
<rect width="160" height="122.671" fill="white"/>
</clipPath>
</defs>
</svg>
