<svg width="160" height="107" viewBox="0 0 160 107" fill="none" xmlns="http://www.w3.org/2000/svg">
<g clip-path="url(#clip0_1384_11)">
<path d="M101.621 59.2391C102.181 59.1219 102.673 58.7891 102.99 58.3123C103.307 57.8356 103.425 57.2531 103.317 56.6906C103.293 56.5663 103.258 56.4444 103.212 56.3264L109.029 51.3063L105.226 50.2292L100.285 55.1615C99.7662 55.4093 99.3655 55.8516 99.1696 56.3929C98.9738 56.9341 98.9986 57.5308 99.2387 58.0539C99.4426 58.4928 99.7896 58.8492 100.223 59.0646C100.656 59.2799 101.149 59.3415 101.621 59.2391Z" fill="#FFB6B6"/>
<path d="M139.394 94.8394L139.605 90.0802C141.809 88.9008 144.267 88.2778 146.766 88.2654C143.327 91.0806 143.757 96.5073 141.425 100.293C140.688 101.468 139.697 102.462 138.525 103.202C137.353 103.942 136.029 104.408 134.653 104.566L131.775 106.33C131.38 104.126 131.467 101.862 132.03 99.6945C132.593 97.5272 133.619 95.5078 135.036 93.7756C135.841 92.8117 136.764 91.9531 137.783 91.2201C138.473 93.0399 139.394 94.8394 139.394 94.8394Z" fill="#9E9E9E"/>
<path d="M131.978 103.881L129.371 103.881L128.132 93.8167L131.978 93.8168L131.978 103.881Z" fill="#FFB6B6"/>
<path d="M132.642 106.41L124.239 106.41V106.303C124.239 105.435 124.584 104.602 125.197 103.988C125.81 103.374 126.642 103.029 127.51 103.029H127.51L129.045 101.863L131.909 103.029L132.642 103.029L132.642 106.41Z" fill="#2F2E41"/>
<path d="M119.87 103.881L117.264 103.881L116.024 93.8167L119.87 93.8168L119.87 103.881Z" fill="#FFB6B6"/>
<path d="M120.534 106.41L112.131 106.41V106.303C112.131 105.435 112.476 104.602 113.089 103.988C113.703 103.374 114.534 103.029 115.402 103.029H115.402L116.937 101.863L119.801 103.029L120.535 103.029L120.534 106.41Z" fill="#2F2E41"/>
<path d="M118.742 48.8601L135.693 49.2844C138.913 51.0351 138.962 54.8242 137.907 59.3229C137.907 59.3229 138.263 61.9969 137.551 62.7099C136.838 63.423 136.482 63.423 136.838 64.6708C137.195 65.9186 135.313 67.9567 135.542 68.1855C135.77 68.4143 136.304 69.6621 136.304 69.6621L134.524 79.823C134.524 79.823 133.277 97.4709 132.921 97.8274C132.565 98.184 132.209 97.8274 132.565 98.7187C132.921 99.6101 133.277 99.2535 132.921 99.6101C132.606 99.9506 132.309 100.308 132.031 100.68H127.726C127.726 100.68 127.402 98.897 127.402 98.7187C127.402 98.5405 127.045 97.4709 127.045 97.2926C127.045 97.1144 127.36 96.7993 127.36 96.7993C127.469 96.4369 127.542 96.0648 127.58 95.6883C127.58 95.3318 128.648 81.6056 128.648 81.6056L126.511 63.7795L121.348 81.2491C121.348 81.2491 121.348 96.5796 120.992 96.9361C120.635 97.2927 120.635 97.1144 120.814 97.8274C120.992 98.5405 121.704 98.3622 121.17 98.897C120.635 99.4318 120.457 98.5405 120.635 99.4318L120.814 100.323L115.472 100.4C115.472 100.4 114.76 98.897 115.116 98.3622C115.472 97.8274 115.451 97.9734 115.016 97.0982C114.582 96.2231 114.404 96.0448 114.582 95.8666C114.76 95.6883 114.76 94.7401 114.76 94.7401L115.65 77.6839C115.65 77.6839 115.828 59.6795 115.828 59.1447C115.841 58.8695 115.791 58.595 115.68 58.3427V57.6168L116.362 55.0447L118.742 48.8601Z" fill="#2F2E41"/>
<path d="M101.426 53.4488L104.29 55.7618L119.908 43.6415L118.984 22.5466C118.106 23.2501 117.376 24.121 116.835 25.1089C116.295 26.0968 115.956 27.182 115.838 28.3019L113.162 40.2182L101.426 53.4488Z" fill="#9E9E9E"/>
<path d="M116.212 54.1889C121.74 54.8962 126.833 52.7532 131.645 51.1357C133.817 50.4055 136.005 51.1678 138.021 49.9329C137.149 41.3345 137.996 31.6492 139.848 21.3278C139.954 20.7435 139.844 20.1407 139.538 19.6318C139.232 19.1229 138.752 18.7427 138.187 18.5621L132.219 16.8478L130.381 14.8184L125.636 16.0245L123.974 19.0308L118.266 22.8926C117.932 23.1179 117.671 23.4347 117.514 23.805C117.356 24.1753 117.309 24.5833 117.377 24.98C119.092 34.6868 118.695 44.6499 116.212 54.1889Z" fill="#9E9E9E"/>
<path d="M133.856 56.8501C134.362 56.5844 134.745 56.1299 134.92 55.5846C135.095 55.0393 135.049 54.4469 134.792 53.9352C134.735 53.8222 134.668 53.7145 134.592 53.6134L138.82 47.1948L134.868 47.1975L131.459 53.2922C131.027 53.6724 130.762 54.2075 130.721 54.7817C130.68 55.3559 130.867 55.9231 131.24 56.3608C131.556 56.7273 131.987 56.9754 132.462 57.0643C132.937 57.1532 133.429 57.0777 133.856 56.8501Z" fill="#FFB6B6"/>
<path d="M132.661 50.8581L135.249 54.1888L144.306 40.6807L143.522 26.9573C143.422 25.2094 142.883 23.5152 141.953 22.0323C141.024 20.5493 139.735 19.3258 138.206 18.4756L138.391 39.5705L132.661 50.8581Z" fill="#9E9E9E"/>
<path d="M126.159 14.0331C129.358 14.0331 131.951 11.4371 131.951 8.23468C131.951 5.03231 129.358 2.43628 126.159 2.43628C122.96 2.43628 120.367 5.03231 120.367 8.23468C120.367 11.4371 122.96 14.0331 126.159 14.0331Z" fill="#FFB6B6"/>
<path d="M122.469 4.83178C122.693 4.83354 122.916 4.86284 123.133 4.91904C123.561 5.02198 123.995 5.0949 124.433 5.13727C125.774 5.26356 127.033 5.83603 128.011 6.76325C128.989 7.69046 129.628 8.91894 129.826 10.2525C130.163 9.95872 130.929 9.41836 131.556 9.92056C131.566 9.92853 131.572 9.93264 131.594 9.92216C132.011 9.72419 132.751 7.28733 132.773 5.14172C132.785 4.0029 132.606 2.54869 131.686 2.08818L131.637 2.06392L131.625 2.01118C131.563 1.75501 130.876 1.31773 129.683 0.977385C127.514 0.358886 124.281 -0.845964 122.46 0.92718C122.322 1.52495 121.874 2.80418 121.421 2.94918C120.92 3.10967 120.487 3.24818 120.419 3.86394C120.362 4.74022 120.366 5.61942 120.431 6.49513C120.601 5.95927 120.935 5.49026 121.385 5.15413C121.705 4.93841 122.083 4.82593 122.469 4.83178Z" fill="#2F2E41"/>
<path d="M160 106.447C160 106.475 159.994 106.504 159.983 106.531C159.972 106.558 159.956 106.582 159.936 106.602C159.915 106.623 159.891 106.639 159.864 106.65C159.838 106.661 159.809 106.667 159.78 106.667H0.219946C0.161613 106.667 0.105671 106.644 0.064423 106.602C0.0231752 106.561 0 106.505 0 106.447C0 106.388 0.0231752 106.332 0.064423 106.291C0.105671 106.25 0.161613 106.226 0.219946 106.226H159.78C159.809 106.226 159.838 106.232 159.864 106.243C159.891 106.254 159.915 106.27 159.936 106.291C159.956 106.311 159.972 106.335 159.983 106.362C159.994 106.389 160 106.418 160 106.447Z" fill="#CCCCCC"/>
<path d="M66.0347 18.712L44.2942 23.6088C43.7118 23.7407 43.2053 24.0985 42.886 24.6038C42.5667 25.1091 42.4606 25.7205 42.5911 26.304L48.5525 52.8325L74.0962 47.079C74.3061 47.0325 74.4982 46.9264 74.6494 46.7734L68.7267 20.4171C68.5949 19.834 68.2375 19.3269 67.7328 19.0073C67.2282 18.6876 66.6175 18.5814 66.0347 18.712Z" fill="#E6E6E6"/>
<path d="M58.1376 22.365L46.2233 25.0485C45.6928 25.1686 45.2316 25.4943 44.9408 25.9543C44.6499 26.4143 44.5532 26.971 44.6717 27.5024L50.2766 52.4443L72.9632 47.3344L68.8814 29.1702C68.3555 26.8429 66.9291 24.8193 64.915 23.5435C62.9008 22.2677 60.4635 21.8439 58.1376 22.365Z" fill="white"/>
<path d="M68.6004 45.9898L53.6439 49.3586C53.5797 49.3729 53.5191 49.3998 53.4653 49.4376C53.4116 49.4754 53.3658 49.5235 53.3306 49.579C53.2954 49.6346 53.2715 49.6965 53.2603 49.7613C53.2491 49.8261 53.2507 49.8925 53.2651 49.9567C53.2795 50.0208 53.3065 50.0815 53.3443 50.1353C53.3822 50.189 53.4303 50.2348 53.4859 50.2699C53.5414 50.305 53.6033 50.3288 53.6681 50.3399C53.7328 50.351 53.7991 50.3493 53.8632 50.3347L68.8197 46.9659C68.8839 46.9516 68.9446 46.9248 68.9984 46.887C69.0522 46.8492 69.0981 46.8011 69.1333 46.7456C69.1685 46.69 69.1924 46.628 69.2037 46.5632C69.2149 46.4984 69.2133 46.4319 69.1989 46.3677C69.1845 46.3035 69.1575 46.2428 69.1196 46.189C69.0817 46.1353 69.0336 46.0895 68.978 46.0544C68.9224 46.0193 68.8604 45.9955 68.7956 45.9845C68.7308 45.9734 68.6645 45.9752 68.6004 45.9898Z" fill="#E4E4E4"/>
<path d="M68.1668 44.0596L53.2102 47.4284C53.0808 47.4575 52.9682 47.537 52.8973 47.6492C52.8264 47.7614 52.8029 47.8973 52.832 48.0269C52.8611 48.1564 52.9405 48.2691 53.0526 48.3401C53.1647 48.4111 53.3004 48.4346 53.4298 48.4055L68.3863 45.0367C68.4504 45.0222 68.511 44.9953 68.5647 44.9574C68.6184 44.9195 68.6641 44.8714 68.6992 44.8158C68.7343 44.7603 68.7582 44.6983 68.7694 44.6335C68.7806 44.5687 68.7789 44.5024 68.7645 44.4382C68.7501 44.374 68.7232 44.3134 68.6854 44.2596C68.6475 44.2059 68.5995 44.1601 68.544 44.1249C68.4884 44.0898 68.4266 44.0659 68.3619 44.0547C68.2971 44.0435 68.2308 44.0451 68.1668 44.0596Z" fill="#E4E4E4"/>
<path d="M59.2599 44.0386L52.7765 45.499C52.6472 45.5281 52.5347 45.6074 52.4639 45.7195C52.393 45.8317 52.3696 45.9674 52.3987 46.0968C52.4277 46.2262 52.507 46.3388 52.619 46.4097C52.731 46.4807 52.8665 46.5042 52.9958 46.475L59.4792 45.0147C59.5434 45.0004 59.6041 44.9736 59.6579 44.9358C59.7117 44.898 59.7576 44.85 59.7928 44.7944C59.828 44.7388 59.8519 44.6769 59.8632 44.612C59.8744 44.5472 59.8728 44.4808 59.8584 44.4166C59.8439 44.3524 59.817 44.2916 59.7791 44.2379C59.7412 44.1841 59.6931 44.1384 59.6375 44.1033C59.5819 44.0682 59.5199 44.0444 59.4551 44.0333C59.3903 44.0222 59.324 44.024 59.2599 44.0386Z" fill="#E4E4E4"/>
<path d="M66.825 38.0884L51.8684 41.4572C51.8043 41.4716 51.7437 41.4986 51.69 41.5365C51.6363 41.5743 51.5906 41.6224 51.5555 41.678C51.4846 41.7903 51.4611 41.9261 51.4902 42.0557C51.5193 42.1852 51.5987 42.2979 51.7108 42.3689C51.8229 42.4399 51.9586 42.4634 52.088 42.4343L67.0445 39.0655C67.1086 39.051 67.1692 39.0241 67.2229 38.9862C67.2766 38.9483 67.3223 38.9002 67.3574 38.8447C67.3925 38.7891 67.4164 38.7271 67.4276 38.6623C67.4388 38.5975 67.4371 38.5312 67.4227 38.467C67.4083 38.4029 67.3814 38.3422 67.3436 38.2884C67.3057 38.2347 67.2577 38.1889 67.2022 38.1538C67.1467 38.1186 67.0848 38.0947 67.02 38.0835C66.9553 38.0723 66.889 38.0739 66.825 38.0884Z" fill="#E4E4E4"/>
<path d="M66.3914 36.159L51.4349 39.5279C51.3708 39.5422 51.3101 39.569 51.2563 39.6068C51.2026 39.6446 51.1568 39.6927 51.1216 39.7482C51.0864 39.8038 51.0625 39.8657 51.0513 39.9305C51.0401 39.9954 51.0417 40.0617 51.0561 40.1259C51.0706 40.1901 51.0975 40.2508 51.1353 40.3045C51.1732 40.3583 51.2213 40.404 51.2769 40.4391C51.3324 40.4742 51.3943 40.498 51.4591 40.5091C51.5238 40.5203 51.5901 40.5185 51.6542 40.5039L66.6108 37.1351C66.6748 37.1208 66.7354 37.0939 66.7891 37.056C66.8428 37.0182 66.8885 36.9702 66.9237 36.9146C66.9588 36.8591 66.9827 36.7972 66.9939 36.7324C67.0051 36.6676 67.0034 36.6013 66.989 36.5372C66.9746 36.473 66.9477 36.4124 66.9099 36.3587C66.872 36.3049 66.824 36.2592 66.7685 36.2241C66.713 36.189 66.6511 36.1652 66.5864 36.154C66.5217 36.1428 66.4555 36.1445 66.3914 36.159Z" fill="#E4E4E4"/>
<path d="M57.4844 36.1375L51.001 37.5978C50.9369 37.6122 50.8763 37.6392 50.8226 37.677C50.7689 37.7149 50.7232 37.763 50.6881 37.8186C50.653 37.8742 50.6291 37.9361 50.6179 38.0009C50.6067 38.0657 50.6084 38.1321 50.6228 38.1962C50.6372 38.2604 50.6641 38.3211 50.702 38.3748C50.7398 38.4286 50.7878 38.4743 50.8433 38.5095C50.8989 38.5447 50.9607 38.5685 51.0255 38.5797C51.0902 38.591 51.1565 38.5893 51.2206 38.5749L57.704 37.1145C57.7681 37.1001 57.8287 37.0732 57.8824 37.0353C57.936 36.9974 57.9818 36.9493 58.0169 36.8937C58.052 36.8382 58.0758 36.7762 58.087 36.7114C58.0982 36.6466 58.0966 36.5802 58.0822 36.5161C58.0677 36.4519 58.0408 36.3912 58.003 36.3375C57.9652 36.2837 57.9171 36.238 57.8616 36.2028C57.8061 36.1677 57.7442 36.1438 57.6795 36.1326C57.6148 36.1214 57.5485 36.123 57.4844 36.1375Z" fill="#E4E4E4"/>
<path d="M65.0493 30.187L50.0928 33.5558C49.9634 33.585 49.8508 33.6644 49.7799 33.7767C49.709 33.8889 49.6855 34.0247 49.7146 34.1543C49.7437 34.2839 49.823 34.3965 49.9351 34.4676C50.0472 34.5386 50.1829 34.5621 50.3123 34.5329L65.2689 31.1641C65.333 31.1497 65.3936 31.1227 65.4473 31.0848C65.501 31.047 65.5467 30.9989 65.5818 30.9433C65.6169 30.8877 65.6408 30.8258 65.652 30.761C65.6632 30.6962 65.6615 30.6298 65.6471 30.5656C65.6327 30.5015 65.6058 30.4408 65.5679 30.3871C65.5301 30.3333 65.482 30.2875 65.4265 30.2524C65.371 30.2172 65.3091 30.1934 65.2444 30.1821C65.1797 30.1709 65.1134 30.1726 65.0493 30.187Z" fill="#E6E6E6"/>
<path d="M64.6157 28.2578L49.6592 31.6266C49.5951 31.6411 49.5345 31.668 49.4808 31.7059C49.4271 31.7438 49.3814 31.7919 49.3463 31.8475C49.2754 31.9597 49.2519 32.0955 49.281 32.2251C49.3101 32.3547 49.3895 32.4674 49.5016 32.5384C49.6137 32.6094 49.7493 32.6329 49.8788 32.6037L64.8353 29.2349C64.8994 29.2205 64.96 29.1935 65.0137 29.1557C65.0674 29.1178 65.1131 29.0697 65.1482 29.0141C65.1833 28.9585 65.2072 28.8966 65.2184 28.8318C65.2296 28.767 65.2279 28.7006 65.2135 28.6364C65.1991 28.5723 65.1722 28.5116 65.1343 28.4579C65.0965 28.4041 65.0484 28.3583 64.9929 28.3232C64.9374 28.288 64.8755 28.2642 64.8108 28.2529C64.7461 28.2417 64.6798 28.2434 64.6157 28.2578Z" fill="#E6E6E6"/>
<path d="M55.7088 28.2361L49.2253 29.6964C49.0959 29.7256 48.9834 29.805 48.9125 29.9172C48.8415 30.0295 48.818 30.1653 48.8472 30.2949C48.8763 30.4244 48.9556 30.5371 49.0677 30.6081C49.1798 30.6791 49.3155 30.7026 49.4449 30.6735L55.9283 29.2132C55.9924 29.1987 56.053 29.1718 56.1067 29.1339C56.1604 29.096 56.2061 29.0479 56.2412 28.9924C56.2764 28.9368 56.3002 28.8748 56.3114 28.81C56.3226 28.7452 56.3209 28.6789 56.3065 28.6147C56.2921 28.5506 56.2652 28.4899 56.2274 28.4361C56.1895 28.3824 56.1415 28.3366 56.086 28.3015C56.0305 28.2663 55.9686 28.2424 55.9039 28.2312C55.8391 28.22 55.7728 28.2217 55.7088 28.2361Z" fill="#E6E6E6"/>
<path d="M22.6625 49.4922C22.5207 49.4923 22.3849 49.5488 22.2847 49.6491C22.1845 49.7494 22.1281 49.8855 22.1279 50.0273V105.364C22.1281 105.506 22.1845 105.642 22.2847 105.742C22.3849 105.843 22.5207 105.899 22.6625 105.899H91.9629C92.1046 105.899 92.2405 105.842 92.3407 105.742C92.4409 105.642 92.4972 105.506 92.4974 105.364V58.91C92.4972 58.7681 92.4409 58.6321 92.3407 58.5318C92.2405 58.4314 92.1046 58.375 91.9629 58.3748H52.189C51.7852 58.3751 51.3959 58.2245 51.0973 57.9525L42.1555 49.8185C41.9248 49.6083 41.6241 49.4919 41.3122 49.4922H22.6625Z" fill="#3F3D56"/>
<path d="M105.366 35.0187L68.2597 19.0474C67.2647 18.6205 66.1413 18.6062 65.1358 19.0075C64.1303 19.4089 63.3249 20.1931 62.8962 21.1882L43.4526 66.4673L87.0507 85.2326C87.4082 85.3878 87.8028 85.4366 88.1873 85.3733L107.505 40.3884C107.931 39.3923 107.945 38.2675 107.544 37.2609C107.144 36.2542 106.36 35.4478 105.366 35.0187Z" fill="#E6E6E6"/>
<path d="M89.8957 31.9673L69.5604 23.2146C68.6545 22.8258 67.6315 22.8125 66.7158 23.1777C65.8002 23.5429 65.0666 24.2568 64.676 25.1628L46.3953 67.7338L85.1167 84.4001L98.4297 53.3975C100.131 49.4222 100.189 44.9333 98.5887 40.9158C96.9888 36.8983 93.8626 33.6801 89.8957 31.9673Z" fill="white"/>
<path d="M80.1434 77.7799L54.6155 66.7923C54.5062 66.7451 54.3887 66.7198 54.2697 66.7181C54.1506 66.7164 54.0324 66.7382 53.9218 66.7822C53.8111 66.8263 53.7103 66.8917 53.6249 66.9748C53.5396 67.058 53.4715 67.1571 53.4245 67.2666C53.3774 67.3761 53.3524 67.4938 53.3509 67.613C53.3494 67.7322 53.3713 67.8505 53.4155 67.9612C53.4597 68.0719 53.5252 68.1728 53.6084 68.2581C53.6915 68.3434 53.7907 68.4114 53.9001 68.4583L79.428 79.4459C79.5373 79.4932 79.6549 79.5184 79.7739 79.5201C79.8929 79.5218 80.0112 79.5 80.1218 79.456C80.2324 79.4119 80.3333 79.3465 80.4186 79.2634C80.5039 79.1803 80.5721 79.0811 80.6191 78.9716C80.6661 78.8621 80.6911 78.7444 80.6926 78.6252C80.6942 78.506 80.6722 78.3877 80.6281 78.277C80.5839 78.1663 80.5183 78.0655 80.4352 77.9802C80.352 77.8949 80.2529 77.8268 80.1434 77.7799Z" fill="#E4E4E4"/>
<path d="M81.5581 74.4853L56.0302 63.4977C55.8093 63.4028 55.5598 63.3995 55.3365 63.4887C55.1133 63.5778 54.9345 63.7521 54.8396 63.9732C54.7446 64.1943 54.7413 64.4441 54.8303 64.6677C54.9192 64.8912 55.0933 65.0703 55.3141 65.1654L80.8419 76.153C80.9513 76.2001 81.0689 76.2251 81.1879 76.2267C81.307 76.2283 81.4251 76.2064 81.5357 76.1623C81.6463 76.1181 81.7471 76.0526 81.8324 75.9695C81.9177 75.8863 81.9859 75.7871 82.0329 75.6776C82.0799 75.5681 82.1049 75.4504 82.1065 75.3313C82.1081 75.2121 82.0862 75.0937 82.0421 74.983C81.998 74.8723 81.9326 74.7714 81.8495 74.686C81.7665 74.6006 81.6674 74.5324 81.5581 74.4853Z" fill="#E4E4E4"/>
<path d="M68.5102 64.9678L57.4443 60.2049C57.335 60.1577 57.2175 60.1326 57.0985 60.1309C56.9795 60.1293 56.8614 60.1511 56.7508 60.1952C56.6402 60.2393 56.5394 60.3047 56.4542 60.3878C56.3689 60.4709 56.3008 60.57 56.2538 60.6795C56.2068 60.7889 56.1818 60.9066 56.1803 61.0257C56.1787 61.1448 56.2006 61.2631 56.2447 61.3737C56.2888 61.4844 56.3543 61.5852 56.4374 61.6705C56.5204 61.7558 56.6195 61.8239 56.7289 61.8709L67.7948 66.6338C67.9041 66.681 68.0216 66.7061 68.1405 66.7078C68.2595 66.7094 68.3777 66.6876 68.4882 66.6435C68.5988 66.5995 68.6996 66.534 68.7849 66.4509C68.8701 66.3678 68.9382 66.2687 68.9852 66.1592C69.0322 66.0498 69.0572 65.9322 69.0588 65.813C69.0603 65.6939 69.0384 65.5756 68.9943 65.465C68.9502 65.3543 68.8847 65.2535 68.8017 65.1682C68.7186 65.0829 68.6195 65.0148 68.5102 64.9678Z" fill="#E4E4E4"/>
<path d="M85.9344 64.2941L60.4065 53.3066C60.1857 53.2118 59.9363 53.2087 59.7132 53.2979C59.4901 53.3871 59.3114 53.5613 59.2165 53.7823C59.1216 54.0033 59.1182 54.253 59.2071 54.4765C59.296 54.6999 59.4698 54.879 59.6904 54.9742L85.2183 65.9618C85.3277 66.0091 85.4453 66.0343 85.5645 66.036C85.6836 66.0378 85.802 66.0159 85.9127 65.9718C86.0234 65.9277 86.1244 65.8622 86.2098 65.779C86.2952 65.6958 86.3634 65.5966 86.4104 65.487C86.4575 65.3774 86.4825 65.2596 86.484 65.1403C86.4856 65.021 86.4636 64.9026 86.4194 64.7918C86.3752 64.681 86.3096 64.58 86.2264 64.4946C86.1432 64.4092 86.044 64.3411 85.9344 64.2941Z" fill="#E4E4E4"/>
<path d="M87.3485 61.0011L61.8206 50.0135C61.7113 49.9663 61.5938 49.941 61.4747 49.9393C61.3557 49.9376 61.2375 49.9594 61.1268 50.0034C61.0162 50.0475 60.9154 50.1129 60.83 50.196C60.7447 50.2791 60.6766 50.3783 60.6295 50.4878C60.5825 50.5973 60.5575 50.715 60.556 50.8342C60.5544 50.9534 60.5764 51.0717 60.6206 51.1824C60.6648 51.2931 60.7303 51.3939 60.8135 51.4792C60.8966 51.5645 60.9958 51.6326 61.1052 51.6795L86.6331 62.6671C86.7424 62.7143 86.8599 62.7396 86.979 62.7413C87.098 62.743 87.2162 62.7212 87.3269 62.6772C87.4375 62.6331 87.5384 62.5677 87.6237 62.4846C87.709 62.4014 87.7771 62.3023 87.8242 62.1928C87.8712 62.0833 87.8962 61.9656 87.8977 61.8464C87.8993 61.7272 87.8773 61.6089 87.8331 61.4982C87.7889 61.3875 87.7234 61.2866 87.6402 61.2013C87.5571 61.116 87.458 61.048 87.3485 61.0011Z" fill="#E4E4E4"/>
<path d="M74.3012 51.4819L63.2353 46.7189C63.0144 46.624 62.7649 46.6207 62.5416 46.7099C62.3183 46.799 62.1396 46.9733 62.0447 47.1944C61.9497 47.4155 61.9464 47.6653 62.0353 47.8889C62.1243 48.1124 62.2983 48.2915 62.5191 48.3866L73.5851 53.1495C73.6944 53.1967 73.812 53.2218 73.9311 53.2234C74.0502 53.225 74.1684 53.2031 74.279 53.159C74.3897 53.1149 74.4905 53.0494 74.5758 52.9662C74.6612 52.883 74.7293 52.7839 74.7763 52.6743C74.8234 52.5648 74.8484 52.4471 74.85 52.3279C74.8515 52.2086 74.8296 52.0903 74.7855 51.9795C74.7414 51.8688 74.6759 51.7679 74.5928 51.6825C74.5097 51.5971 74.4106 51.5289 74.3012 51.4819Z" fill="#E4E4E4"/>
<path d="M91.7257 50.8082L66.1978 39.8206C65.977 39.7259 65.7276 39.7229 65.5046 39.8121C65.2815 39.9013 65.1029 40.0755 65.008 40.2965C64.9132 40.5174 64.9097 40.767 64.9985 40.9905C65.0873 41.2139 65.2611 41.393 65.4817 41.4883L91.0095 52.4759C91.1189 52.523 91.2365 52.5481 91.3556 52.5497C91.4747 52.5514 91.5929 52.5295 91.7035 52.4853C91.8141 52.4412 91.915 52.3757 92.0003 52.2925C92.0857 52.2094 92.1538 52.1102 92.2008 52.0007C92.2478 51.8911 92.2729 51.7734 92.2744 51.6542C92.276 51.535 92.2541 51.4166 92.21 51.3059C92.1659 51.1951 92.1004 51.0942 92.0173 51.0088C91.9342 50.9234 91.8351 50.8552 91.7257 50.8082Z" fill="#10B981"/>
<path d="M93.1395 47.5151L67.6116 36.5275C67.3908 36.4327 67.1414 36.4296 66.9183 36.5188C66.6951 36.608 66.5165 36.7823 66.4216 37.0033C66.3267 37.2242 66.3233 37.4739 66.4122 37.6974C66.501 37.9209 66.6749 38.0999 66.8955 38.1952L92.4234 49.1828C92.5328 49.2303 92.6505 49.2557 92.7698 49.2575C92.8891 49.2594 93.0075 49.2377 93.1184 49.1936C93.2292 49.1495 93.3303 49.084 93.4159 49.0008C93.5014 48.9175 93.5697 48.8182 93.6168 48.7085C93.6639 48.5988 93.6889 48.4808 93.6904 48.3614C93.6919 48.242 93.6699 48.1235 93.6255 48.0126C93.5812 47.9018 93.5154 47.8008 93.432 47.7154C93.3486 47.63 93.2492 47.5619 93.1395 47.5151Z" fill="#10B981"/>
<path d="M80.0924 37.996L69.0265 33.2331C68.8057 33.1381 68.5561 33.1349 68.3329 33.224C68.1096 33.3132 67.9309 33.4875 67.8359 33.7086C67.741 33.9297 67.7376 34.1795 67.8266 34.403C67.9156 34.6266 68.0896 34.8056 68.3104 34.9008L79.3763 39.6637C79.4857 39.7108 79.6033 39.7359 79.7224 39.7375C79.8414 39.7392 79.9597 39.7173 80.0703 39.6732C80.1809 39.629 80.2818 39.5635 80.3671 39.4804C80.4524 39.3972 80.5206 39.298 80.5676 39.1885C80.6146 39.079 80.6396 38.9612 80.6412 38.842C80.6428 38.7228 80.6209 38.6044 80.5768 38.4937C80.5326 38.383 80.4672 38.282 80.3841 38.1966C80.301 38.1112 80.2019 38.0431 80.0924 37.996Z" fill="#10B981"/>
<path d="M52.5422 51.4647L30.8018 56.3615C30.2193 56.4934 29.7129 56.8512 29.3936 57.3565C29.0743 57.8617 28.9682 58.4732 29.0986 59.0566L35.0601 85.5852L60.6038 79.8317C60.8137 79.7851 61.0057 79.679 61.157 79.5261L55.2343 53.1698C55.1025 52.5867 54.7451 52.0796 54.2404 51.76C53.7357 51.4403 53.125 51.3341 52.5422 51.4647Z" fill="#E6E6E6"/>
<path d="M44.6451 55.1174L32.7308 57.801C32.2004 57.921 31.7392 58.2467 31.4483 58.7067C31.1575 59.1667 31.0607 59.7235 31.1793 60.2548L36.7842 85.1967L59.4707 80.0868L55.3889 61.9227C54.8631 59.5953 53.4367 57.5718 51.4225 56.296C49.4084 55.0202 46.971 54.5963 44.6451 55.1174Z" fill="white"/>
<path d="M55.108 78.7422L40.1514 82.1111C40.0873 82.1254 40.0266 82.1522 39.9729 82.19C39.9191 82.2279 39.8733 82.2759 39.8382 82.3315C39.803 82.387 39.7791 82.449 39.7679 82.5138C39.7566 82.5786 39.7583 82.645 39.7727 82.7091C39.7871 82.7733 39.814 82.834 39.8519 82.8877C39.8898 82.9415 39.9379 82.9872 39.9934 83.0223C40.049 83.0574 40.1109 83.0812 40.1756 83.0924C40.2404 83.1035 40.3067 83.1017 40.3708 83.0871L55.3273 79.7183C55.3915 79.7041 55.4522 79.6773 55.506 79.6395C55.5598 79.6016 55.6056 79.5536 55.6409 79.498C55.6761 79.4425 55.7 79.3805 55.7113 79.3156C55.7225 79.2508 55.7209 79.1844 55.7065 79.1202C55.692 79.056 55.6651 78.9953 55.6272 78.9415C55.5893 78.8877 55.5411 78.842 55.4855 78.8069C55.4299 78.7718 55.368 78.748 55.3032 78.7369C55.2384 78.7258 55.1721 78.7276 55.108 78.7422Z" fill="#E4E4E4"/>
<path d="M54.6743 76.812L39.7178 80.1808C39.5884 80.21 39.4758 80.2894 39.4049 80.4017C39.334 80.5139 39.3105 80.6497 39.3396 80.7793C39.3687 80.9089 39.448 81.0215 39.5601 81.0926C39.6722 81.1636 39.8079 81.1871 39.9374 81.1579L54.8939 77.7891C55.0233 77.76 55.1359 77.6805 55.2068 77.5683C55.2777 77.4561 55.3012 77.3202 55.2721 77.1906C55.243 77.0611 55.1636 76.9484 55.0515 76.8774C54.9394 76.8064 54.8037 76.7829 54.6743 76.812Z" fill="#E4E4E4"/>
<path d="M45.7675 76.7913L39.284 78.2516C39.22 78.2661 39.1595 78.293 39.1058 78.3308C39.0522 78.3687 39.0065 78.4167 38.9715 78.4722C38.9364 78.5277 38.9126 78.5896 38.9014 78.6544C38.8902 78.7191 38.8918 78.7854 38.9062 78.8495C38.9206 78.9136 38.9475 78.9742 38.9853 79.0279C39.0231 79.0816 39.0711 79.1273 39.1266 79.1624C39.182 79.1975 39.2438 79.2214 39.3085 79.2326C39.3731 79.2438 39.4394 79.2421 39.5034 79.2277L45.9868 77.7674C46.051 77.7531 46.1117 77.7263 46.1655 77.6885C46.2193 77.6507 46.2651 77.6026 46.3003 77.5471C46.3356 77.4915 46.3595 77.4296 46.3707 77.3647C46.382 77.2999 46.3804 77.2335 46.3659 77.1692C46.3515 77.105 46.3246 77.0443 46.2867 76.9906C46.2488 76.9368 46.2006 76.8911 46.145 76.856C46.0894 76.8208 46.0275 76.7971 45.9627 76.786C45.8979 76.7749 45.8315 76.7767 45.7675 76.7913Z" fill="#E4E4E4"/>
<path d="M53.3325 70.8411L38.376 74.2099C38.3119 74.2243 38.2513 74.2513 38.1976 74.2891C38.1439 74.327 38.0982 74.3751 38.0631 74.4307C37.9922 74.5429 37.9687 74.6788 37.9978 74.8083C38.0269 74.9379 38.1062 75.0506 38.2184 75.1216C38.3305 75.1926 38.4661 75.2161 38.5956 75.187L53.5521 71.8181C53.6815 71.789 53.7941 71.7096 53.865 71.5973C53.9359 71.4851 53.9594 71.3493 53.9303 71.2197C53.9012 71.0901 53.8218 70.9774 53.7097 70.9064C53.5976 70.8354 53.4619 70.8119 53.3325 70.8411Z" fill="#E4E4E4"/>
<path d="M52.899 68.9117L37.9424 72.2805C37.8783 72.2949 37.8176 72.3217 37.7639 72.3595C37.7101 72.3973 37.6644 72.4454 37.6292 72.5009C37.594 72.5565 37.5701 72.6184 37.5589 72.6832C37.5476 72.748 37.5493 72.8144 37.5637 72.8786C37.5781 72.9428 37.605 73.0035 37.6429 73.0572C37.6808 73.1109 37.7289 73.1567 37.7844 73.1918C37.84 73.2269 37.9019 73.2507 37.9667 73.2618C38.0314 73.2729 38.0977 73.2712 38.1618 73.2566L53.1183 69.8878C53.1824 69.8734 53.243 69.8466 53.2967 69.8087C53.3504 69.7709 53.3961 69.7228 53.4312 69.6673C53.4664 69.6118 53.4902 69.5499 53.5014 69.4851C53.5127 69.4203 53.511 69.354 53.4966 69.2899C53.4822 69.2257 53.4553 69.1651 53.4175 69.1113C53.3796 69.0576 53.3316 69.0119 53.2761 68.9768C53.2206 68.9417 53.1587 68.9179 53.094 68.9067C53.0293 68.8955 52.963 68.8972 52.899 68.9117Z" fill="#E4E4E4"/>
<path d="M43.992 68.8899L37.5085 70.3502C37.3791 70.3794 37.2666 70.4588 37.1957 70.571C37.1247 70.6833 37.1012 70.8191 37.1304 70.9487C37.1595 71.0782 37.2388 71.1909 37.3509 71.2619C37.463 71.3329 37.5987 71.3565 37.7281 71.3273L44.2115 69.867C44.341 69.8378 44.4535 69.7584 44.5244 69.6462C44.5954 69.5339 44.6189 69.3981 44.5897 69.2685C44.5606 69.139 44.4813 69.0263 44.3692 68.9553C44.2571 68.8843 44.1214 68.8607 43.992 68.8899Z" fill="#E4E4E4"/>
<path d="M51.5569 62.9397L36.6003 66.3085C36.5363 66.323 36.4756 66.3499 36.422 66.3878C36.3683 66.4257 36.3226 66.4738 36.2875 66.5293C36.2165 66.6416 36.193 66.7774 36.2222 66.907C36.2513 67.0366 36.3306 67.1492 36.4427 67.2202C36.5548 67.2912 36.6905 67.3148 36.8199 67.2856L51.7765 63.9168C51.8405 63.9023 51.9012 63.8754 51.9548 63.8375C52.0085 63.7996 52.0542 63.7515 52.0894 63.696C52.1245 63.6404 52.1483 63.5784 52.1595 63.5136C52.1707 63.4489 52.1691 63.3825 52.1547 63.3183C52.1402 63.2542 52.1133 63.1935 52.0755 63.1397C52.0377 63.086 51.9896 63.0402 51.9341 63.0051C51.8786 62.9699 51.8167 62.946 51.752 62.9348C51.6873 62.9236 51.621 62.9253 51.5569 62.9397Z" fill="#E6E6E6"/>
<path d="M51.1233 61.0105L36.1668 64.3793C36.1027 64.3938 36.0421 64.4207 35.9884 64.4586C35.9347 64.4965 35.889 64.5446 35.8539 64.6001C35.7829 64.7124 35.7594 64.8482 35.7886 64.9778C35.8177 65.1074 35.897 65.22 36.0091 65.291C36.1212 65.362 36.2569 65.3856 36.3863 65.3564L51.3429 61.9876C51.4723 61.9584 51.5848 61.879 51.6558 61.7668C51.7267 61.6545 51.7502 61.5187 51.7211 61.3891C51.6919 61.2596 51.6126 61.1469 51.5005 61.0759C51.3884 61.0049 51.2527 60.9814 51.1233 61.0105Z" fill="#E6E6E6"/>
<path d="M42.2163 60.9885L35.7329 62.4489C35.6035 62.478 35.4909 62.5574 35.42 62.6697C35.3491 62.7819 35.3256 62.9177 35.3547 63.0473C35.3838 63.1769 35.4632 63.2896 35.5753 63.3606C35.6874 63.4316 35.8231 63.4551 35.9525 63.4259L42.4359 61.9656C42.5 61.9512 42.5606 61.9242 42.6143 61.8864C42.668 61.8485 42.7137 61.8004 42.7488 61.7448C42.7839 61.6892 42.8078 61.6273 42.819 61.5625C42.8302 61.4977 42.8285 61.4313 42.8141 61.3672C42.7997 61.303 42.7728 61.2423 42.7349 61.1886C42.6971 61.1348 42.6491 61.0891 42.5935 61.0539C42.538 61.0187 42.4762 60.9949 42.4114 60.9837C42.3467 60.9724 42.2804 60.9741 42.2163 60.9885Z" fill="#E6E6E6"/>
<path d="M22.2033 64.0264C22.1331 64.0264 22.0636 64.0402 21.9987 64.0671C21.9339 64.0939 21.8749 64.1333 21.8253 64.183C21.7757 64.2327 21.7363 64.2917 21.7094 64.3566C21.6825 64.4215 21.6687 64.4911 21.6687 64.5614C21.6687 64.5814 21.6852 105.794 21.6852 105.794C21.6998 105.925 21.7621 106.045 21.8601 106.133C21.9581 106.221 22.0849 106.269 22.2163 106.269H96.66C96.7914 106.269 96.9183 106.221 97.0163 106.133C97.1143 106.045 97.1765 105.925 97.1911 105.794L101.825 64.6214C101.833 64.5466 101.826 64.4708 101.803 64.399C101.78 64.3272 101.742 64.2611 101.692 64.2049C101.642 64.1484 101.581 64.1033 101.512 64.0725C101.444 64.0417 101.369 64.026 101.294 64.0264L22.2033 64.0264Z" fill="#3F3D56"/>
<path d="M27.4565 66.3081C26.7013 66.3103 25.9772 66.6099 25.4408 67.1423C24.9045 67.6746 24.5989 68.3969 24.5901 69.1529L24.683 101.093C24.6797 101.472 24.7514 101.848 24.894 102.199C25.0366 102.55 25.2472 102.869 25.5137 103.138C25.7802 103.407 26.0974 103.621 26.4468 103.767C26.7962 103.913 27.171 103.988 27.5496 103.988H74.8059C80.2258 103.991 85.4567 101.994 89.498 98.3784C93.5393 94.7627 96.1072 89.7822 96.7104 84.3897L98.3863 69.4994C98.4315 69.0979 98.3915 68.6914 98.269 68.3065C98.1465 67.9215 97.9441 67.5668 97.6752 67.2656C97.4063 66.9644 97.077 66.7234 96.7086 66.5584C96.3403 66.3934 95.9413 66.3081 95.5378 66.3081H27.4565ZM99.8742 66.3081L99.8657 66.123H99.8742V66.3081Z" fill="#10B981"/>
<path d="M48.0986 90.2373H29.7921C29.6029 90.2373 29.4215 90.1621 29.2878 90.0282C29.154 89.8942 29.0789 89.7126 29.0789 89.5232C29.0789 89.3339 29.154 89.1522 29.2878 89.0183C29.4215 88.8844 29.6029 88.8092 29.7921 88.8092H48.0986C49.0184 88.7963 49.0276 90.2503 48.0986 90.2373Z" fill="#E4E4E4"/>
<path d="M72.7595 93.9724H29.7921C29.6029 93.9724 29.4215 93.8972 29.2878 93.7633C29.154 93.6294 29.0789 93.4477 29.0789 93.2583C29.0789 93.069 29.154 92.8873 29.2878 92.7534C29.4215 92.6195 29.6029 92.5443 29.7921 92.5443H72.7595C73.6793 92.5314 73.6885 93.9854 72.7595 93.9724Z" fill="#E4E4E4"/>
</g>
<defs>
<clipPath id="clip0_1384_11">
<rect width="160" height="106.667" fill="white"/>
</clipPath>
</defs>
</svg>
