<svg width="38" height="38" viewBox="0 0 38 38" fill="none" xmlns="http://www.w3.org/2000/svg">
<g clip-path="url(#clip0_69_1054)">
<path d="M18.9999 38C17.0751 38 15.1434 37.6785 13.2583 37.0444C12.6671 36.8455 12.349 36.2051 12.5479 35.6139C12.7467 35.0227 13.387 34.7045 13.9784 34.9036C15.6311 35.4595 17.3205 35.7412 19 35.7412C28.2311 35.7412 35.7412 28.1643 35.7412 18.8511C35.7413 9.7021 28.1978 2.25877 18.9256 2.25877C9.73557 2.25877 2.25877 9.7021 2.25877 18.8511C2.25877 22.0629 3.14858 25.1716 4.83209 27.8419L5.27094 28.5002C5.45218 28.7723 5.50688 29.1096 5.42049 29.425L4.22097 33.8058L8.74238 32.6491C9.34681 32.4943 9.96179 32.8591 10.1165 33.4633C10.2711 34.0677 9.9065 34.6828 9.30228 34.8374L2.89869 36.4755C2.50882 36.5753 2.09557 36.4601 1.81346 36.1732C1.53136 35.8862 1.42314 35.4711 1.52943 35.0831L3.10605 29.3249L2.94478 29.083C2.93973 29.0753 2.93461 29.0676 2.92964 29.0596C1.01309 26.0252 0 22.495 0 18.8511C0 13.799 1.96939 9.05877 5.5454 5.50354C9.11503 1.95448 13.8668 0 18.9255 0C23.9988 0 28.7751 1.94253 32.3743 5.46985C36.0021 9.025 38 13.7772 38 18.851C38 23.9336 36.0092 28.7351 32.3941 32.3708C28.7848 36.0008 24.0279 38 18.9999 38Z" fill="#087E14"/>
<path d="M29.6294 26.2048L29.9734 25.0713C30.0833 24.7484 29.953 24.3224 29.637 24.1298L24.643 21.3041C24.3269 21.1116 23.9078 21.1595 23.6329 21.4686L21.3509 23.9344C21.1723 24.0855 20.918 24.1472 20.6776 24.0441C19.8423 23.6682 18.0099 22.8261 16.6477 21.4639L16.648 21.4637C16.6291 21.4451 16.6108 21.4265 16.5921 21.408C16.5735 21.3892 16.5549 21.371 16.5364 21.3521L16.5362 21.3523C15.1158 19.9319 14.3317 18.1577 13.956 17.3225C13.8529 17.082 13.9146 16.8278 14.0657 16.6492L16.5314 14.3672C16.8406 14.0922 16.8884 13.6731 16.696 13.3571L13.8703 8.36308C13.6778 8.04706 13.2517 7.91673 12.9288 8.02672L11.7952 8.37065C10.5792 8.72156 9.48712 9.56008 8.84171 10.7765C8.05908 12.3364 7.79864 14.1847 8.65142 16.4381C10.0829 20.2378 12.0521 22.8401 13.6061 24.394C15.16 25.948 17.7624 27.9171 21.5621 29.3487C23.8154 30.2015 25.6636 29.9411 27.2237 29.1584C28.4399 28.513 29.2785 27.4208 29.6294 26.2048Z" fill="#1BA228" fill-opacity="0.3"/>
<path d="M24.2694 31.0076C24.2693 31.0076 24.2692 31.0076 24.2691 31.0076C23.2642 31.0076 22.2188 30.8047 21.1621 30.4048C16.995 28.8349 14.3185 26.7038 12.8073 25.1925C11.2961 23.6814 9.16497 21.0049 7.59442 16.8361C6.72243 14.5323 6.80229 12.3226 7.83215 10.27C7.83601 10.2623 7.83994 10.2546 7.84387 10.247C8.6038 8.81475 9.9266 7.7365 11.4739 7.2877L12.5867 6.95001C12.7724 6.88937 12.9683 6.85864 13.1691 6.85864C13.8519 6.85864 14.49 7.20985 14.8345 7.77524C14.8408 7.78563 14.8469 7.79617 14.853 7.80679L17.6717 12.7884C18.1373 13.5729 17.979 14.5823 17.2919 15.2019L15.1379 17.1952C15.5239 18.0367 16.2178 19.4293 17.317 20.536C17.3258 20.5444 17.3345 20.5529 17.343 20.5617L17.438 20.6567C17.4467 20.6652 17.4553 20.6739 17.4637 20.6827C18.5381 21.7492 19.996 22.486 20.8051 22.8613L22.7979 20.708C23.1692 20.2962 23.6928 20.0605 24.2369 20.0605C24.5798 20.0605 24.9162 20.1529 25.2114 20.3282L30.193 23.1469C30.2036 23.1529 30.2141 23.1591 30.2245 23.1655C30.969 23.6192 31.321 24.5817 31.0498 25.4132L30.7121 26.5261C30.2633 28.0735 29.185 29.3962 27.7528 30.1561C27.7452 30.1602 27.7376 30.1641 27.7298 30.1679C26.6193 30.725 25.455 31.0076 24.2694 31.0076ZM9.84526 11.2948C9.10559 12.7768 9.06054 14.3286 9.70773 16.0382C11.2121 20.0314 13.2962 22.4868 14.4047 23.5953C15.5132 24.7038 17.9687 26.788 21.9603 28.2918C22.7621 28.5952 23.5385 28.7488 24.2693 28.7488H24.2695C25.1077 28.7488 25.9046 28.5546 26.7052 28.1547C27.5967 27.6778 28.2667 26.8537 28.5443 25.8917C28.5458 25.8867 28.5471 25.8817 28.5487 25.8769L28.8245 24.9677L24.3018 22.4087L22.1799 24.7015C22.1486 24.7353 22.1153 24.7671 22.0801 24.7968C21.754 25.0724 21.3433 25.2244 20.9235 25.2244C20.6853 25.2244 20.4528 25.1765 20.2323 25.0819C20.2262 25.0793 20.2202 25.0766 20.2141 25.0739C19.4417 24.7264 17.3899 23.8032 15.8491 22.2623C15.8433 22.2565 15.8377 22.2508 15.8322 22.2449L15.7983 22.2113C15.7951 22.2081 15.7918 22.2049 15.7887 22.2017L15.7551 22.1678C15.7492 22.1623 15.7434 22.1565 15.7377 22.1509C14.1953 20.6085 13.3514 18.7317 12.9459 17.8297L12.9262 17.7858C12.9234 17.7797 12.9208 17.7737 12.9181 17.7676C12.653 17.1494 12.7623 16.4414 13.2034 15.9197C13.2331 15.8846 13.265 15.8514 13.2987 15.8201L15.5915 13.6982L13.0324 9.17545L12.1233 9.45133C12.1184 9.45281 12.1135 9.45429 12.1085 9.4557C11.1463 9.73328 10.3222 10.4031 9.84526 11.2948Z" fill="#087E14"/>
</g>
<defs>
<clipPath id="clip0_69_1054">
<rect width="38" height="38" fill="white"/>
</clipPath>
</defs>
</svg>
