<svg width="48" height="48" viewBox="0 0 48 48" fill="none" xmlns="http://www.w3.org/2000/svg">
<path d="M47.987 21.938C47.981 21.847 47.964 21.76 47.934 21.674C47.923 21.642 47.915 21.611 47.901 21.58C47.853 21.476 47.792 21.378 47.708 21.295C47.707 21.294 47.707 21.294 47.707 21.294L42 15.586V10C42 9.978 41.989 9.959 41.987 9.937C41.981 9.849 41.964 9.764 41.936 9.68C41.925 9.648 41.917 9.617 41.902 9.586C41.853 9.48 41.792 9.379 41.706 9.293L32.706 0.293C32.62 0.207 32.519 0.145 32.412 0.097C32.382 0.083 32.352 0.075 32.321 0.065C32.236 0.035 32.149 0.018 32.058 0.013C32.039 0.01 32.021 0 32 0H7C6.448 0 6 0.448 6 1V15.586L0.293 21.293C0.293 21.293 0.292 21.294 0.291 21.295C0.207 21.379 0.147 21.477 0.099 21.58C0.085 21.611 0.077 21.642 0.066 21.674C0.036 21.76 0.018 21.847 0.013 21.938C0.011 21.96 0 21.978 0 22V41C0 41.552 0.448 42 1 42H6V47C6 47.552 6.448 48 7 48H41C41.552 48 42 47.552 42 47V42H47C47.552 42 48 41.552 48 41V22C48 21.978 47.989 21.96 47.987 21.938ZM44.586 21H42V18.414L44.586 21ZM38.586 9H33V3.414L38.586 9ZM8 2H31V10C31 10.552 31.448 11 32 11H40V16V21H8V16V2ZM6 18.414V21H3.414L6 18.414ZM40 46H8V42H40V46ZM46 40H2V23H7H41H46V40Z" fill="#2C0064"/>
<path d="M14.5816 27.7661H18.3556L14.3096 36.3171V38.0001H20.5996V36.1641H16.5706L20.5996 27.6131V25.9641H14.5816V27.7661Z" fill="#2C0064"/>
<path d="M24.4755 25.9641H22.4355V38.0001H24.4755V25.9641Z" fill="#2C0064"/>
<path d="M32.5419 26.7201C32.2189 26.4431 31.8539 26.2471 31.4449 26.1341C31.0369 26.0211 30.6399 25.9641 30.2549 25.9641H26.9229V38.0001H28.9289V33.1721H30.3569C30.7759 33.1721 31.1839 33.0981 31.5809 32.9511C31.9779 32.8041 32.3288 32.5771 32.6348 32.2711C32.9408 31.9651 33.1879 31.5831 33.3739 31.1231C33.5609 30.6641 33.6539 30.1291 33.6539 29.5171C33.6539 28.8371 33.5489 28.2701 33.3399 27.8171C33.1319 27.3641 32.8659 26.9981 32.5419 26.7201ZM31.2589 31.0051C30.9529 31.3391 30.5619 31.5061 30.0859 31.5061H28.9299V27.6811H30.0859C30.5619 27.6811 30.9529 27.8281 31.2589 28.1231C31.5649 28.4181 31.7179 28.8881 31.7179 29.5341C31.7179 30.1801 31.5649 30.6701 31.2589 31.0051Z" fill="#2C0064"/>
</svg>
