<svg width="200" height="200" viewBox="0 0 200 200" fill="none" xmlns="http://www.w3.org/2000/svg">
<path d="M25 37.5V162.44" stroke="black" stroke-width="8" stroke-linecap="round"/>
<path d="M175 75V162.5" stroke="black" stroke-width="8" stroke-linecap="round" stroke-linejoin="round"/>
<path d="M50 12.5H112.5" stroke="black" stroke-width="8" stroke-linecap="round" stroke-linejoin="round"/>
<path d="M50 187.5H150" stroke="black" stroke-width="8" stroke-linecap="round"/>
<path d="M175 162.5C175.068 174.986 162.5 187.5 150 187.5" stroke="black" stroke-width="8" stroke-linecap="round" stroke-linejoin="round"/>
<path d="M25 162.5C25 175 37.5 187.5 50 187.5" stroke="black" stroke-width="8" stroke-linecap="round" stroke-linejoin="round"/>
<path d="M25 37.4817C25 24.9998 37.5 12.7782 50 12.4998" stroke="black" stroke-width="8" stroke-linecap="round" stroke-linejoin="round"/>
<path d="M174.932 75.0563L112.5 12.5" stroke="black" stroke-width="8" stroke-linecap="round" stroke-linejoin="round"/>
<path d="M112.5 50C112.538 62.4321 125.05 75 137.5 75" stroke="black" stroke-width="8" stroke-linecap="round" stroke-linejoin="round"/>
<path d="M112.5 50V12.5" stroke="black" stroke-width="8" stroke-linecap="round" stroke-linejoin="round"/>
<path d="M137.5 75H175" stroke="black" stroke-width="8" stroke-linecap="round" stroke-linejoin="round"/>
<path d="M105.424 155.527L137.138 118.84" stroke="#00B368" stroke-width="7" stroke-linecap="round" stroke-linejoin="round"/>
<path d="M63.7676 136.695L80.0726 155.527L111.786 118.84" stroke="black" stroke-width="7" stroke-linecap="round" stroke-linejoin="round"/>
</svg>
