<svg width="357" height="326" viewBox="0 0 357 326" fill="none" xmlns="http://www.w3.org/2000/svg">
<g clip-path="url(#clip0_1089_197)">
<path d="M217.797 217.315H139.203C138.928 217.315 138.665 217.205 138.471 217.011C138.276 216.816 138.167 216.552 138.167 216.276V129.618C138.167 129.342 138.276 129.078 138.471 128.884C138.665 128.689 138.928 128.579 139.203 128.579H217.797C218.072 128.579 218.335 128.689 218.53 128.884C218.724 129.078 218.833 129.342 218.834 129.618V216.276C218.833 216.552 218.724 216.816 218.53 217.011C218.335 217.205 218.072 217.315 217.797 217.315Z" fill="white"/>
<path d="M217.797 217.315H139.203C138.928 217.315 138.665 217.205 138.471 217.011C138.276 216.816 138.167 216.552 138.167 216.276V129.618C138.167 129.342 138.276 129.078 138.471 128.884C138.665 128.689 138.928 128.579 139.203 128.579H217.797C218.072 128.579 218.335 128.689 218.53 128.884C218.724 129.078 218.833 129.342 218.834 129.618V216.276C218.833 216.552 218.724 216.816 218.53 217.011C218.335 217.205 218.072 217.315 217.797 217.315ZM139.203 128.995C139.038 128.995 138.88 129.06 138.764 129.177C138.647 129.294 138.581 129.453 138.581 129.618V216.276C138.581 216.442 138.647 216.6 138.764 216.717C138.88 216.834 139.038 216.9 139.203 216.9H217.797C217.962 216.9 218.12 216.834 218.236 216.717C218.353 216.6 218.419 216.442 218.419 216.276V129.618C218.419 129.453 218.353 129.294 218.236 129.177C218.12 129.06 217.962 128.995 217.797 128.995H139.203Z" fill="#3F3D56"/>
<path d="M173.108 161.621H153.615C153.341 161.621 153.077 161.512 152.883 161.317C152.688 161.122 152.579 160.858 152.579 160.582V141.048C152.579 140.772 152.688 140.508 152.883 140.313C153.077 140.119 153.341 140.009 153.615 140.009H173.108C173.383 140.009 173.647 140.119 173.841 140.313C174.036 140.508 174.145 140.772 174.145 141.048V160.582C174.145 160.858 174.036 161.122 173.841 161.317C173.647 161.512 173.383 161.621 173.108 161.621ZM153.615 140.424C153.451 140.425 153.292 140.49 153.176 140.607C153.059 140.724 152.994 140.883 152.993 141.048V160.582C152.994 160.748 153.059 160.906 153.176 161.023C153.292 161.14 153.451 161.206 153.615 161.206H173.108C173.273 161.206 173.431 161.14 173.548 161.023C173.665 160.906 173.73 160.748 173.73 160.582V141.048C173.73 140.883 173.665 140.724 173.548 140.607C173.431 140.49 173.273 140.425 173.108 140.424H153.615Z" fill="#F2F2F2"/>
<path d="M167.509 164.011H148.017C147.769 164.011 147.532 163.912 147.357 163.737C147.182 163.562 147.084 163.324 147.083 163.076V143.542C147.084 143.294 147.182 143.056 147.357 142.881C147.532 142.705 147.769 142.607 148.017 142.606H167.509C167.757 142.607 167.994 142.705 168.169 142.881C168.344 143.056 168.442 143.294 168.443 143.542V163.076C168.442 163.324 168.344 163.562 168.169 163.737C167.994 163.912 167.757 164.011 167.509 164.011Z" fill="#10B981"/>
<path d="M208.984 173.571H148.017C147.894 173.571 147.772 173.547 147.659 173.5C147.545 173.453 147.442 173.384 147.356 173.297C147.269 173.21 147.2 173.107 147.153 172.994C147.106 172.88 147.082 172.758 147.082 172.635C147.082 172.512 147.106 172.391 147.153 172.277C147.2 172.163 147.269 172.06 147.356 171.973C147.442 171.887 147.545 171.818 147.659 171.771C147.772 171.724 147.894 171.7 148.017 171.7H208.984C209.231 171.7 209.468 171.799 209.643 171.974C209.818 172.149 209.917 172.387 209.917 172.635C209.917 172.883 209.818 173.121 209.643 173.297C209.468 173.472 209.231 173.571 208.984 173.571Z" fill="#CCCCCC"/>
<path d="M194.26 180.013H148.017C147.894 180.013 147.772 179.989 147.659 179.942C147.545 179.895 147.442 179.827 147.356 179.74C147.269 179.653 147.2 179.55 147.153 179.436C147.106 179.322 147.082 179.201 147.082 179.078C147.082 178.955 147.106 178.833 147.153 178.719C147.2 178.606 147.269 178.503 147.356 178.416C147.442 178.329 147.545 178.26 147.659 178.213C147.772 178.166 147.894 178.142 148.017 178.143H194.26C194.508 178.143 194.745 178.241 194.92 178.416C195.095 178.592 195.193 178.83 195.193 179.078C195.193 179.326 195.095 179.564 194.92 179.739C194.745 179.914 194.508 180.013 194.26 180.013Z" fill="#CCCCCC"/>
<path d="M208.776 149.88H181.818C181.57 149.88 181.333 149.781 181.158 149.606C180.983 149.431 180.885 149.193 180.885 148.945C180.885 148.697 180.983 148.459 181.158 148.283C181.333 148.108 181.57 148.01 181.818 148.01H208.776C208.899 148.009 209.02 148.033 209.134 148.08C209.247 148.127 209.35 148.196 209.437 148.283C209.524 148.37 209.593 148.473 209.64 148.586C209.687 148.7 209.711 148.822 209.711 148.945C209.711 149.068 209.687 149.189 209.64 149.303C209.593 149.417 209.524 149.52 209.437 149.607C209.35 149.693 209.247 149.762 209.134 149.809C209.02 149.856 208.899 149.88 208.776 149.88Z" fill="#10B981"/>
<path d="M202.048 156.322H181.818C181.57 156.322 181.333 156.223 181.158 156.048C180.983 155.873 180.885 155.635 180.885 155.387C180.885 155.139 180.983 154.901 181.158 154.726C181.333 154.55 181.57 154.452 181.818 154.452H202.048C202.296 154.452 202.533 154.55 202.708 154.726C202.883 154.901 202.981 155.139 202.981 155.387C202.981 155.635 202.883 155.873 202.708 156.048C202.533 156.223 202.296 156.322 202.048 156.322Z" fill="#10B981"/>
<path d="M208.984 186.455H148.017C147.769 186.455 147.532 186.357 147.357 186.181C147.182 186.006 147.083 185.768 147.083 185.52C147.083 185.272 147.182 185.034 147.357 184.859C147.532 184.683 147.769 184.585 148.017 184.585H208.984C209.106 184.584 209.228 184.608 209.341 184.655C209.455 184.702 209.558 184.771 209.645 184.858C209.732 184.945 209.8 185.048 209.847 185.162C209.894 185.275 209.919 185.397 209.919 185.52C209.919 185.643 209.894 185.765 209.847 185.878C209.8 185.992 209.732 186.095 209.645 186.182C209.558 186.269 209.455 186.338 209.341 186.384C209.228 186.431 209.106 186.455 208.984 186.455Z" fill="#CCCCCC"/>
<path d="M194.26 192.897H148.017C147.769 192.897 147.532 192.799 147.357 192.623C147.182 192.448 147.083 192.21 147.083 191.962C147.083 191.714 147.182 191.476 147.357 191.301C147.532 191.125 147.769 191.027 148.017 191.027H194.26C194.383 191.027 194.505 191.051 194.618 191.097C194.731 191.144 194.835 191.213 194.921 191.3C195.008 191.387 195.077 191.49 195.124 191.604C195.171 191.717 195.195 191.839 195.195 191.962C195.195 192.085 195.171 192.207 195.124 192.32C195.077 192.434 195.008 192.537 194.921 192.624C194.835 192.711 194.731 192.78 194.618 192.827C194.505 192.873 194.383 192.897 194.26 192.897Z" fill="#CCCCCC"/>
<path d="M208.984 199.34H148.017C147.894 199.34 147.772 199.316 147.659 199.269C147.545 199.222 147.442 199.153 147.356 199.066C147.269 198.979 147.2 198.876 147.153 198.763C147.106 198.649 147.082 198.527 147.082 198.404C147.082 198.281 147.106 198.16 147.153 198.046C147.2 197.932 147.269 197.829 147.356 197.742C147.442 197.656 147.545 197.587 147.659 197.54C147.772 197.493 147.894 197.469 148.017 197.469H208.984C209.231 197.469 209.468 197.568 209.643 197.743C209.818 197.919 209.917 198.156 209.917 198.404C209.917 198.652 209.818 198.89 209.643 199.066C209.468 199.241 209.231 199.34 208.984 199.34Z" fill="#CCCCCC"/>
<path d="M208.984 205.782H148.017C147.769 205.782 147.532 205.683 147.357 205.508C147.182 205.332 147.083 205.095 147.083 204.847C147.083 204.599 147.182 204.361 147.357 204.185C147.532 204.01 147.769 203.911 148.017 203.911H208.984C209.231 203.911 209.468 204.01 209.643 204.185C209.818 204.361 209.917 204.599 209.917 204.847C209.917 205.095 209.818 205.332 209.643 205.508C209.468 205.683 209.231 205.782 208.984 205.782Z" fill="#CCCCCC"/>
<path d="M121.779 255.704C121.781 267.912 118.115 279.838 111.257 289.928C104.399 300.018 94.6685 307.805 83.3319 312.273C82.4427 312.631 81.537 312.963 80.6273 313.271C79.611 313.62 78.5838 313.941 77.5457 314.232C76.8244 314.434 76.0964 314.622 75.3615 314.799C64.2987 317.456 52.7152 316.961 41.9183 313.37C41.07 313.087 40.2299 312.783 39.398 312.466C38.2793 312.035 37.1729 311.571 36.0869 311.074C36.005 311.041 35.9271 311.004 35.8492 310.968C35.423 310.77 35.0092 310.573 34.5871 310.364H34.583C34.0052 310.085 33.4328 309.794 32.866 309.493C31.5628 308.803 30.2883 308.068 29.0426 307.288C28.3951 306.885 27.7572 306.468 27.1289 306.035C17.2391 299.344 9.53986 289.877 4.9957 278.819C0.451538 267.762 -0.735404 255.607 1.5836 243.877C3.90259 232.146 9.6244 221.363 18.0321 212.877C26.4398 204.391 37.1594 198.581 48.8479 196.173C49.9174 195.951 50.9979 195.76 52.0893 195.598C52.7737 195.492 53.4663 195.401 54.1588 195.323C54.6547 195.266 55.1505 195.212 55.6545 195.171H55.6586C57.0069 195.048 58.3674 194.971 59.7402 194.941C59.9287 194.937 60.1172 194.933 60.3098 194.929C60.4163 194.929 60.5229 194.925 60.6294 194.929H60.6335C60.7974 194.925 60.9614 194.925 61.1294 194.925C61.8178 194.925 62.5063 194.937 63.1906 194.962C64.6987 195.011 66.1903 195.115 67.6656 195.274C68.5179 195.364 69.358 195.475 70.1981 195.598C70.2923 195.615 70.3907 195.627 70.485 195.643C70.7636 195.689 71.0464 195.734 71.325 195.783C71.9151 195.878 72.5011 195.988 73.0871 196.108C73.6363 196.218 74.1813 196.333 74.7263 196.457C76.7407 196.917 78.7295 197.483 80.6847 198.153C93.9354 202.692 105.217 211.676 112.624 223.585C112.833 223.918 113.038 224.255 113.239 224.596C113.394 224.85 113.542 225.105 113.689 225.364C113.743 225.45 113.792 225.536 113.837 225.622C113.87 225.672 113.894 225.721 113.923 225.77C114.193 226.242 114.456 226.723 114.71 227.203C119.366 235.978 121.794 245.766 121.779 255.704Z" fill="white"/>
<path d="M61.1358 316.895C54.561 316.895 48.029 315.836 41.7893 313.76C40.9847 313.491 40.1552 313.193 39.2528 312.85C38.1142 312.412 36.9924 311.94 35.9167 311.448C35.8451 311.419 35.7601 311.38 35.675 311.339C35.2671 311.151 34.8683 310.961 34.4627 310.76L34.4051 310.734C33.8297 310.456 33.2473 310.16 32.6742 309.856C31.3689 309.165 30.0738 308.418 28.8254 307.636C28.1757 307.232 27.5265 306.807 26.8968 306.374C16.9409 299.637 9.19021 290.105 4.61592 278.973C0.0416287 267.841 -1.15287 255.604 1.18207 243.795C3.51701 231.986 9.27756 221.13 17.742 212.587C26.2064 204.044 36.9982 198.194 48.7654 195.771C49.8383 195.548 50.9367 195.354 52.0295 195.192C52.6768 195.091 53.3789 194.998 54.113 194.915C54.6122 194.857 55.1126 194.803 55.6214 194.762C56.9717 194.639 58.3544 194.561 59.7312 194.53L60.4112 194.517C60.4891 194.516 60.567 194.516 60.6449 194.518C60.7908 194.514 60.958 194.514 61.1294 194.514C61.8227 194.514 62.5212 194.527 63.2054 194.551C64.7169 194.601 66.2327 194.706 67.7094 194.865C68.4913 194.948 69.3249 195.055 70.2574 195.192L70.6514 195.254C70.8992 195.294 71.1494 195.335 71.3963 195.379C71.9277 195.464 72.493 195.568 73.1686 195.705C73.7203 195.817 74.2684 195.932 74.8166 196.056C76.8451 196.52 78.848 197.09 80.8172 197.764C94.1504 202.347 105.504 211.388 112.972 223.368C113.182 223.702 113.388 224.042 113.592 224.387C113.746 224.639 113.896 224.897 114.045 225.16C114.093 225.237 114.144 225.325 114.191 225.414C114.214 225.45 114.234 225.486 114.254 225.522L114.277 225.563C114.535 226.013 114.794 226.486 115.072 227.011C119.103 234.626 121.484 243.008 122.059 251.608C122.634 260.209 121.389 268.834 118.407 276.92C115.425 285.005 110.772 292.368 104.754 298.526C98.735 304.684 91.4862 309.499 83.482 312.655C82.6141 313.004 81.6969 313.343 80.7585 313.66C79.7422 314.009 78.6979 314.335 77.6563 314.628C76.935 314.829 76.1953 315.021 75.4571 315.198C70.7663 316.325 65.9595 316.895 61.1358 316.895ZM34.6768 309.953H34.679L34.7691 309.996C35.1877 310.203 35.5982 310.399 36.021 310.594C36.0955 310.63 36.1655 310.663 36.2393 310.693C37.3177 311.186 38.4239 311.651 39.5451 312.083C40.4354 312.421 41.2547 312.715 42.048 312.98C52.7717 316.55 64.278 317.041 75.266 314.4C75.9945 314.225 76.7245 314.035 77.4357 313.837C78.4618 313.548 79.4911 313.227 80.4945 312.883C81.4203 312.569 82.3231 312.236 83.1794 311.892C94.4672 307.494 104.159 299.769 110.977 289.738C117.795 279.707 121.418 267.84 121.369 255.704V255.703C121.375 245.834 118.964 236.114 114.348 227.396C114.074 226.879 113.819 226.414 113.568 225.975L113.537 225.921C113.524 225.897 113.512 225.874 113.496 225.851L113.474 225.813C113.433 225.735 113.389 225.657 113.341 225.58C113.188 225.312 113.043 225.061 112.889 224.81C112.687 224.467 112.484 224.133 112.277 223.804C104.91 211.983 93.7075 203.063 80.5522 198.541C78.6105 197.877 76.6355 197.315 74.6352 196.857C74.0942 196.735 73.5522 196.62 73.0062 196.51C72.3415 196.375 71.7869 196.273 71.2604 196.189C71.0108 196.144 70.7647 196.105 70.5209 196.065L70.1278 196.003C69.2172 195.869 68.3941 195.764 67.6225 195.682C66.1653 195.525 64.6699 195.421 63.1773 195.372C62.5015 195.348 61.8129 195.335 61.1294 195.335C60.9627 195.336 60.8042 195.335 60.6436 195.339C60.5499 195.337 60.4857 195.338 60.4215 195.339L59.7489 195.352C58.3912 195.382 57.0275 195.458 55.6959 195.58L55.6546 195.582C55.1885 195.621 54.6972 195.674 54.206 195.731C53.4819 195.813 52.7914 195.904 52.1524 196.004C51.0719 196.164 49.9891 196.356 48.9309 196.575C37.3214 198.966 26.6741 204.737 18.3231 213.166C9.97221 221.594 4.28901 232.305 1.98563 243.956C-0.317745 255.607 0.861146 267.68 5.37459 278.663C9.88804 289.645 17.5353 299.049 27.3582 305.695C27.9802 306.123 28.6186 306.541 29.2586 306.939C30.4915 307.711 31.7692 308.448 33.0575 309.13C33.5939 309.415 34.1381 309.692 34.6768 309.953Z" fill="#CBCBCB"/>
<path d="M113.029 242.506C112.366 243.372 111.523 244.082 110.557 244.586C109.592 245.09 108.528 245.376 107.44 245.423C106.353 245.47 105.268 245.278 104.262 244.86C103.257 244.441 102.355 243.807 101.621 243.002L85.6196 248.805L79.729 239.92L102.441 232.043C103.872 230.897 105.674 230.316 107.505 230.412C109.335 230.507 111.067 231.272 112.372 232.562C113.677 233.852 114.465 235.576 114.586 237.409C114.707 239.242 114.153 241.055 113.029 242.506Z" fill="#9F616A"/>
<path d="M63.0288 243.333L95.9942 232.414L101.549 244.565L70.8149 254.011L63.0288 243.333Z" fill="#CCCCCC"/>
<path d="M75.3616 314.799C64.2989 317.456 52.7154 316.961 41.9185 313.37L42.6561 306.38L43.3404 299.85L53.6057 283.945L56.8964 278.849L70.4564 283.789L71.8374 292.516L74.038 306.434L75.3616 314.799Z" fill="#434343"/>
<path d="M83.332 312.273C82.4427 312.631 81.5371 312.963 80.6273 313.271C79.611 313.62 78.5838 313.941 77.5457 314.232C76.8245 314.433 76.0964 314.622 75.3615 314.799C64.2987 317.456 52.7152 316.961 41.9183 313.37C41.07 313.086 40.2299 312.783 39.3981 312.466C39.5116 314.898 39.4376 317.335 39.1768 319.756C37.993 316.919 36.9616 314.021 36.0869 311.074C36.0255 310.877 35.9681 310.68 35.9107 310.483C35.6239 309.489 35.3698 308.54 35.1403 307.649C34.8781 306.618 34.6527 305.662 34.4642 304.787C33.7142 301.354 33.4766 299.231 33.4766 299.231L41.488 282.557L43.0903 282.742L43.7542 282.816L47.7701 283.276L53.6056 283.945L63.0595 285.025L71.8373 292.516L79.7012 299.23C79.7012 299.23 80.3569 301.465 81.3854 305.165C81.9428 307.152 82.6025 309.563 83.332 312.273Z" fill="#434343"/>
<path d="M57.9333 201.364C65.7619 201.364 72.1083 195.004 72.1083 187.159C72.1083 179.314 65.7619 172.954 57.9333 172.954C50.1047 172.954 43.7583 179.314 43.7583 187.159C43.7583 195.004 50.1047 201.364 57.9333 201.364Z" fill="#9F616A"/>
<path d="M67.8005 217.084C67.8005 217.084 64.3937 206.531 56.3817 206.531C54.3787 206.531 51.1463 206.697 48.5186 208.416C37.9395 215.334 31.5037 227.093 31.0106 239.743L28.5474 302.937C28.5474 302.937 42.106 307.878 47.0365 306.025C51.9669 304.172 56.8973 291.82 56.8973 291.82C56.8973 291.82 55.6647 308.496 60.5952 307.878C65.5256 307.26 84.0147 306.025 84.631 303.555C85.2473 301.084 75.1961 247.965 75.1961 247.965L67.8005 217.084Z" fill="#CCCCCC"/>
<path d="M51.0422 191.324C52.3138 191.248 53.5555 191.678 54.8183 191.846C59.3364 192.447 64.0365 189.162 65.0341 184.705C65.1141 184.112 65.2906 183.535 65.5566 182.999C66.252 181.861 67.8356 181.645 69.1411 181.906C70.4465 182.168 71.684 182.78 73.0134 182.85C75.0662 182.958 77.0369 181.691 78.1309 179.947C79.2249 178.203 79.5346 176.057 79.3869 174.003L78.4029 175.038C78.003 174.19 77.8486 173.247 77.9573 172.316C77.4358 172.176 76.8874 172.174 76.3646 172.308C75.8418 172.442 75.3621 172.708 74.9714 173.081C74.1037 173.174 74.7586 171.468 74.1139 170.879C73.8004 170.686 73.4267 170.616 73.0647 170.682C71.2188 170.7 69.7255 169.285 68.2708 168.146C65.7504 166.177 62.8031 164.83 59.667 164.213C57.5825 163.806 55.366 163.74 53.3892 164.518C51.7657 165.157 50.4069 166.32 49.1497 167.532C46.0548 170.514 43.3142 174.018 42.0267 178.123C40.9799 181.485 40.9503 185.083 41.9415 188.462C42.4602 190.216 44.0238 196.226 46.3128 196.366C49.189 196.542 47.4622 191.538 51.0422 191.324Z" fill="#434343"/>
<path opacity="0.1" d="M57.0275 235.787L42.5122 257.122L37.8701 306.677L57.0275 235.787Z" fill="#434343"/>
<path d="M118.546 222.746C118.894 222.258 119.027 221.756 118.845 221.626C118.662 221.495 118.233 221.785 117.885 222.273C117.538 222.761 117.404 223.262 117.587 223.393C117.769 223.523 118.199 223.233 118.546 222.746Z" fill="#3F3D56"/>
<path d="M99.1894 245.73C98.7803 245.438 98.5039 244.994 98.421 244.497C98.3381 244.001 98.4555 243.491 98.7474 243.081L115.256 219.893C115.548 219.483 115.991 219.206 116.487 219.123C116.982 219.04 117.491 219.158 117.9 219.45L99.1894 245.73Z" fill="#10B981"/>
<path d="M99.8672 248.048L98.9119 247.365C98.748 247.248 98.6087 247.099 98.502 246.928C98.3953 246.757 98.3233 246.566 98.29 246.367C98.2568 246.168 98.2631 245.964 98.3084 245.768C98.3537 245.571 98.4373 245.385 98.5542 245.221L117.351 218.819C117.551 218.539 117.853 218.35 118.192 218.293C118.53 218.236 118.878 218.317 119.157 218.517L120.307 219.339L99.8672 248.048Z" fill="#434343"/>
<path d="M116.784 221.485L115.526 223.252L115.967 223.567L117.224 221.8L116.784 221.485Z" fill="#D0CDE1"/>
<path d="M115.054 223.914L113.796 225.681L114.237 225.996L115.494 224.229L115.054 223.914Z" fill="#D0CDE1"/>
<path d="M41.1651 322.841C41.801 321.956 42.2355 320.942 42.4379 319.87C42.6403 318.798 42.6057 317.694 42.3366 316.637C42.0674 315.58 41.5703 314.595 40.8801 313.751C40.19 312.908 39.3236 312.226 38.3421 311.754L39.2615 294.726L29.0718 291.642L28.1104 315.707C27.4287 317.412 27.3947 319.309 28.015 321.037C28.6352 322.765 29.8666 324.206 31.4757 325.085C33.0849 325.965 34.96 326.222 36.7458 325.808C38.5316 325.395 40.104 324.339 41.1651 322.841Z" fill="#9F616A"/>
<path d="M41.111 308.835H26.3697L22.3135 263.331L22.3274 263.289L36.1248 222.681C36.6106 221.252 37.3882 219.939 38.4081 218.827C39.428 217.714 40.6678 216.827 42.0485 216.222C43.4293 215.616 44.9208 215.305 46.4281 215.309C47.9353 215.313 49.4252 215.631 50.803 216.244C52.1807 216.856 53.4161 217.749 54.4304 218.867C55.4447 219.984 56.2158 221.301 56.6944 222.733C57.1731 224.165 57.3489 225.682 57.2106 227.186C57.0724 228.69 56.6231 230.149 55.8914 231.469L39.6563 260.769L41.111 308.835Z" fill="#CCCCCC"/>
<path d="M356.59 111.495C356.602 123.472 353.084 135.186 346.48 145.169C339.875 155.152 330.477 162.958 319.463 167.61C308.45 172.262 296.311 173.553 284.569 171.32C272.826 169.087 262.003 163.43 253.455 155.058C244.908 146.687 239.016 135.973 236.52 124.259C234.023 112.546 235.033 100.355 239.421 89.2142C243.81 78.0734 251.382 68.4787 261.19 61.633C270.997 54.7873 282.603 50.9952 294.552 50.732C294.74 50.7279 294.929 50.7238 295.121 50.7197C295.392 50.7156 295.666 50.7156 295.941 50.7156C296.629 50.7156 297.318 50.7279 298.002 50.7525C299.51 50.8018 301.002 50.9059 302.477 51.0646C303.329 51.155 304.17 51.2659 305.01 51.3891C305.104 51.4055 305.202 51.4178 305.297 51.4342C308.763 51.9698 312.176 52.8094 315.496 53.9434C327.482 58.0397 337.888 65.7911 345.257 76.1115C352.627 86.4319 356.589 98.8041 356.59 111.495Z" fill="white"/>
<path d="M295.885 172.797C262.211 172.799 234.803 145.362 234.771 111.61C234.756 95.5896 241.005 80.2012 252.179 68.7441C263.352 57.2871 278.561 50.6735 294.543 50.3214L295.113 50.309C296.078 50.2952 297.06 50.3076 298.017 50.3421C299.527 50.3916 301.043 50.4973 302.521 50.6565C303.304 50.7393 304.137 50.8462 305.069 50.983L305.367 51.0297C319.76 53.2693 332.878 60.5969 342.349 71.6872C351.819 82.7774 357.016 96.8979 357 111.495V111.494C357.032 145.265 329.642 172.765 295.943 172.797L295.885 172.797ZM295.935 51.1263C295.664 51.1263 295.394 51.1263 295.128 51.1303L294.561 51.1428C262.014 51.8594 235.56 78.9847 235.591 111.609C235.622 144.906 262.666 171.974 295.885 171.976H295.942C329.189 171.944 356.212 144.813 356.181 111.495V111.495C356.196 97.0927 351.068 83.1607 341.724 72.2189C332.379 61.2771 319.435 54.0483 305.234 51.8402L304.94 51.7939C304.03 51.6603 303.207 51.5549 302.434 51.4732C300.975 51.316 299.48 51.2118 297.989 51.163C297.313 51.1386 296.625 51.1263 295.941 51.1263H295.935Z" fill="#CBCBCB"/>
<path d="M249.534 114.776C249.654 114.586 249.341 114.172 248.836 113.851C248.331 113.531 247.824 113.425 247.704 113.614C247.584 113.804 247.896 114.218 248.402 114.539C248.907 114.859 249.414 114.965 249.534 114.776Z" fill="#3F3D56"/>
<path d="M247.761 111.242C247.894 111.031 248.067 110.849 248.271 110.706C248.474 110.562 248.704 110.46 248.947 110.405C249.189 110.351 249.44 110.344 249.686 110.387C249.931 110.43 250.165 110.52 250.376 110.654L274.39 125.893C274.6 126.027 274.782 126.2 274.925 126.404C275.069 126.608 275.17 126.838 275.225 127.082C275.28 127.325 275.286 127.577 275.243 127.822C275.201 128.068 275.11 128.303 274.977 128.514L247.761 111.242Z" fill="#10B981"/>
<path d="M245.489 112.049L246.245 110.853C246.429 110.562 246.72 110.356 247.055 110.281C247.39 110.206 247.741 110.267 248.032 110.451L275.374 127.802C275.544 127.91 275.691 128.051 275.807 128.216C275.923 128.381 276.006 128.567 276.05 128.764C276.094 128.961 276.099 129.165 276.064 129.364C276.03 129.562 275.957 129.753 275.849 129.923L275.221 130.917L245.489 112.049Z" fill="#434343"/>
<path d="M249.56 112.705L249.271 113.164L251.1 114.325L251.39 113.866L249.56 112.705Z" fill="#D0CDE1"/>
<path d="M252.076 114.302L251.786 114.76L253.616 115.921L253.905 115.463L252.076 114.302Z" fill="#D0CDE1"/>
<path d="M296.103 56.9722C305.53 56.9722 313.171 49.314 313.171 39.8671C313.171 30.4202 305.53 22.762 296.103 22.762C286.676 22.762 279.034 30.4202 279.034 39.8671C279.034 49.314 286.676 56.9722 296.103 56.9722Z" fill="#FFB8B8"/>
<path d="M312.357 170.023C298.509 173.899 283.74 172.742 270.661 166.758L271.972 131.646L272.07 128.915L272.107 128.028L272.152 126.722L272.185 125.889C272.185 125.889 272.238 125.885 272.341 125.88C272.619 125.86 273.263 125.815 274.185 125.761C275.254 125.7 276.693 125.622 278.369 125.552C278.766 125.535 279.176 125.519 279.598 125.498C288.425 125.17 302.211 125.1 304.034 127.765L304.264 129.334L304.632 131.868L305.386 137.047C305.386 137.047 313.959 154.13 312.357 170.023Z" fill="#434343"/>
<path d="M316.691 81.4654L313.329 112.586L306.926 126.779L304.553 132.042L270.208 131.625L273.746 107.636C268.75 94.7026 280.615 89.4877 280.615 89.4877L292.923 64.2173C292.923 64.2173 296.201 62.5746 304.761 62.1612C312.719 61.7768 306.446 62.9853 306.446 62.9853C316.853 61.9423 316.691 81.4654 316.691 81.4654Z" fill="#CCCCCC"/>
<path opacity="0.2" d="M306.362 114.229L299.959 128.422C297.903 124.567 296.337 120.201 296.337 117.622C296.337 110.53 303.415 114.285 303.415 114.285C303.415 114.285 297.69 82.8906 297.69 73.5037C297.69 67.2686 302.878 94.9393 306.362 114.229Z" fill="#434343"/>
<path d="M315.774 29.4461C314.664 26.7306 312.946 24.3067 310.754 22.3613C311.653 22.0592 312.404 21.4253 312.853 20.5886C313.51 19.2853 313.162 17.651 312.269 16.4846C311.455 15.4991 310.402 14.7397 309.211 14.2791C310.083 14.6768 311.038 14.8608 311.996 14.8159C313.156 14.6949 314.317 13.7819 314.248 12.6491C314.182 11.5699 313.123 10.8401 312.172 10.2769C311.556 9.91157 310.939 9.54624 310.322 9.18092C310.505 8.826 310.666 8.46004 310.804 8.08514C311.336 6.72223 311.464 5.2343 311.173 3.80008C310.882 2.36585 310.184 1.04633 309.163 0C311.183 2.06059 310.667 5.24964 308.672 7.83762C308.607 7.92101 308.538 8.00234 308.471 8.08466C308.076 7.85045 307.68 7.61625 307.285 7.38205C306.299 6.79793 305.274 6.20015 304.128 6.06239C302.983 5.92464 301.678 6.37902 301.211 7.40296C300.71 8.49899 301.279 9.89768 300.627 10.9153C300.056 11.8058 298.81 11.9954 297.73 11.9532C296.65 11.911 295.502 11.7401 294.541 12.2188C293.206 12.8842 292.767 14.6838 293.361 16.0259C293.625 16.5975 294.019 17.0994 294.511 17.4916C291.652 17.8916 288.837 18.7423 286.07 19.6075C282.807 20.6278 279.484 21.7114 276.757 23.7765C274.03 25.8415 271.964 29.1013 272.224 32.5165C272.484 35.9317 275.87 41.3106 279.244 40.7646L279.757 39.153C281.798 38.1811 284.09 37.8717 286.314 38.268C288.539 38.6643 290.584 39.7466 292.165 41.3638C292.204 39.2136 295.47 38.4992 297.097 39.9011C298.725 41.303 299.039 43.6732 299.165 45.8201C299.291 47.9669 299.411 50.3045 300.822 51.9247C302.176 53.4797 304.483 53.9618 306.49 53.4986C308.497 53.0353 310.232 51.7593 311.67 50.281C316.884 44.9175 318.564 36.3932 315.774 29.4461Z" fill="#434343"/>
<path d="M261.333 129.57C262.217 130.207 263.229 130.643 264.298 130.845C265.368 131.048 266.469 131.014 267.524 130.744C268.579 130.474 269.562 129.976 270.404 129.284C271.246 128.593 271.926 127.724 272.397 126.741L318.894 127.662L321.971 117.451L268.452 116.487C266.751 115.804 264.858 115.77 263.134 116.392C261.409 117.013 259.972 118.247 259.094 119.86C258.217 121.472 257.96 123.352 258.372 125.141C258.785 126.931 259.838 128.507 261.333 129.57Z" fill="#FFB8B8"/>
<path d="M306.537 61.3007C306.537 61.3007 295.713 62.1351 295.713 71.5221C295.713 80.909 305.496 114.285 305.496 114.285C305.496 114.285 298.419 110.53 298.419 117.622C298.419 124.715 310.284 145.366 311.533 131.599C311.533 131.599 329.434 140.36 328.393 123.88C327.352 107.401 316.112 72.5651 316.112 72.5651C316.112 72.5651 314.863 60.6749 306.537 61.3007Z" fill="#CCCCCC"/>
</g>
<defs>
<clipPath id="clip0_1089_197">
<rect width="357" height="326" fill="white"/>
</clipPath>
</defs>
</svg>
